<ttFont>
    <TTGlyph name=".notdef" xMin="0" yMin="0" xMax="500" yMax="700">
      <contour>
        <pt x="0" y="700" on="1"/>
        <pt x="500" y="700" on="1"/>
        <pt x="500" y="0" on="1"/>
        <pt x="0" y="0" on="1"/>
      </contour>
      <contour>
        <pt x="50" y="650" on="1"/>
        <pt x="50" y="50" on="1"/>
        <pt x="450" y="50" on="1"/>
        <pt x="450" y="650" on="1"/>
      </contour>
      <contour>
        <pt x="229" y="278" on="1"/>
        <pt x="229" y="307" on="0"/>
        <pt x="256" y="345" on="0"/>
        <pt x="283" y="367" on="1"/>
        <pt x="311" y="390" on="0"/>
        <pt x="339" y="431" on="0"/>
        <pt x="339" y="465" on="1"/>
        <pt x="339" y="496" on="0"/>
        <pt x="301" y="552" on="0"/>
        <pt x="250" y="552" on="1"/>
        <pt x="192" y="552" on="0"/>
        <pt x="152" y="485" on="0"/>
        <pt x="152" y="452" on="1"/>
        <pt x="152" y="424" on="1"/>
        <pt x="103" y="424" on="1"/>
        <pt x="99" y="438" on="0"/>
        <pt x="99" y="455" on="1"/>
        <pt x="99" y="478" on="0"/>
        <pt x="120" y="544" on="0"/>
        <pt x="187" y="602" on="0"/>
        <pt x="250" y="602" on="1"/>
        <pt x="313" y="602" on="0"/>
        <pt x="376" y="546" on="0"/>
        <pt x="393" y="486" on="0"/>
        <pt x="393" y="467" on="1"/>
        <pt x="393" y="422" on="0"/>
        <pt x="356" y="364" on="0"/>
        <pt x="326" y="338" on="1"/>
        <pt x="304" y="320" on="0"/>
        <pt x="282" y="290" on="0"/>
        <pt x="282" y="268" on="1"/>
        <pt x="282" y="215" on="1"/>
        <pt x="229" y="215" on="1"/>
      </contour>
      <contour>
        <pt x="225" y="169" on="1"/>
        <pt x="285" y="169" on="1"/>
        <pt x="285" y="99" on="1"/>
        <pt x="225" y="99" on="1"/>
      </contour>
    </TTGlyph>
    <TTGlyph name=".ttfautohint" xMin="0" yMin="0" xMax="0" yMax="0">
      <contour>
        <pt x="0" y="0" on="1"/>
      </contour>
    </TTGlyph>
    <TTGlyph name="A" xMin="13" yMin="0" xMax="386" yMax="688">
      <contour>
        <pt x="267" y="178" on="1"/>
        <pt x="130" y="178" on="1"/>
        <pt x="97" y="0" on="1"/>
        <pt x="13" y="0" on="1"/>
        <pt x="139" y="688" on="1"/>
        <pt x="260" y="688" on="1"/>
        <pt x="386" y="0" on="1"/>
        <pt x="300" y="0" on="1"/>
      </contour>
      <contour>
        <pt x="196" y="585" on="1"/>
        <pt x="138" y="254" on="1"/>
        <pt x="259" y="254" on="1"/>
        <pt x="201" y="585" on="1"/>
      </contour>
    </TTGlyph>
    <TTGlyph name="A.ss01" xMin="45" yMin="0" xMax="364" yMax="696">
      <contour>
        <pt x="279" y="233" on="1"/>
        <pt x="130" y="233" on="1"/>
        <pt x="130" y="0" on="1"/>
        <pt x="45" y="0" on="1"/>
        <pt x="45" y="389" on="1"/>
        <pt x="45" y="524" on="0"/>
        <pt x="63" y="643" on="0"/>
        <pt x="129" y="696" on="0"/>
        <pt x="205" y="696" on="1"/>
        <pt x="281" y="696" on="0"/>
        <pt x="347" y="643" on="0"/>
        <pt x="364" y="524" on="0"/>
        <pt x="364" y="389" on="1"/>
        <pt x="364" y="0" on="1"/>
        <pt x="279" y="0" on="1"/>
      </contour>
      <contour>
        <pt x="279" y="519" on="0"/>
        <pt x="271" y="591" on="0"/>
        <pt x="241" y="618" on="0"/>
        <pt x="205" y="618" on="1"/>
        <pt x="168" y="618" on="0"/>
        <pt x="138" y="591" on="0"/>
        <pt x="130" y="518" on="0"/>
        <pt x="130" y="429" on="1"/>
        <pt x="130" y="310" on="1"/>
        <pt x="279" y="310" on="1"/>
        <pt x="279" y="429" on="1"/>
      </contour>
    </TTGlyph>
    <TTGlyph name="AE" xMin="-6" yMin="0" xMax="501" yMax="688">
      <contour>
        <pt x="261" y="178" on="1"/>
        <pt x="122" y="178" on="1"/>
        <pt x="78" y="0" on="1"/>
        <pt x="-6" y="0" on="1"/>
        <pt x="159" y="688" on="1"/>
        <pt x="501" y="688" on="1"/>
        <pt x="501" y="610" on="1"/>
        <pt x="294" y="610" on="1"/>
        <pt x="324" y="387" on="1"/>
        <pt x="480" y="387" on="1"/>
        <pt x="480" y="309" on="1"/>
        <pt x="331" y="309" on="1"/>
        <pt x="362" y="78" on="1"/>
        <pt x="501" y="78" on="1"/>
        <pt x="501" y="0" on="1"/>
        <pt x="284" y="0" on="1"/>
      </contour>
      <contour>
        <pt x="212" y="585" on="1"/>
        <pt x="133" y="254" on="1"/>
        <pt x="256" y="254" on="1"/>
        <pt x="218" y="585" on="1"/>
      </contour>
    </TTGlyph>
    <TTGlyph name="AEacute" xMin="-6" yMin="0" xMax="501" yMax="888">
      <component glyphName=".ttfautohint" x="0" y="0" flags="0x0"/>
      <component glyphName="AE" x="0" y="0" flags="0x0"/>
      <component glyphName="acutecomb.case" x="346" y="0" flags="0x0"/>
    </TTGlyph>
    <TTGlyph name="Aacute" xMin="13" yMin="0" xMax="386" yMax="892">
      <component glyphName=".ttfautohint" x="13" y="0" flags="0x0"/>
      <component glyphName="A" x="0" y="0" flags="0x0"/>
      <component glyphName="acute" x="165" y="149" flags="0x4"/>
    </TTGlyph>
    <TTGlyph name="Aacute.ss01" xMin="45" yMin="0" xMax="364" yMax="892">
      <component glyphName=".ttfautohint" x="45" y="0" flags="0x0"/>
      <component glyphName="A.ss01" x="0" y="0" flags="0x0"/>
      <component glyphName="acute" x="172" y="149" flags="0x4"/>
    </TTGlyph>
    <TTGlyph name="Abreve" xMin="13" yMin="0" xMax="386" yMax="888">
      <component glyphName=".ttfautohint" x="13" y="0" flags="0x0"/>
      <component glyphName="A" x="0" y="0" flags="0x0"/>
      <component glyphName="uni0306.case" x="304" y="0" flags="0x0"/>
    </TTGlyph>
    <TTGlyph name="Abreve.ss01" xMin="45" yMin="0" xMax="364" yMax="888">
      <component glyphName=".ttfautohint" x="45" y="0" flags="0x0"/>
      <component glyphName="A.ss01" x="0" y="0" flags="0x0"/>
      <component glyphName="uni0306.case" x="309" y="0" flags="0x0"/>
    </TTGlyph>
    <TTGlyph name="Acircumflex" xMin="13" yMin="0" xMax="386" yMax="881">
      <component glyphName=".ttfautohint" x="13" y="0" flags="0x0"/>
      <component glyphName="A" x="0" y="0" flags="0x0"/>
      <component glyphName="circumflex" x="92" y="138" flags="0x4"/>
    </TTGlyph>
    <TTGlyph name="Acircumflex.ss01" xMin="45" yMin="0" xMax="364" yMax="881">
      <component glyphName=".ttfautohint" x="45" y="0" flags="0x0"/>
      <component glyphName="A.ss01" x="0" y="0" flags="0x0"/>
      <component glyphName="circumflex" x="102" y="138" flags="0x4"/>
    </TTGlyph>
    <TTGlyph name="Adieresis" xMin="13" yMin="0" xMax="386" yMax="854">
      <component glyphName=".ttfautohint" x="13" y="0" flags="0x0"/>
      <component glyphName="A" x="0" y="0" flags="0x0"/>
      <component glyphName="dieresis" x="65" y="124" flags="0x4"/>
    </TTGlyph>
    <TTGlyph name="Adieresis.ss01" xMin="45" yMin="0" xMax="364" yMax="854">
      <component glyphName=".ttfautohint" x="45" y="0" flags="0x0"/>
      <component glyphName="A.ss01" x="0" y="0" flags="0x0"/>
      <component glyphName="dieresis" x="75" y="124" flags="0x4"/>
    </TTGlyph>
    <TTGlyph name="Agrave" xMin="13" yMin="0" xMax="386" yMax="892">
      <component glyphName=".ttfautohint" x="13" y="0" flags="0x0"/>
      <component glyphName="A" x="0" y="0" flags="0x0"/>
      <component glyphName="grave" x="123" y="149" flags="0x4"/>
    </TTGlyph>
    <TTGlyph name="Agrave.ss01" xMin="45" yMin="0" xMax="364" yMax="892">
      <component glyphName=".ttfautohint" x="45" y="0" flags="0x0"/>
      <component glyphName="A.ss01" x="0" y="0" flags="0x0"/>
      <component glyphName="grave" x="134" y="149" flags="0x4"/>
    </TTGlyph>
    <TTGlyph name="Amacron" xMin="13" yMin="0" xMax="386" yMax="888">
      <component glyphName=".ttfautohint" x="13" y="0" flags="0x0"/>
      <component glyphName="A" x="0" y="0" flags="0x0"/>
      <component glyphName="uni0304.case" x="334" y="0" flags="0x0"/>
    </TTGlyph>
    <TTGlyph name="Amacron.ss01" xMin="45" yMin="0" xMax="364" yMax="888">
      <component glyphName=".ttfautohint" x="45" y="0" flags="0x0"/>
      <component glyphName="A.ss01" x="0" y="0" flags="0x0"/>
      <component glyphName="uni0304.case" x="339" y="0" flags="0x0"/>
    </TTGlyph>
    <TTGlyph name="Aogonek" xMin="13" yMin="-196" xMax="386" yMax="688">
      <contour>
        <pt x="308" y="-145" on="0"/>
        <pt x="348" y="-145" on="1"/>
        <pt x="362" y="-144" on="1"/>
        <pt x="362" y="-193" on="1"/>
        <pt x="349" y="-196" on="0"/>
        <pt x="327" y="-196" on="1"/>
        <pt x="284" y="-196" on="0"/>
        <pt x="244" y="-152" on="0"/>
        <pt x="244" y="-116" on="1"/>
        <pt x="244" y="-88" on="0"/>
        <pt x="275" y="-23" on="0"/>
        <pt x="300" y="3" on="1"/>
        <pt x="267" y="178" on="1"/>
        <pt x="130" y="178" on="1"/>
        <pt x="97" y="0" on="1"/>
        <pt x="13" y="0" on="1"/>
        <pt x="139" y="688" on="1"/>
        <pt x="260" y="688" on="1"/>
        <pt x="386" y="0" on="1"/>
        <pt x="357" y="0" on="1"/>
        <pt x="339" y="-18" on="0"/>
        <pt x="308" y="-78" on="0"/>
        <pt x="308" y="-103" on="1"/>
      </contour>
      <contour>
        <pt x="259" y="254" on="1"/>
        <pt x="201" y="585" on="1"/>
        <pt x="196" y="585" on="1"/>
        <pt x="138" y="254" on="1"/>
      </contour>
    </TTGlyph>
    <TTGlyph name="Aogonek.ss01" xMin="45" yMin="-196" xMax="364" yMax="696">
      <contour>
        <pt x="337" y="0" on="1"/>
        <pt x="318" y="-20" on="0"/>
        <pt x="288" y="-78" on="0"/>
        <pt x="288" y="-103" on="1"/>
        <pt x="288" y="-145" on="0"/>
        <pt x="329" y="-145" on="1"/>
        <pt x="342" y="-144" on="1"/>
        <pt x="342" y="-193" on="1"/>
        <pt x="329" y="-196" on="0"/>
        <pt x="308" y="-196" on="1"/>
        <pt x="264" y="-196" on="0"/>
        <pt x="224" y="-152" on="0"/>
        <pt x="224" y="-116" on="1"/>
        <pt x="224" y="-88" on="0"/>
        <pt x="255" y="-23" on="0"/>
        <pt x="279" y="2" on="1"/>
        <pt x="279" y="233" on="1"/>
        <pt x="130" y="233" on="1"/>
        <pt x="130" y="0" on="1"/>
        <pt x="45" y="0" on="1"/>
        <pt x="45" y="389" on="1"/>
        <pt x="45" y="524" on="0"/>
        <pt x="63" y="643" on="0"/>
        <pt x="129" y="696" on="0"/>
        <pt x="205" y="696" on="1"/>
        <pt x="281" y="696" on="0"/>
        <pt x="347" y="643" on="0"/>
        <pt x="364" y="524" on="0"/>
        <pt x="364" y="389" on="1"/>
        <pt x="364" y="0" on="1"/>
      </contour>
      <contour>
        <pt x="279" y="310" on="1"/>
        <pt x="279" y="429" on="1"/>
        <pt x="279" y="519" on="0"/>
        <pt x="271" y="591" on="0"/>
        <pt x="241" y="618" on="0"/>
        <pt x="205" y="618" on="1"/>
        <pt x="168" y="618" on="0"/>
        <pt x="138" y="591" on="0"/>
        <pt x="130" y="518" on="0"/>
        <pt x="130" y="429" on="1"/>
        <pt x="130" y="310" on="1"/>
      </contour>
    </TTGlyph>
    <TTGlyph name="Aring" xMin="13" yMin="0" xMax="386" yMax="862">
      <contour>
        <pt x="386" y="0" on="1"/>
        <pt x="300" y="0" on="1"/>
        <pt x="267" y="178" on="1"/>
        <pt x="130" y="178" on="1"/>
        <pt x="97" y="0" on="1"/>
        <pt x="13" y="0" on="1"/>
        <pt x="137" y="682" on="1"/>
        <pt x="113" y="690" on="0"/>
        <pt x="101" y="726" on="0"/>
        <pt x="101" y="766" on="1"/>
        <pt x="101" y="804" on="0"/>
        <pt x="113" y="843" on="0"/>
        <pt x="155" y="862" on="0"/>
        <pt x="200" y="862" on="1"/>
        <pt x="245" y="862" on="0"/>
        <pt x="286" y="843" on="0"/>
        <pt x="298" y="804" on="0"/>
        <pt x="298" y="766" on="1"/>
        <pt x="298" y="728" on="0"/>
        <pt x="284" y="690" on="0"/>
        <pt x="262" y="683" on="1"/>
      </contour>
      <contour>
        <pt x="181" y="815" on="0"/>
        <pt x="164" y="807" on="0"/>
        <pt x="159" y="787" on="0"/>
        <pt x="159" y="766" on="1"/>
        <pt x="159" y="744" on="0"/>
        <pt x="164" y="726" on="0"/>
        <pt x="180" y="718" on="0"/>
        <pt x="200" y="718" on="1"/>
        <pt x="227" y="718" on="0"/>
        <pt x="240" y="735" on="0"/>
        <pt x="240" y="766" on="1"/>
        <pt x="240" y="796" on="0"/>
        <pt x="227" y="815" on="0"/>
        <pt x="200" y="815" on="1"/>
      </contour>
      <contour>
        <pt x="259" y="254" on="1"/>
        <pt x="201" y="585" on="1"/>
        <pt x="196" y="585" on="1"/>
        <pt x="138" y="254" on="1"/>
      </contour>
    </TTGlyph>
    <TTGlyph name="Aring.ss01" xMin="45" yMin="0" xMax="364" yMax="927">
      <component glyphName=".ttfautohint" x="45" y="0" flags="0x0"/>
      <component glyphName="A.ss01" x="0" y="0" flags="0x0"/>
      <component glyphName="ring" x="111" y="119" flags="0x4"/>
    </TTGlyph>
    <TTGlyph name="Aringacute" xMin="13" yMin="0" xMax="386" yMax="1062">
      <component glyphName=".ttfautohint" x="13" y="0" flags="0x0"/>
      <component glyphName="Aring" x="0" y="0" flags="0x0"/>
      <component glyphName="acutecomb.case" x="281" y="174" flags="0x4"/>
    </TTGlyph>
    <TTGlyph name="Aringacute.ss01" xMin="45" yMin="0" xMax="364" yMax="1093">
      <component glyphName=".ttfautohint" x="45" y="0" flags="0x0"/>
      <component glyphName="A.ss01" x="0" y="0" flags="0x0"/>
      <component glyphName="uni030A.case" x="302" y="0" flags="0x0"/>
      <component glyphName="acutecomb.case" x="289" y="205" flags="0x4"/>
    </TTGlyph>
    <TTGlyph name="Atilde" xMin="13" yMin="0" xMax="386" yMax="872">
      <component glyphName=".ttfautohint" x="13" y="0" flags="0x0"/>
      <component glyphName="A" x="0" y="0" flags="0x0"/>
      <component glyphName="tilde" x="77" y="129" flags="0x4"/>
    </TTGlyph>
    <TTGlyph name="Atilde.ss01" xMin="45" yMin="0" xMax="364" yMax="873">
      <component glyphName=".ttfautohint" x="45" y="0" flags="0x0"/>
      <component glyphName="A.ss01" x="0" y="0" flags="0x0"/>
      <component glyphName="tilde" x="87" y="130" flags="0x4"/>
    </TTGlyph>
    <TTGlyph name="B" xMin="50" yMin="0" xMax="360" yMax="688">
      <contour>
        <pt x="50" y="688" on="1"/>
        <pt x="211" y="688" on="1"/>
        <pt x="286" y="688" on="0"/>
        <pt x="355" y="601" on="0"/>
        <pt x="355" y="516" on="1"/>
        <pt x="355" y="444" on="0"/>
        <pt x="314" y="366" on="0"/>
        <pt x="269" y="354" on="1"/>
        <pt x="269" y="350" on="1"/>
        <pt x="320" y="338" on="0"/>
        <pt x="360" y="257" on="0"/>
        <pt x="360" y="182" on="1"/>
        <pt x="360" y="96" on="0"/>
        <pt x="293" y="0" on="0"/>
        <pt x="209" y="0" on="1"/>
        <pt x="50" y="0" on="1"/>
      </contour>
      <contour>
        <pt x="235" y="386" on="0"/>
        <pt x="273" y="438" on="0"/>
        <pt x="273" y="498" on="1"/>
        <pt x="273" y="543" on="0"/>
        <pt x="260" y="590" on="0"/>
        <pt x="228" y="610" on="0"/>
        <pt x="196" y="610" on="1"/>
        <pt x="133" y="610" on="1"/>
        <pt x="133" y="386" on="1"/>
        <pt x="196" y="386" on="1"/>
      </contour>
      <contour>
        <pt x="228" y="78" on="0"/>
        <pt x="262" y="99" on="0"/>
        <pt x="276" y="149" on="0"/>
        <pt x="276" y="195" on="1"/>
        <pt x="276" y="261" on="0"/>
        <pt x="240" y="311" on="0"/>
        <pt x="196" y="311" on="1"/>
        <pt x="133" y="311" on="1"/>
        <pt x="133" y="78" on="1"/>
        <pt x="196" y="78" on="1"/>
      </contour>
    </TTGlyph>
    <TTGlyph name="C" xMin="37" yMin="-8" xMax="285" yMax="696">
      <contour>
        <pt x="269" y="0" on="0"/>
        <pt x="221" y="-8" on="0"/>
        <pt x="201" y="-8" on="1"/>
        <pt x="127" y="-8" on="0"/>
        <pt x="60" y="48" on="0"/>
        <pt x="37" y="191" on="0"/>
        <pt x="37" y="344" on="1"/>
        <pt x="37" y="495" on="0"/>
        <pt x="61" y="639" on="0"/>
        <pt x="129" y="696" on="0"/>
        <pt x="201" y="696" on="1"/>
        <pt x="224" y="696" on="0"/>
        <pt x="271" y="688" on="0"/>
        <pt x="283" y="683" on="1"/>
        <pt x="283" y="611" on="1"/>
        <pt x="250" y="618" on="0"/>
        <pt x="216" y="618" on="1"/>
        <pt x="170" y="618" on="0"/>
        <pt x="133" y="584" on="0"/>
        <pt x="122" y="477" on="0"/>
        <pt x="122" y="344" on="1"/>
        <pt x="122" y="211" on="0"/>
        <pt x="133" y="104" on="0"/>
        <pt x="170" y="70" on="0"/>
        <pt x="216" y="70" on="1"/>
        <pt x="254" y="70" on="0"/>
        <pt x="285" y="77" on="1"/>
        <pt x="285" y="6" on="1"/>
      </contour>
    </TTGlyph>
    <TTGlyph name="Cacute" xMin="37" yMin="-8" xMax="285" yMax="888">
      <component glyphName=".ttfautohint" x="37" y="0" flags="0x0"/>
      <component glyphName="C" x="0" y="0" flags="0x0"/>
      <component glyphName="acutecomb.case" x="235" y="0" flags="0x0"/>
    </TTGlyph>
    <TTGlyph name="Cacute.loclPLK" xMin="37" yMin="-8" xMax="285" yMax="888">
      <component glyphName=".ttfautohint" x="37" y="0" flags="0x0"/>
      <component glyphName="C" x="0" y="0" flags="0x0"/>
      <component glyphName="acute.case.loclPLK" x="126" y="0" flags="0x0"/>
    </TTGlyph>
    <TTGlyph name="Ccaron" xMin="37" yMin="-8" xMax="285" yMax="888">
      <component glyphName=".ttfautohint" x="37" y="0" flags="0x0"/>
      <component glyphName="C" x="0" y="0" flags="0x0"/>
      <component glyphName="uni030C.case" x="260" y="0" flags="0x0"/>
    </TTGlyph>
    <TTGlyph name="Ccedilla" xMin="37" yMin="-189" xMax="285" yMax="696">
      <contour>
        <pt x="254" y="70" on="0"/>
        <pt x="285" y="77" on="1"/>
        <pt x="285" y="6" on="1"/>
        <pt x="269" y="0" on="0"/>
        <pt x="221" y="-8" on="0"/>
        <pt x="201" y="-8" on="1"/>
        <pt x="185" y="-8" on="0"/>
        <pt x="178" y="-7" on="1"/>
        <pt x="141" y="-189" on="1"/>
        <pt x="69" y="-189" on="1"/>
        <pt x="69" y="-184" on="1"/>
        <pt x="126" y="2" on="1"/>
        <pt x="88" y="15" on="0"/>
        <pt x="50" y="88" on="0"/>
        <pt x="37" y="222" on="0"/>
        <pt x="37" y="344" on="1"/>
        <pt x="37" y="495" on="0"/>
        <pt x="61" y="639" on="0"/>
        <pt x="129" y="696" on="0"/>
        <pt x="201" y="696" on="1"/>
        <pt x="224" y="696" on="0"/>
        <pt x="271" y="688" on="0"/>
        <pt x="283" y="683" on="1"/>
        <pt x="283" y="611" on="1"/>
        <pt x="250" y="618" on="0"/>
        <pt x="216" y="618" on="1"/>
        <pt x="170" y="618" on="0"/>
        <pt x="133" y="584" on="0"/>
        <pt x="122" y="477" on="0"/>
        <pt x="122" y="344" on="1"/>
        <pt x="122" y="211" on="0"/>
        <pt x="133" y="104" on="0"/>
        <pt x="170" y="70" on="0"/>
        <pt x="216" y="70" on="1"/>
      </contour>
    </TTGlyph>
    <TTGlyph name="Ccircumflex" xMin="37" yMin="-8" xMax="285" yMax="888">
      <component glyphName=".ttfautohint" x="37" y="0" flags="0x0"/>
      <component glyphName="C" x="0" y="0" flags="0x0"/>
      <component glyphName="uni0302.case" x="260" y="0" flags="0x0"/>
    </TTGlyph>
    <TTGlyph name="Cdotaccent" xMin="37" yMin="-8" xMax="285" yMax="875">
      <component glyphName=".ttfautohint" x="37" y="0" flags="0x0"/>
      <component glyphName="C" x="0" y="0" flags="0x0"/>
      <component glyphName="uni0307.case" x="200" y="0" flags="0x0"/>
    </TTGlyph>
    <TTGlyph name="D" xMin="50" yMin="0" xMax="359" yMax="688">
      <contour>
        <pt x="50" y="688" on="1"/>
        <pt x="193" y="688" on="1"/>
        <pt x="272" y="688" on="0"/>
        <pt x="340" y="633" on="0"/>
        <pt x="359" y="499" on="0"/>
        <pt x="359" y="344" on="1"/>
        <pt x="359" y="190" on="0"/>
        <pt x="340" y="55" on="0"/>
        <pt x="272" y="0" on="0"/>
        <pt x="193" y="0" on="1"/>
        <pt x="50" y="0" on="1"/>
      </contour>
      <contour>
        <pt x="194" y="78" on="1"/>
        <pt x="233" y="78" on="0"/>
        <pt x="264" y="106" on="0"/>
        <pt x="275" y="212" on="0"/>
        <pt x="275" y="344" on="1"/>
        <pt x="275" y="476" on="0"/>
        <pt x="264" y="582" on="0"/>
        <pt x="233" y="610" on="0"/>
        <pt x="194" y="610" on="1"/>
        <pt x="134" y="610" on="1"/>
        <pt x="134" y="78" on="1"/>
      </contour>
    </TTGlyph>
    <TTGlyph name="Dcaron" xMin="50" yMin="0" xMax="359" yMax="888">
      <component glyphName=".ttfautohint" x="50" y="0" flags="0x0"/>
      <component glyphName="D" x="0" y="0" flags="0x0"/>
      <component glyphName="uni030C.case" x="305" y="0" flags="0x0"/>
    </TTGlyph>
    <TTGlyph name="Dcroat" xMin="5" yMin="0" xMax="359" yMax="688">
      <component glyphName=".ttfautohint" x="5" y="0" flags="0x0"/>
      <component glyphName="Eth" x="0" y="0" flags="0x0"/>
    </TTGlyph>
    <TTGlyph name="E" xMin="50" yMin="0" xMax="305" yMax="688">
      <contour>
        <pt x="50" y="688" on="1"/>
        <pt x="305" y="688" on="1"/>
        <pt x="305" y="610" on="1"/>
        <pt x="135" y="610" on="1"/>
        <pt x="135" y="387" on="1"/>
        <pt x="284" y="387" on="1"/>
        <pt x="284" y="309" on="1"/>
        <pt x="135" y="309" on="1"/>
        <pt x="135" y="78" on="1"/>
        <pt x="305" y="78" on="1"/>
        <pt x="305" y="0" on="1"/>
        <pt x="50" y="0" on="1"/>
      </contour>
    </TTGlyph>
    <TTGlyph name="Eacute" xMin="50" yMin="0" xMax="305" yMax="892">
      <component glyphName=".ttfautohint" x="50" y="0" flags="0x0"/>
      <component glyphName="E" x="0" y="0" flags="0x0"/>
      <component glyphName="acute" x="149" y="149" flags="0x4"/>
    </TTGlyph>
    <TTGlyph name="Ebreve" xMin="50" yMin="0" xMax="305" yMax="888">
      <component glyphName=".ttfautohint" x="50" y="0" flags="0x0"/>
      <component glyphName="E" x="0" y="0" flags="0x0"/>
      <component glyphName="uni0306.case" x="282" y="0" flags="0x0"/>
    </TTGlyph>
    <TTGlyph name="Ecaron" xMin="50" yMin="0" xMax="305" yMax="888">
      <component glyphName=".ttfautohint" x="50" y="0" flags="0x0"/>
      <component glyphName="E" x="0" y="0" flags="0x0"/>
      <component glyphName="uni030C.case" x="284" y="0" flags="0x0"/>
    </TTGlyph>
    <TTGlyph name="Ecircumflex" xMin="50" yMin="0" xMax="305" yMax="881">
      <component glyphName=".ttfautohint" x="50" y="0" flags="0x0"/>
      <component glyphName="E" x="0" y="0" flags="0x0"/>
      <component glyphName="circumflex" x="71" y="138" flags="0x4"/>
    </TTGlyph>
    <TTGlyph name="Edieresis" xMin="50" yMin="0" xMax="305" yMax="854">
      <component glyphName=".ttfautohint" x="50" y="0" flags="0x0"/>
      <component glyphName="E" x="0" y="0" flags="0x0"/>
      <component glyphName="dieresis" x="45" y="124" flags="0x4"/>
    </TTGlyph>
    <TTGlyph name="Edotaccent" xMin="50" yMin="0" xMax="305" yMax="875">
      <component glyphName=".ttfautohint" x="50" y="0" flags="0x0"/>
      <component glyphName="E" x="0" y="0" flags="0x0"/>
      <component glyphName="uni0307.case" x="224" y="0" flags="0x0"/>
    </TTGlyph>
    <TTGlyph name="Egrave" xMin="50" yMin="0" xMax="305" yMax="892">
      <component glyphName=".ttfautohint" x="50" y="0" flags="0x0"/>
      <component glyphName="E" x="0" y="0" flags="0x0"/>
      <component glyphName="grave" x="109" y="149" flags="0x4"/>
    </TTGlyph>
    <TTGlyph name="Emacron" xMin="50" yMin="0" xMax="305" yMax="888">
      <component glyphName=".ttfautohint" x="50" y="0" flags="0x0"/>
      <component glyphName="E" x="0" y="0" flags="0x0"/>
      <component glyphName="uni0304.case" x="312" y="0" flags="0x0"/>
    </TTGlyph>
    <TTGlyph name="Eng" xMin="50" yMin="-194" xMax="371" yMax="688">
      <contour>
        <pt x="371" y="688" on="1"/>
        <pt x="371" y="-57" on="1"/>
        <pt x="370" y="-120" on="0"/>
        <pt x="343" y="-177" on="0"/>
        <pt x="291" y="-194" on="0"/>
        <pt x="237" y="-194" on="1"/>
        <pt x="237" y="-132" on="1"/>
        <pt x="262" y="-132" on="0"/>
        <pt x="284" y="-122" on="0"/>
        <pt x="290" y="-101" on="0"/>
        <pt x="290" y="-78" on="1"/>
        <pt x="290" y="22" on="1"/>
        <pt x="135" y="471" on="1"/>
        <pt x="131" y="471" on="1"/>
        <pt x="131" y="0" on="1"/>
        <pt x="50" y="0" on="1"/>
        <pt x="50" y="688" on="1"/>
        <pt x="132" y="688" on="1"/>
        <pt x="285" y="239" on="1"/>
        <pt x="290" y="239" on="1"/>
        <pt x="290" y="688" on="1"/>
      </contour>
    </TTGlyph>
    <TTGlyph name="Eogonek" xMin="50" yMin="-196" xMax="305" yMax="688">
      <contour>
        <pt x="222" y="-196" on="0"/>
        <pt x="180" y="-152" on="0"/>
        <pt x="180" y="-120" on="1"/>
        <pt x="180" y="-88" on="0"/>
        <pt x="216" y="-26" on="0"/>
        <pt x="245" y="0" on="1"/>
        <pt x="50" y="0" on="1"/>
        <pt x="50" y="688" on="1"/>
        <pt x="305" y="688" on="1"/>
        <pt x="305" y="610" on="1"/>
        <pt x="135" y="610" on="1"/>
        <pt x="135" y="387" on="1"/>
        <pt x="284" y="387" on="1"/>
        <pt x="284" y="309" on="1"/>
        <pt x="135" y="309" on="1"/>
        <pt x="135" y="78" on="1"/>
        <pt x="305" y="78" on="1"/>
        <pt x="305" y="0" on="1"/>
        <pt x="283" y="-17" on="0"/>
        <pt x="244" y="-77" on="0"/>
        <pt x="244" y="-105" on="1"/>
        <pt x="244" y="-145" on="0"/>
        <pt x="285" y="-145" on="1"/>
        <pt x="299" y="-144" on="1"/>
        <pt x="299" y="-193" on="1"/>
        <pt x="284" y="-196" on="0"/>
        <pt x="265" y="-196" on="1"/>
      </contour>
    </TTGlyph>
    <TTGlyph name="Eth" xMin="5" yMin="0" xMax="359" yMax="688">
      <contour>
        <pt x="50" y="309" on="1"/>
        <pt x="5" y="309" on="1"/>
        <pt x="5" y="388" on="1"/>
        <pt x="50" y="388" on="1"/>
        <pt x="50" y="688" on="1"/>
        <pt x="193" y="688" on="1"/>
        <pt x="272" y="688" on="0"/>
        <pt x="340" y="633" on="0"/>
        <pt x="359" y="499" on="0"/>
        <pt x="359" y="344" on="1"/>
        <pt x="359" y="190" on="0"/>
        <pt x="340" y="55" on="0"/>
        <pt x="272" y="0" on="0"/>
        <pt x="193" y="0" on="1"/>
        <pt x="50" y="0" on="1"/>
      </contour>
      <contour>
        <pt x="233" y="78" on="0"/>
        <pt x="264" y="106" on="0"/>
        <pt x="275" y="212" on="0"/>
        <pt x="275" y="344" on="1"/>
        <pt x="275" y="476" on="0"/>
        <pt x="264" y="582" on="0"/>
        <pt x="233" y="610" on="0"/>
        <pt x="194" y="610" on="1"/>
        <pt x="134" y="610" on="1"/>
        <pt x="134" y="388" on="1"/>
        <pt x="213" y="388" on="1"/>
        <pt x="213" y="309" on="1"/>
        <pt x="134" y="309" on="1"/>
        <pt x="134" y="78" on="1"/>
        <pt x="194" y="78" on="1"/>
      </contour>
    </TTGlyph>
    <TTGlyph name="Euro" xMin="29" yMin="-8" xMax="321" yMax="696">
      <contour>
        <pt x="172" y="-8" on="0"/>
        <pt x="106" y="33" on="0"/>
        <pt x="77" y="139" on="0"/>
        <pt x="74" y="244" on="1"/>
        <pt x="29" y="244" on="1"/>
        <pt x="29" y="295" on="1"/>
        <pt x="73" y="295" on="1"/>
        <pt x="73" y="396" on="1"/>
        <pt x="29" y="396" on="1"/>
        <pt x="29" y="447" on="1"/>
        <pt x="74" y="447" on="1"/>
        <pt x="78" y="550" on="0"/>
        <pt x="107" y="654" on="0"/>
        <pt x="173" y="696" on="0"/>
        <pt x="236" y="696" on="1"/>
        <pt x="259" y="696" on="0"/>
        <pt x="306" y="688" on="0"/>
        <pt x="319" y="683" on="1"/>
        <pt x="319" y="611" on="1"/>
        <pt x="286" y="618" on="0"/>
        <pt x="251" y="618" on="1"/>
        <pt x="211" y="618" on="0"/>
        <pt x="175" y="595" on="0"/>
        <pt x="160" y="525" on="0"/>
        <pt x="158" y="447" on="1"/>
        <pt x="289" y="447" on="1"/>
        <pt x="289" y="396" on="1"/>
        <pt x="157" y="396" on="1"/>
        <pt x="157" y="295" on="1"/>
        <pt x="289" y="295" on="1"/>
        <pt x="289" y="244" on="1"/>
        <pt x="157" y="244" on="1"/>
        <pt x="159" y="165" on="0"/>
        <pt x="174" y="93" on="0"/>
        <pt x="211" y="70" on="0"/>
        <pt x="251" y="70" on="1"/>
        <pt x="290" y="70" on="0"/>
        <pt x="321" y="77" on="1"/>
        <pt x="321" y="6" on="1"/>
        <pt x="305" y="0" on="0"/>
        <pt x="257" y="-8" on="0"/>
        <pt x="236" y="-8" on="1"/>
      </contour>
    </TTGlyph>
    <TTGlyph name="F" xMin="50" yMin="0" xMax="293" yMax="688">
      <contour>
        <pt x="50" y="688" on="1"/>
        <pt x="293" y="688" on="1"/>
        <pt x="293" y="610" on="1"/>
        <pt x="135" y="610" on="1"/>
        <pt x="135" y="373" on="1"/>
        <pt x="276" y="373" on="1"/>
        <pt x="276" y="295" on="1"/>
        <pt x="135" y="295" on="1"/>
        <pt x="135" y="0" on="1"/>
        <pt x="50" y="0" on="1"/>
      </contour>
    </TTGlyph>
    <TTGlyph name="G" xMin="37" yMin="-8" xMax="349" yMax="696">
      <contour>
        <pt x="203" y="299" on="1"/>
        <pt x="203" y="375" on="1"/>
        <pt x="349" y="375" on="1"/>
        <pt x="349" y="11" on="1"/>
        <pt x="319" y="3" on="0"/>
        <pt x="243" y="-8" on="0"/>
        <pt x="211" y="-8" on="1"/>
        <pt x="137" y="-8" on="0"/>
        <pt x="65" y="46" on="0"/>
        <pt x="37" y="192" on="0"/>
        <pt x="37" y="344" on="1"/>
        <pt x="37" y="495" on="0"/>
        <pt x="66" y="642" on="0"/>
        <pt x="141" y="696" on="0"/>
        <pt x="219" y="696" on="1"/>
        <pt x="250" y="696" on="0"/>
        <pt x="323" y="686" on="0"/>
        <pt x="348" y="677" on="1"/>
        <pt x="348" y="606" on="1"/>
        <pt x="321" y="611" on="0"/>
        <pt x="261" y="618" on="0"/>
        <pt x="245" y="618" on="1"/>
        <pt x="186" y="618" on="0"/>
        <pt x="139" y="590" on="0"/>
        <pt x="121" y="480" on="0"/>
        <pt x="121" y="344" on="1"/>
        <pt x="121" y="216" on="0"/>
        <pt x="133" y="106" on="0"/>
        <pt x="170" y="67" on="0"/>
        <pt x="213" y="67" on="1"/>
        <pt x="230" y="67" on="0"/>
        <pt x="263" y="72" on="0"/>
        <pt x="272" y="75" on="1"/>
        <pt x="272" y="299" on="1"/>
      </contour>
    </TTGlyph>
    <TTGlyph name="G.ss01" xMin="37" yMin="-8" xMax="360" yMax="696">
      <contour>
        <pt x="132" y="-8" on="0"/>
        <pt x="61" y="46" on="0"/>
        <pt x="37" y="189" on="0"/>
        <pt x="37" y="344" on="1"/>
        <pt x="37" y="498" on="0"/>
        <pt x="66" y="644" on="0"/>
        <pt x="142" y="696" on="0"/>
        <pt x="222" y="696" on="1"/>
        <pt x="251" y="696" on="0"/>
        <pt x="322" y="685" on="0"/>
        <pt x="348" y="677" on="1"/>
        <pt x="348" y="606" on="1"/>
        <pt x="285" y="618" on="0"/>
        <pt x="242" y="618" on="1"/>
        <pt x="184" y="618" on="0"/>
        <pt x="138" y="588" on="0"/>
        <pt x="122" y="479" on="0"/>
        <pt x="122" y="344" on="1"/>
        <pt x="122" y="212" on="0"/>
        <pt x="133" y="104" on="0"/>
        <pt x="166" y="70" on="0"/>
        <pt x="206" y="70" on="1"/>
        <pt x="243" y="70" on="0"/>
        <pt x="271" y="93" on="0"/>
        <pt x="279" y="169" on="0"/>
        <pt x="279" y="272" on="1"/>
        <pt x="279" y="304" on="1"/>
        <pt x="207" y="304" on="1"/>
        <pt x="207" y="380" on="1"/>
        <pt x="360" y="380" on="1"/>
        <pt x="360" y="280" on="1"/>
        <pt x="360" y="153" on="0"/>
        <pt x="344" y="43" on="0"/>
        <pt x="281" y="-8" on="0"/>
        <pt x="208" y="-8" on="1"/>
      </contour>
    </TTGlyph>
    <TTGlyph name="G_tilde.loclGUA" xMin="37" yMin="-8" xMax="349" yMax="888">
      <component glyphName=".ttfautohint" x="37" y="0" flags="0x0"/>
      <component glyphName="G" x="0" y="0" flags="0x0"/>
      <component glyphName="tildecomb.case" x="315" y="0" flags="0x0"/>
    </TTGlyph>
    <TTGlyph name="Gbreve" xMin="37" yMin="-8" xMax="349" yMax="888">
      <component glyphName=".ttfautohint" x="37" y="0" flags="0x0"/>
      <component glyphName="G" x="0" y="0" flags="0x0"/>
      <component glyphName="uni0306.case" x="297" y="0" flags="0x0"/>
    </TTGlyph>
    <TTGlyph name="Gbreve.ss01" xMin="37" yMin="-8" xMax="360" yMax="888">
      <component glyphName=".ttfautohint" x="37" y="0" flags="0x0"/>
      <component glyphName="G.ss01" x="0" y="0" flags="0x0"/>
      <component glyphName="uni0306.case" x="302" y="0" flags="0x0"/>
    </TTGlyph>
    <TTGlyph name="Gcaron" xMin="37" yMin="-8" xMax="349" yMax="888">
      <component glyphName=".ttfautohint" x="37" y="0" flags="0x0"/>
      <component glyphName="G" x="0" y="0" flags="0x0"/>
      <component glyphName="uni030C.case" x="300" y="0" flags="0x0"/>
    </TTGlyph>
    <TTGlyph name="Gcaron.ss01" xMin="37" yMin="-8" xMax="360" yMax="888">
      <component glyphName=".ttfautohint" x="37" y="0" flags="0x0"/>
      <component glyphName="G.ss01" x="0" y="0" flags="0x0"/>
      <component glyphName="uni030C.case" x="305" y="0" flags="0x0"/>
    </TTGlyph>
    <TTGlyph name="Gcircumflex" xMin="37" yMin="-8" xMax="349" yMax="888">
      <component glyphName=".ttfautohint" x="37" y="0" flags="0x0"/>
      <component glyphName="G" x="0" y="0" flags="0x0"/>
      <component glyphName="uni0302.case" x="300" y="0" flags="0x0"/>
    </TTGlyph>
    <TTGlyph name="Gcircumflex.ss01" xMin="37" yMin="-8" xMax="360" yMax="888">
      <component glyphName=".ttfautohint" x="37" y="0" flags="0x0"/>
      <component glyphName="G.ss01" x="0" y="0" flags="0x0"/>
      <component glyphName="uni0302.case" x="305" y="0" flags="0x0"/>
    </TTGlyph>
    <TTGlyph name="Gcommaaccent" xMin="37" yMin="-250" xMax="349" yMax="696">
      <component glyphName=".ttfautohint" x="37" y="0" flags="0x0"/>
      <component glyphName="G" x="0" y="0" flags="0x0"/>
      <component glyphName="uni0326" x="282" y="0" flags="0x0"/>
    </TTGlyph>
    <TTGlyph name="Gcommaaccent.ss01" xMin="37" yMin="-250" xMax="360" yMax="696">
      <component glyphName=".ttfautohint" x="37" y="0" flags="0x0"/>
      <component glyphName="G.ss01" x="0" y="0" flags="0x0"/>
      <component glyphName="uni0326" x="287" y="0" flags="0x0"/>
    </TTGlyph>
    <TTGlyph name="Gdotaccent" xMin="37" yMin="-8" xMax="349" yMax="875">
      <component glyphName=".ttfautohint" x="37" y="0" flags="0x0"/>
      <component glyphName="G" x="0" y="0" flags="0x0"/>
      <component glyphName="uni0307.case" x="239" y="0" flags="0x0"/>
    </TTGlyph>
    <TTGlyph name="Gdotaccent.ss01" xMin="37" yMin="-8" xMax="360" yMax="875">
      <component glyphName=".ttfautohint" x="37" y="0" flags="0x0"/>
      <component glyphName="G.ss01" x="0" y="0" flags="0x0"/>
      <component glyphName="uni0307.case" x="245" y="0" flags="0x0"/>
    </TTGlyph>
    <TTGlyph name="Gtilde.loclGUA.ss01" xMin="37" yMin="-8" xMax="360" yMax="888">
      <component glyphName=".ttfautohint" x="37" y="0" flags="0x0"/>
      <component glyphName="G.ss01" x="0" y="0" flags="0x0"/>
      <component glyphName="tildecomb.case" x="320" y="0" flags="0x0"/>
    </TTGlyph>
    <TTGlyph name="H" xMin="50" yMin="0" xMax="368" yMax="688">
      <contour>
        <pt x="284" y="307" on="1"/>
        <pt x="135" y="307" on="1"/>
        <pt x="135" y="0" on="1"/>
        <pt x="50" y="0" on="1"/>
        <pt x="50" y="688" on="1"/>
        <pt x="135" y="688" on="1"/>
        <pt x="135" y="388" on="1"/>
        <pt x="284" y="388" on="1"/>
        <pt x="284" y="688" on="1"/>
        <pt x="368" y="688" on="1"/>
        <pt x="368" y="0" on="1"/>
        <pt x="284" y="0" on="1"/>
      </contour>
    </TTGlyph>
    <TTGlyph name="Hbar" xMin="50" yMin="0" xMax="368" yMax="688">
      <contour>
        <pt x="368" y="688" on="1"/>
        <pt x="368" y="0" on="1"/>
        <pt x="284" y="0" on="1"/>
        <pt x="284" y="280" on="1"/>
        <pt x="135" y="280" on="1"/>
        <pt x="135" y="0" on="1"/>
        <pt x="50" y="0" on="1"/>
        <pt x="50" y="688" on="1"/>
        <pt x="135" y="688" on="1"/>
        <pt x="135" y="566" on="1"/>
        <pt x="284" y="566" on="1"/>
        <pt x="284" y="688" on="1"/>
      </contour>
      <contour>
        <pt x="284" y="361" on="1"/>
        <pt x="284" y="487" on="1"/>
        <pt x="135" y="487" on="1"/>
        <pt x="135" y="361" on="1"/>
      </contour>
    </TTGlyph>
    <TTGlyph name="Hcircumflex" xMin="50" yMin="0" xMax="368" yMax="888">
      <component glyphName=".ttfautohint" x="50" y="0" flags="0x0"/>
      <component glyphName="H" x="0" y="0" flags="0x0"/>
      <component glyphName="uni0302.case" x="316" y="0" flags="0x0"/>
    </TTGlyph>
    <TTGlyph name="I" xMin="53" yMin="0" xMax="138" yMax="688">
      <contour>
        <pt x="53" y="688" on="1"/>
        <pt x="138" y="688" on="1"/>
        <pt x="138" y="0" on="1"/>
        <pt x="53" y="0" on="1"/>
      </contour>
    </TTGlyph>
    <TTGlyph name="IJ" xMin="53" yMin="0" xMax="353" yMax="688">
      <component glyphName=".ttfautohint" x="53" y="0" flags="0x0"/>
      <component glyphName="I" x="0" y="0" flags="0x0"/>
      <component glyphName="J" x="190" y="0" flags="0x0"/>
    </TTGlyph>
    <TTGlyph name="Iacute" xMin="53" yMin="0" xMax="165" yMax="892">
      <component glyphName=".ttfautohint" x="53" y="0" flags="0x0"/>
      <component glyphName="I" x="0" y="0" flags="0x0"/>
      <component glyphName="acute" x="55" y="149" flags="0x4"/>
    </TTGlyph>
    <TTGlyph name="Iacute_J.loclNLD" xMin="53" yMin="0" xMax="394" yMax="888">
      <component glyphName=".ttfautohint" x="53" y="0" flags="0x0"/>
      <component glyphName="I" x="0" y="0" flags="0x0"/>
      <component glyphName="acutecomb.case" x="177" y="0" flags="0x0"/>
      <component glyphName="J" x="190" y="0" flags="0x0"/>
      <component glyphName="acutecomb.case" x="393" y="0" flags="0x0"/>
    </TTGlyph>
    <TTGlyph name="Ibreve" xMin="-11" yMin="0" xMax="200" yMax="888">
      <component glyphName=".ttfautohint" x="0" y="0" flags="0x0"/>
      <component glyphName="I" x="0" y="0" flags="0x0"/>
      <component glyphName="uni0306.case" x="199" y="0" flags="0x0"/>
    </TTGlyph>
    <TTGlyph name="Icircumflex" xMin="-13" yMin="0" xMax="203" yMax="881">
      <component glyphName=".ttfautohint" x="0" y="0" flags="0x0"/>
      <component glyphName="I" x="0" y="0" flags="0x0"/>
      <component glyphName="circumflex" x="-12" y="138" flags="0x4"/>
    </TTGlyph>
    <TTGlyph name="Idieresis" xMin="-24" yMin="0" xMax="215" yMax="854">
      <component glyphName=".ttfautohint" x="0" y="0" flags="0x0"/>
      <component glyphName="I" x="0" y="0" flags="0x0"/>
      <component glyphName="dieresis" x="-39" y="124" flags="0x4"/>
    </TTGlyph>
    <TTGlyph name="Idotaccent" xMin="53" yMin="0" xMax="138" yMax="875">
      <component glyphName=".ttfautohint" x="53" y="0" flags="0x0"/>
      <component glyphName="I" x="0" y="0" flags="0x0"/>
      <component glyphName="uni0307.case" x="141" y="0" flags="0x0"/>
    </TTGlyph>
    <TTGlyph name="Igrave" xMin="26" yMin="0" xMax="138" yMax="892">
      <component glyphName=".ttfautohint" x="26" y="0" flags="0x0"/>
      <component glyphName="I" x="0" y="0" flags="0x0"/>
      <component glyphName="grave" x="27" y="149" flags="0x4"/>
    </TTGlyph>
    <TTGlyph name="Imacron" xMin="13" yMin="0" xMax="178" yMax="888">
      <component glyphName=".ttfautohint" x="13" y="0" flags="0x0"/>
      <component glyphName="I" x="0" y="0" flags="0x0"/>
      <component glyphName="uni0304.case" x="230" y="0" flags="0x0"/>
    </TTGlyph>
    <TTGlyph name="Iogonek" xMin="20" yMin="-196" xMax="139" yMax="688">
      <contour>
        <pt x="60" y="-196" on="0"/>
        <pt x="20" y="-152" on="0"/>
        <pt x="20" y="-116" on="1"/>
        <pt x="20" y="-88" on="0"/>
        <pt x="52" y="-24" on="0"/>
        <pt x="77" y="0" on="1"/>
        <pt x="53" y="0" on="1"/>
        <pt x="53" y="688" on="1"/>
        <pt x="138" y="688" on="1"/>
        <pt x="138" y="0" on="1"/>
        <pt x="119" y="-18" on="0"/>
        <pt x="84" y="-78" on="0"/>
        <pt x="84" y="-103" on="1"/>
        <pt x="84" y="-145" on="0"/>
        <pt x="125" y="-145" on="1"/>
        <pt x="139" y="-144" on="1"/>
        <pt x="139" y="-193" on="1"/>
        <pt x="124" y="-196" on="0"/>
        <pt x="104" y="-196" on="1"/>
      </contour>
    </TTGlyph>
    <TTGlyph name="Itilde" xMin="-29" yMin="0" xMax="218" yMax="888">
      <component glyphName=".ttfautohint" x="0" y="0" flags="0x0"/>
      <component glyphName="I" x="0" y="0" flags="0x0"/>
      <component glyphName="tildecomb.case" x="217" y="0" flags="0x0"/>
    </TTGlyph>
    <TTGlyph name="J" xMin="6" yMin="0" xMax="163" yMax="688">
      <contour>
        <pt x="44" y="75" on="0"/>
        <pt x="71" y="92" on="0"/>
        <pt x="79" y="150" on="0"/>
        <pt x="79" y="231" on="1"/>
        <pt x="79" y="688" on="1"/>
        <pt x="163" y="688" on="1"/>
        <pt x="163" y="267" on="1"/>
        <pt x="163" y="131" on="0"/>
        <pt x="146" y="30" on="0"/>
        <pt x="87" y="1" on="0"/>
        <pt x="6" y="0" on="1"/>
        <pt x="6" y="74" on="1"/>
      </contour>
    </TTGlyph>
    <TTGlyph name="Jcircumflex" xMin="6" yMin="0" xMax="229" yMax="888">
      <component glyphName=".ttfautohint" x="6" y="0" flags="0x0"/>
      <component glyphName="J" x="0" y="0" flags="0x0"/>
      <component glyphName="uni0302.case" x="228" y="0" flags="0x0"/>
    </TTGlyph>
    <TTGlyph name="K" xMin="50" yMin="0" xMax="376" yMax="688">
      <contour>
        <pt x="187" y="308" on="1"/>
        <pt x="135" y="308" on="1"/>
        <pt x="135" y="0" on="1"/>
        <pt x="50" y="0" on="1"/>
        <pt x="50" y="688" on="1"/>
        <pt x="135" y="688" on="1"/>
        <pt x="135" y="390" on="1"/>
        <pt x="187" y="390" on="1"/>
        <pt x="288" y="688" on="1"/>
        <pt x="374" y="688" on="1"/>
        <pt x="254" y="352" on="1"/>
        <pt x="376" y="0" on="1"/>
        <pt x="287" y="0" on="1"/>
      </contour>
    </TTGlyph>
    <TTGlyph name="Kcommaaccent" xMin="50" yMin="-250" xMax="376" yMax="688">
      <component glyphName=".ttfautohint" x="50" y="0" flags="0x0"/>
      <component glyphName="K" x="0" y="0" flags="0x0"/>
      <component glyphName="uni0326" x="281" y="0" flags="0x0"/>
    </TTGlyph>
    <TTGlyph name="L" xMin="50" yMin="0" xMax="288" yMax="688">
      <contour>
        <pt x="50" y="688" on="1"/>
        <pt x="135" y="688" on="1"/>
        <pt x="135" y="79" on="1"/>
        <pt x="288" y="79" on="1"/>
        <pt x="288" y="0" on="1"/>
        <pt x="50" y="0" on="1"/>
      </contour>
    </TTGlyph>
    <TTGlyph name="Lacute" xMin="50" yMin="0" xMax="288" yMax="888">
      <component glyphName=".ttfautohint" x="50" y="0" flags="0x0"/>
      <component glyphName="L" x="0" y="0" flags="0x0"/>
      <component glyphName="acutecomb.case" x="175" y="0" flags="0x0"/>
    </TTGlyph>
    <TTGlyph name="Lcaron" xMin="50" yMin="0" xMax="288" yMax="688">
      <component glyphName=".ttfautohint" x="50" y="0" flags="0x0"/>
      <component glyphName="L" x="0" y="0" flags="0x0"/>
      <component glyphName="caron.loclCSY" x="166" y="0" flags="0x0"/>
    </TTGlyph>
    <TTGlyph name="Lcommaaccent" xMin="50" yMin="-250" xMax="288" yMax="688">
      <component glyphName=".ttfautohint" x="50" y="0" flags="0x0"/>
      <component glyphName="L" x="0" y="0" flags="0x0"/>
      <component glyphName="uni0326" x="242" y="0" flags="0x0"/>
    </TTGlyph>
    <TTGlyph name="Ldot" xMin="50" yMin="0" xMax="307" yMax="688">
      <component glyphName=".ttfautohint" x="50" y="0" flags="0x0"/>
      <component glyphName="L" x="0" y="0" flags="0x0"/>
      <component glyphName="periodcentered" x="169" y="72" flags="0x4"/>
    </TTGlyph>
    <TTGlyph name="Lslash" xMin="11" yMin="0" xMax="288" yMax="688">
      <contour>
        <pt x="288" y="79" on="1"/>
        <pt x="288" y="0" on="1"/>
        <pt x="50" y="0" on="1"/>
        <pt x="50" y="272" on="1"/>
        <pt x="11" y="257" on="1"/>
        <pt x="11" y="331" on="1"/>
        <pt x="50" y="345" on="1"/>
        <pt x="50" y="688" on="1"/>
        <pt x="135" y="688" on="1"/>
        <pt x="135" y="377" on="1"/>
        <pt x="238" y="416" on="1"/>
        <pt x="238" y="342" on="1"/>
        <pt x="135" y="304" on="1"/>
        <pt x="135" y="79" on="1"/>
      </contour>
    </TTGlyph>
    <TTGlyph name="M" xMin="50" yMin="0" xMax="515" yMax="688">
      <contour>
        <pt x="433" y="561" on="1"/>
        <pt x="427" y="561" on="1"/>
        <pt x="325" y="0" on="1"/>
        <pt x="237" y="0" on="1"/>
        <pt x="137" y="561" on="1"/>
        <pt x="130" y="561" on="1"/>
        <pt x="130" y="0" on="1"/>
        <pt x="50" y="0" on="1"/>
        <pt x="50" y="688" on="1"/>
        <pt x="180" y="688" on="1"/>
        <pt x="281" y="134" on="1"/>
        <pt x="287" y="134" on="1"/>
        <pt x="388" y="688" on="1"/>
        <pt x="515" y="688" on="1"/>
        <pt x="515" y="0" on="1"/>
        <pt x="433" y="0" on="1"/>
      </contour>
    </TTGlyph>
    <TTGlyph name="N" xMin="50" yMin="0" xMax="371" yMax="688">
      <contour>
        <pt x="135" y="471" on="1"/>
        <pt x="131" y="471" on="1"/>
        <pt x="131" y="0" on="1"/>
        <pt x="50" y="0" on="1"/>
        <pt x="50" y="688" on="1"/>
        <pt x="132" y="688" on="1"/>
        <pt x="285" y="234" on="1"/>
        <pt x="290" y="234" on="1"/>
        <pt x="290" y="688" on="1"/>
        <pt x="371" y="688" on="1"/>
        <pt x="371" y="0" on="1"/>
        <pt x="292" y="0" on="1"/>
      </contour>
    </TTGlyph>
    <TTGlyph name="Nacute" xMin="50" yMin="0" xMax="371" yMax="888">
      <component glyphName=".ttfautohint" x="50" y="0" flags="0x0"/>
      <component glyphName="N" x="0" y="0" flags="0x0"/>
      <component glyphName="acutecomb.case" x="292" y="0" flags="0x0"/>
    </TTGlyph>
    <TTGlyph name="Nacute.loclPLK" xMin="50" yMin="0" xMax="371" yMax="888">
      <component glyphName=".ttfautohint" x="50" y="0" flags="0x0"/>
      <component glyphName="N" x="0" y="0" flags="0x0"/>
      <component glyphName="acute.case.loclPLK" x="183" y="0" flags="0x0"/>
    </TTGlyph>
    <TTGlyph name="Ncaron" xMin="50" yMin="0" xMax="371" yMax="888">
      <component glyphName=".ttfautohint" x="50" y="0" flags="0x0"/>
      <component glyphName="N" x="0" y="0" flags="0x0"/>
      <component glyphName="uni030C.case" x="317" y="0" flags="0x0"/>
    </TTGlyph>
    <TTGlyph name="Ncommaaccent" xMin="50" yMin="-250" xMax="371" yMax="688">
      <component glyphName=".ttfautohint" x="50" y="0" flags="0x0"/>
      <component glyphName="N" x="0" y="0" flags="0x0"/>
      <component glyphName="uni0326" x="299" y="0" flags="0x0"/>
    </TTGlyph>
    <TTGlyph name="Ntilde" xMin="50" yMin="0" xMax="371" yMax="873">
      <component glyphName=".ttfautohint" x="50" y="0" flags="0x0"/>
      <component glyphName="N" x="0" y="0" flags="0x0"/>
      <component glyphName="tilde" x="88" y="130" flags="0x4"/>
    </TTGlyph>
    <TTGlyph name="O" xMin="37" yMin="-8" xMax="371" yMax="696">
      <contour>
        <pt x="125" y="-8" on="0"/>
        <pt x="56" y="48" on="0"/>
        <pt x="37" y="186" on="0"/>
        <pt x="37" y="344" on="1"/>
        <pt x="37" y="503" on="0"/>
        <pt x="56" y="640" on="0"/>
        <pt x="124" y="696" on="0"/>
        <pt x="204" y="696" on="1"/>
        <pt x="284" y="696" on="0"/>
        <pt x="352" y="640" on="0"/>
        <pt x="371" y="503" on="0"/>
        <pt x="371" y="344" on="1"/>
        <pt x="371" y="186" on="0"/>
        <pt x="352" y="48" on="0"/>
        <pt x="283" y="-8" on="0"/>
        <pt x="204" y="-8" on="1"/>
      </contour>
      <contour>
        <pt x="244" y="70" on="0"/>
        <pt x="275" y="98" on="0"/>
        <pt x="286" y="207" on="0"/>
        <pt x="286" y="344" on="1"/>
        <pt x="286" y="481" on="0"/>
        <pt x="275" y="590" on="0"/>
        <pt x="244" y="618" on="0"/>
        <pt x="204" y="618" on="1"/>
        <pt x="164" y="618" on="0"/>
        <pt x="133" y="590" on="0"/>
        <pt x="122" y="481" on="0"/>
        <pt x="122" y="344" on="1"/>
        <pt x="122" y="207" on="0"/>
        <pt x="133" y="98" on="0"/>
        <pt x="164" y="70" on="0"/>
        <pt x="204" y="70" on="1"/>
      </contour>
    </TTGlyph>
    <TTGlyph name="OE" xMin="37" yMin="0" xMax="548" yMax="688">
      <contour>
        <pt x="125" y="0" on="0"/>
        <pt x="56" y="55" on="0"/>
        <pt x="37" y="189" on="0"/>
        <pt x="37" y="344" on="1"/>
        <pt x="37" y="499" on="0"/>
        <pt x="56" y="633" on="0"/>
        <pt x="125" y="688" on="0"/>
        <pt x="204" y="688" on="1"/>
        <pt x="548" y="688" on="1"/>
        <pt x="548" y="610" on="1"/>
        <pt x="385" y="610" on="1"/>
        <pt x="360" y="610" on="0"/>
        <pt x="334" y="614" on="1"/>
        <pt x="355" y="589" on="0"/>
        <pt x="369" y="486" on="0"/>
        <pt x="370" y="387" on="1"/>
        <pt x="527" y="387" on="1"/>
        <pt x="527" y="309" on="1"/>
        <pt x="371" y="309" on="1"/>
        <pt x="370" y="208" on="0"/>
        <pt x="355" y="100" on="0"/>
        <pt x="334" y="74" on="1"/>
        <pt x="356" y="78" on="0"/>
        <pt x="385" y="78" on="1"/>
        <pt x="548" y="78" on="1"/>
        <pt x="548" y="0" on="1"/>
        <pt x="204" y="0" on="1"/>
      </contour>
      <contour>
        <pt x="244" y="78" on="0"/>
        <pt x="275" y="106" on="0"/>
        <pt x="286" y="212" on="0"/>
        <pt x="286" y="344" on="1"/>
        <pt x="286" y="476" on="0"/>
        <pt x="275" y="582" on="0"/>
        <pt x="244" y="610" on="0"/>
        <pt x="204" y="610" on="1"/>
        <pt x="164" y="610" on="0"/>
        <pt x="133" y="582" on="0"/>
        <pt x="122" y="476" on="0"/>
        <pt x="122" y="344" on="1"/>
        <pt x="122" y="212" on="0"/>
        <pt x="133" y="106" on="0"/>
        <pt x="164" y="78" on="0"/>
        <pt x="204" y="78" on="1"/>
      </contour>
    </TTGlyph>
    <TTGlyph name="Oacute" xMin="37" yMin="-8" xMax="371" yMax="892">
      <component glyphName=".ttfautohint" x="37" y="0" flags="0x0"/>
      <component glyphName="O" x="0" y="0" flags="0x0"/>
      <component glyphName="acute" x="170" y="149" flags="0x4"/>
    </TTGlyph>
    <TTGlyph name="Oacute.loclPLK" xMin="37" yMin="-8" xMax="371" yMax="888">
      <component glyphName=".ttfautohint" x="37" y="0" flags="0x0"/>
      <component glyphName="O" x="0" y="0" flags="0x0"/>
      <component glyphName="acute.case.loclPLK" x="177" y="0" flags="0x0"/>
    </TTGlyph>
    <TTGlyph name="Obreve" xMin="37" yMin="-8" xMax="371" yMax="888">
      <component glyphName=".ttfautohint" x="37" y="0" flags="0x0"/>
      <component glyphName="O" x="0" y="0" flags="0x0"/>
      <component glyphName="uni0306.case" x="308" y="0" flags="0x0"/>
    </TTGlyph>
    <TTGlyph name="Ocircumflex" xMin="37" yMin="-8" xMax="371" yMax="881">
      <component glyphName=".ttfautohint" x="37" y="0" flags="0x0"/>
      <component glyphName="O" x="0" y="0" flags="0x0"/>
      <component glyphName="circumflex" x="97" y="138" flags="0x4"/>
    </TTGlyph>
    <TTGlyph name="Odieresis" xMin="37" yMin="-8" xMax="371" yMax="854">
      <component glyphName=".ttfautohint" x="37" y="0" flags="0x0"/>
      <component glyphName="O" x="0" y="0" flags="0x0"/>
      <component glyphName="dieresis" x="69" y="124" flags="0x4"/>
    </TTGlyph>
    <TTGlyph name="Ograve" xMin="37" yMin="-8" xMax="371" yMax="892">
      <component glyphName=".ttfautohint" x="37" y="0" flags="0x0"/>
      <component glyphName="O" x="0" y="0" flags="0x0"/>
      <component glyphName="grave" x="127" y="149" flags="0x4"/>
    </TTGlyph>
    <TTGlyph name="Ohorn" xMin="37" yMin="-8" xMax="399" yMax="781">
      <contour>
        <pt x="399" y="781" on="1"/>
        <pt x="399" y="758" on="1"/>
        <pt x="399" y="699" on="0"/>
        <pt x="375" y="652" on="0"/>
        <pt x="336" y="647" on="1"/>
        <pt x="358" y="613" on="0"/>
        <pt x="371" y="481" on="0"/>
        <pt x="371" y="344" on="1"/>
        <pt x="371" y="186" on="0"/>
        <pt x="352" y="48" on="0"/>
        <pt x="283" y="-8" on="0"/>
        <pt x="204" y="-8" on="1"/>
        <pt x="125" y="-8" on="0"/>
        <pt x="56" y="48" on="0"/>
        <pt x="37" y="186" on="0"/>
        <pt x="37" y="344" on="1"/>
        <pt x="37" y="503" on="0"/>
        <pt x="56" y="640" on="0"/>
        <pt x="124" y="696" on="0"/>
        <pt x="204" y="696" on="1"/>
        <pt x="251" y="696" on="0"/>
        <pt x="278" y="688" on="1"/>
        <pt x="300" y="688" on="1"/>
        <pt x="328" y="688" on="0"/>
        <pt x="343" y="713" on="0"/>
        <pt x="343" y="747" on="1"/>
        <pt x="343" y="781" on="1"/>
      </contour>
      <contour>
        <pt x="244" y="70" on="0"/>
        <pt x="275" y="98" on="0"/>
        <pt x="286" y="207" on="0"/>
        <pt x="286" y="344" on="1"/>
        <pt x="286" y="481" on="0"/>
        <pt x="275" y="590" on="0"/>
        <pt x="244" y="618" on="0"/>
        <pt x="204" y="618" on="1"/>
        <pt x="164" y="618" on="0"/>
        <pt x="133" y="590" on="0"/>
        <pt x="122" y="481" on="0"/>
        <pt x="122" y="344" on="1"/>
        <pt x="122" y="207" on="0"/>
        <pt x="133" y="98" on="0"/>
        <pt x="164" y="70" on="0"/>
        <pt x="204" y="70" on="1"/>
      </contour>
    </TTGlyph>
    <TTGlyph name="Ohungarumlaut" xMin="37" yMin="-8" xMax="371" yMax="873">
      <component glyphName=".ttfautohint" x="37" y="0" flags="0x0"/>
      <component glyphName="O" x="0" y="0" flags="0x0"/>
      <component glyphName="uni030B.case" x="347" y="0" flags="0x0"/>
    </TTGlyph>
    <TTGlyph name="Omacron" xMin="37" yMin="-8" xMax="371" yMax="888">
      <component glyphName=".ttfautohint" x="37" y="0" flags="0x0"/>
      <component glyphName="O" x="0" y="0" flags="0x0"/>
      <component glyphName="uni0304.case" x="338" y="0" flags="0x0"/>
    </TTGlyph>
    <TTGlyph name="Oslash" xMin="37" yMin="-55" xMax="371" yMax="743">
      <contour>
        <pt x="338" y="644" on="1"/>
        <pt x="359" y="609" on="0"/>
        <pt x="371" y="478" on="0"/>
        <pt x="371" y="344" on="1"/>
        <pt x="371" y="186" on="0"/>
        <pt x="352" y="48" on="0"/>
        <pt x="283" y="-8" on="0"/>
        <pt x="204" y="-8" on="1"/>
        <pt x="155" y="-8" on="0"/>
        <pt x="129" y="1" on="1"/>
        <pt x="111" y="-55" on="1"/>
        <pt x="37" y="-55" on="1"/>
        <pt x="70" y="45" on="1"/>
        <pt x="49" y="79" on="0"/>
        <pt x="37" y="210" on="0"/>
        <pt x="37" y="344" on="1"/>
        <pt x="37" y="503" on="0"/>
        <pt x="56" y="640" on="0"/>
        <pt x="124" y="696" on="0"/>
        <pt x="204" y="696" on="1"/>
        <pt x="252" y="696" on="0"/>
        <pt x="279" y="688" on="1"/>
        <pt x="297" y="743" on="1"/>
        <pt x="371" y="743" on="1"/>
      </contour>
      <contour>
        <pt x="244" y="70" on="0"/>
        <pt x="275" y="98" on="0"/>
        <pt x="286" y="207" on="0"/>
        <pt x="286" y="344" on="1"/>
        <pt x="286" y="481" on="0"/>
        <pt x="275" y="590" on="0"/>
        <pt x="244" y="618" on="0"/>
        <pt x="204" y="618" on="1"/>
        <pt x="164" y="618" on="0"/>
        <pt x="133" y="590" on="0"/>
        <pt x="122" y="481" on="0"/>
        <pt x="122" y="344" on="1"/>
        <pt x="122" y="207" on="0"/>
        <pt x="133" y="98" on="0"/>
        <pt x="164" y="70" on="0"/>
        <pt x="204" y="70" on="1"/>
      </contour>
    </TTGlyph>
    <TTGlyph name="Oslashacute" xMin="37" yMin="-55" xMax="371" yMax="888">
      <component glyphName=".ttfautohint" x="37" y="0" flags="0x0"/>
      <component glyphName="Oslash" x="0" y="0" flags="0x0"/>
      <component glyphName="acutecomb.case" x="265" y="0" flags="0x0"/>
    </TTGlyph>
    <TTGlyph name="Otilde" xMin="37" yMin="-8" xMax="371" yMax="872">
      <component glyphName=".ttfautohint" x="37" y="0" flags="0x0"/>
      <component glyphName="O" x="0" y="0" flags="0x0"/>
      <component glyphName="tilde" x="82" y="129" flags="0x4"/>
    </TTGlyph>
    <TTGlyph name="P" xMin="50" yMin="0" xMax="358" yMax="688">
      <contour>
        <pt x="50" y="688" on="1"/>
        <pt x="213" y="688" on="1"/>
        <pt x="276" y="688" on="0"/>
        <pt x="339" y="635" on="0"/>
        <pt x="358" y="543" on="0"/>
        <pt x="358" y="467" on="1"/>
        <pt x="358" y="393" on="0"/>
        <pt x="340" y="301" on="0"/>
        <pt x="276" y="245" on="0"/>
        <pt x="213" y="245" on="1"/>
        <pt x="135" y="245" on="1"/>
        <pt x="135" y="0" on="1"/>
        <pt x="50" y="0" on="1"/>
      </contour>
      <contour>
        <pt x="203" y="322" on="1"/>
        <pt x="235" y="322" on="0"/>
        <pt x="264" y="350" on="0"/>
        <pt x="273" y="409" on="0"/>
        <pt x="273" y="467" on="1"/>
        <pt x="273" y="525" on="0"/>
        <pt x="264" y="583" on="0"/>
        <pt x="235" y="610" on="0"/>
        <pt x="203" y="610" on="1"/>
        <pt x="135" y="610" on="1"/>
        <pt x="135" y="322" on="1"/>
      </contour>
    </TTGlyph>
    <TTGlyph name="Q" xMin="37" yMin="-115" xMax="396" yMax="696">
      <contour>
        <pt x="253" y="-3" on="1"/>
        <pt x="237" y="-8" on="0"/>
        <pt x="204" y="-8" on="1"/>
        <pt x="125" y="-8" on="0"/>
        <pt x="56" y="48" on="0"/>
        <pt x="37" y="186" on="0"/>
        <pt x="37" y="344" on="1"/>
        <pt x="37" y="503" on="0"/>
        <pt x="56" y="640" on="0"/>
        <pt x="124" y="696" on="0"/>
        <pt x="204" y="696" on="1"/>
        <pt x="284" y="696" on="0"/>
        <pt x="352" y="640" on="0"/>
        <pt x="371" y="503" on="0"/>
        <pt x="371" y="344" on="1"/>
        <pt x="371" y="196" on="0"/>
        <pt x="354" y="59" on="0"/>
        <pt x="324" y="28" on="1"/>
        <pt x="396" y="-112" on="1"/>
        <pt x="396" y="-115" on="1"/>
        <pt x="309" y="-115" on="1"/>
      </contour>
      <contour>
        <pt x="244" y="70" on="0"/>
        <pt x="275" y="98" on="0"/>
        <pt x="286" y="207" on="0"/>
        <pt x="286" y="344" on="1"/>
        <pt x="286" y="481" on="0"/>
        <pt x="275" y="590" on="0"/>
        <pt x="244" y="618" on="0"/>
        <pt x="204" y="618" on="1"/>
        <pt x="164" y="618" on="0"/>
        <pt x="133" y="590" on="0"/>
        <pt x="122" y="481" on="0"/>
        <pt x="122" y="344" on="1"/>
        <pt x="122" y="207" on="0"/>
        <pt x="133" y="98" on="0"/>
        <pt x="164" y="70" on="0"/>
        <pt x="204" y="70" on="1"/>
      </contour>
    </TTGlyph>
    <TTGlyph name="R" xMin="50" yMin="0" xMax="374" yMax="688">
      <contour>
        <pt x="287" y="0" on="1"/>
        <pt x="222" y="265" on="1"/>
        <pt x="208" y="265" on="1"/>
        <pt x="135" y="265" on="1"/>
        <pt x="135" y="0" on="1"/>
        <pt x="50" y="0" on="1"/>
        <pt x="50" y="688" on="1"/>
        <pt x="216" y="688" on="1"/>
        <pt x="280" y="688" on="0"/>
        <pt x="343" y="638" on="0"/>
        <pt x="361" y="551" on="0"/>
        <pt x="361" y="477" on="1"/>
        <pt x="361" y="398" on="0"/>
        <pt x="338" y="306" on="0"/>
        <pt x="299" y="285" on="1"/>
        <pt x="374" y="0" on="1"/>
      </contour>
      <contour>
        <pt x="238" y="340" on="0"/>
        <pt x="268" y="366" on="0"/>
        <pt x="277" y="421" on="0"/>
        <pt x="277" y="476" on="1"/>
        <pt x="277" y="530" on="0"/>
        <pt x="268" y="584" on="0"/>
        <pt x="238" y="610" on="0"/>
        <pt x="206" y="610" on="1"/>
        <pt x="135" y="610" on="1"/>
        <pt x="135" y="340" on="1"/>
        <pt x="206" y="340" on="1"/>
      </contour>
    </TTGlyph>
    <TTGlyph name="R.ss01" xMin="50" yMin="0" xMax="364" yMax="688">
      <contour>
        <pt x="364" y="0" on="1"/>
        <pt x="281" y="0" on="1"/>
        <pt x="271" y="156" on="1"/>
        <pt x="269" y="200" on="0"/>
        <pt x="259" y="244" on="0"/>
        <pt x="229" y="270" on="0"/>
        <pt x="197" y="270" on="1"/>
        <pt x="135" y="270" on="1"/>
        <pt x="135" y="0" on="1"/>
        <pt x="50" y="0" on="1"/>
        <pt x="50" y="688" on="1"/>
        <pt x="218" y="688" on="1"/>
        <pt x="298" y="688" on="0"/>
        <pt x="361" y="598" on="0"/>
        <pt x="361" y="501" on="1"/>
        <pt x="361" y="413" on="0"/>
        <pt x="324" y="334" on="0"/>
        <pt x="283" y="320" on="1"/>
        <pt x="283" y="316" on="1"/>
        <pt x="308" y="307" on="0"/>
        <pt x="336" y="281" on="0"/>
        <pt x="353" y="225" on="0"/>
        <pt x="355" y="174" on="1"/>
      </contour>
      <contour>
        <pt x="236" y="345" on="0"/>
        <pt x="267" y="372" on="0"/>
        <pt x="277" y="427" on="0"/>
        <pt x="277" y="478" on="1"/>
        <pt x="277" y="531" on="0"/>
        <pt x="268" y="584" on="0"/>
        <pt x="238" y="610" on="0"/>
        <pt x="206" y="610" on="1"/>
        <pt x="135" y="610" on="1"/>
        <pt x="135" y="345" on="1"/>
        <pt x="206" y="345" on="1"/>
      </contour>
    </TTGlyph>
    <TTGlyph name="Racute" xMin="50" yMin="0" xMax="374" yMax="888">
      <component glyphName=".ttfautohint" x="50" y="0" flags="0x0"/>
      <component glyphName="R" x="0" y="0" flags="0x0"/>
      <component glyphName="acutecomb.case" x="281" y="0" flags="0x0"/>
    </TTGlyph>
    <TTGlyph name="Racute.ss01" xMin="50" yMin="0" xMax="364" yMax="888">
      <component glyphName=".ttfautohint" x="50" y="0" flags="0x0"/>
      <component glyphName="R.ss01" x="0" y="0" flags="0x0"/>
      <component glyphName="acutecomb.case" x="282" y="0" flags="0x0"/>
    </TTGlyph>
    <TTGlyph name="Rcaron" xMin="50" yMin="0" xMax="374" yMax="888">
      <component glyphName=".ttfautohint" x="50" y="0" flags="0x0"/>
      <component glyphName="R" x="0" y="0" flags="0x0"/>
      <component glyphName="uni030C.case" x="306" y="0" flags="0x0"/>
    </TTGlyph>
    <TTGlyph name="Rcaron.ss01" xMin="50" yMin="0" xMax="364" yMax="888">
      <component glyphName=".ttfautohint" x="50" y="0" flags="0x0"/>
      <component glyphName="R.ss01" x="0" y="0" flags="0x0"/>
      <component glyphName="uni030C.case" x="306" y="0" flags="0x0"/>
    </TTGlyph>
    <TTGlyph name="Rcommaaccent" xMin="50" yMin="-250" xMax="374" yMax="688">
      <component glyphName=".ttfautohint" x="50" y="0" flags="0x0"/>
      <component glyphName="R" x="0" y="0" flags="0x0"/>
      <component glyphName="uni0326" x="289" y="0" flags="0x0"/>
    </TTGlyph>
    <TTGlyph name="Rcommaaccent.ss01" xMin="50" yMin="-250" xMax="364" yMax="688">
      <component glyphName=".ttfautohint" x="50" y="0" flags="0x0"/>
      <component glyphName="R.ss01" x="0" y="0" flags="0x0"/>
      <component glyphName="uni0326" x="289" y="0" flags="0x0"/>
    </TTGlyph>
    <TTGlyph name="S" xMin="26" yMin="-8" xMax="324" yMax="696">
      <contour>
        <pt x="137" y="-8" on="0"/>
        <pt x="63" y="0" on="0"/>
        <pt x="37" y="7" on="1"/>
        <pt x="37" y="79" on="1"/>
        <pt x="104" y="70" on="0"/>
        <pt x="146" y="70" on="1"/>
        <pt x="176" y="70" on="0"/>
        <pt x="210" y="78" on="0"/>
        <pt x="221" y="91" on="1"/>
        <pt x="231" y="102" on="0"/>
        <pt x="239" y="149" on="0"/>
        <pt x="239" y="188" on="1"/>
        <pt x="239" y="244" on="0"/>
        <pt x="233" y="287" on="0"/>
        <pt x="209" y="305" on="0"/>
        <pt x="177" y="311" on="1"/>
        <pt x="90" y="330" on="1"/>
        <pt x="50" y="338" on="0"/>
        <pt x="26" y="418" on="0"/>
        <pt x="26" y="502" on="1"/>
        <pt x="26" y="609" on="0"/>
        <pt x="101" y="696" on="0"/>
        <pt x="185" y="696" on="1"/>
        <pt x="225" y="696" on="0"/>
        <pt x="291" y="686" on="0"/>
        <pt x="303" y="682" on="1"/>
        <pt x="303" y="610" on="1"/>
        <pt x="290" y="613" on="0"/>
        <pt x="236" y="618" on="0"/>
        <pt x="208" y="618" on="1"/>
        <pt x="173" y="618" on="0"/>
        <pt x="135" y="605" on="0"/>
        <pt x="126" y="590" on="1"/>
        <pt x="117" y="576" on="0"/>
        <pt x="111" y="535" on="0"/>
        <pt x="111" y="503" on="1"/>
        <pt x="111" y="460" on="0"/>
        <pt x="117" y="421" on="0"/>
        <pt x="135" y="404" on="0"/>
        <pt x="155" y="400" on="1"/>
        <pt x="231" y="383" on="1"/>
        <pt x="264" y="376" on="0"/>
        <pt x="304" y="348" on="0"/>
        <pt x="314" y="315" on="1"/>
        <pt x="324" y="288" on="0"/>
        <pt x="324" y="203" on="1"/>
        <pt x="324" y="122" on="0"/>
        <pt x="296" y="32" on="0"/>
        <pt x="230" y="-8" on="0"/>
        <pt x="170" y="-8" on="1"/>
      </contour>
    </TTGlyph>
    <TTGlyph name="Sacute" xMin="26" yMin="-8" xMax="324" yMax="888">
      <component glyphName=".ttfautohint" x="26" y="0" flags="0x0"/>
      <component glyphName="S" x="0" y="0" flags="0x0"/>
      <component glyphName="acutecomb.case" x="256" y="0" flags="0x0"/>
    </TTGlyph>
    <TTGlyph name="Sacute.loclPLK" xMin="26" yMin="-8" xMax="324" yMax="888">
      <component glyphName=".ttfautohint" x="26" y="0" flags="0x0"/>
      <component glyphName="S" x="0" y="0" flags="0x0"/>
      <component glyphName="acute.case.loclPLK" x="147" y="0" flags="0x0"/>
    </TTGlyph>
    <TTGlyph name="Scaron" xMin="26" yMin="-8" xMax="324" yMax="881">
      <component glyphName=".ttfautohint" x="26" y="0" flags="0x0"/>
      <component glyphName="S" x="0" y="0" flags="0x0"/>
      <component glyphName="caron" x="69" y="138" flags="0x4"/>
    </TTGlyph>
    <TTGlyph name="Scedilla" xMin="26" yMin="-189" xMax="324" yMax="696">
      <contour>
        <pt x="324" y="129" on="0"/>
        <pt x="301" y="42" on="0"/>
        <pt x="247" y="-2" on="0"/>
        <pt x="199" y="-7" on="1"/>
        <pt x="162" y="-189" on="1"/>
        <pt x="90" y="-189" on="1"/>
        <pt x="90" y="-184" on="1"/>
        <pt x="144" y="-7" on="1"/>
        <pt x="87" y="-5" on="0"/>
        <pt x="37" y="7" on="1"/>
        <pt x="37" y="79" on="1"/>
        <pt x="104" y="70" on="0"/>
        <pt x="146" y="70" on="1"/>
        <pt x="176" y="70" on="0"/>
        <pt x="210" y="78" on="0"/>
        <pt x="221" y="91" on="1"/>
        <pt x="231" y="102" on="0"/>
        <pt x="239" y="149" on="0"/>
        <pt x="239" y="188" on="1"/>
        <pt x="239" y="244" on="0"/>
        <pt x="233" y="287" on="0"/>
        <pt x="209" y="305" on="0"/>
        <pt x="177" y="311" on="1"/>
        <pt x="90" y="330" on="1"/>
        <pt x="50" y="338" on="0"/>
        <pt x="26" y="418" on="0"/>
        <pt x="26" y="502" on="1"/>
        <pt x="26" y="609" on="0"/>
        <pt x="101" y="696" on="0"/>
        <pt x="185" y="696" on="1"/>
        <pt x="225" y="696" on="0"/>
        <pt x="291" y="686" on="0"/>
        <pt x="303" y="682" on="1"/>
        <pt x="303" y="610" on="1"/>
        <pt x="290" y="613" on="0"/>
        <pt x="236" y="618" on="0"/>
        <pt x="208" y="618" on="1"/>
        <pt x="173" y="618" on="0"/>
        <pt x="135" y="605" on="0"/>
        <pt x="126" y="590" on="1"/>
        <pt x="117" y="576" on="0"/>
        <pt x="111" y="535" on="0"/>
        <pt x="111" y="503" on="1"/>
        <pt x="111" y="460" on="0"/>
        <pt x="117" y="421" on="0"/>
        <pt x="135" y="404" on="0"/>
        <pt x="155" y="400" on="1"/>
        <pt x="231" y="383" on="1"/>
        <pt x="264" y="376" on="0"/>
        <pt x="304" y="348" on="0"/>
        <pt x="314" y="315" on="1"/>
        <pt x="324" y="288" on="0"/>
        <pt x="324" y="203" on="1"/>
      </contour>
    </TTGlyph>
    <TTGlyph name="Scircumflex" xMin="26" yMin="-8" xMax="324" yMax="888">
      <component glyphName=".ttfautohint" x="26" y="0" flags="0x0"/>
      <component glyphName="S" x="0" y="0" flags="0x0"/>
      <component glyphName="uni0302.case" x="281" y="0" flags="0x0"/>
    </TTGlyph>
    <TTGlyph name="Scommaaccent" xMin="26" yMin="-250" xMax="324" yMax="696">
      <component glyphName=".ttfautohint" x="26" y="0" flags="0x0"/>
      <component glyphName="S" x="0" y="0" flags="0x0"/>
      <component glyphName="uni0326" x="263" y="0" flags="0x0"/>
    </TTGlyph>
    <TTGlyph name="T" xMin="10" yMin="0" xMax="319" yMax="688">
      <contour>
        <pt x="122" y="609" on="1"/>
        <pt x="10" y="609" on="1"/>
        <pt x="10" y="688" on="1"/>
        <pt x="319" y="688" on="1"/>
        <pt x="319" y="609" on="1"/>
        <pt x="207" y="609" on="1"/>
        <pt x="207" y="0" on="1"/>
        <pt x="122" y="0" on="1"/>
      </contour>
    </TTGlyph>
    <TTGlyph name="Tbar" xMin="10" yMin="0" xMax="319" yMax="688">
      <contour>
        <pt x="207" y="609" on="1"/>
        <pt x="207" y="387" on="1"/>
        <pt x="289" y="387" on="1"/>
        <pt x="289" y="318" on="1"/>
        <pt x="207" y="318" on="1"/>
        <pt x="207" y="0" on="1"/>
        <pt x="122" y="0" on="1"/>
        <pt x="122" y="318" on="1"/>
        <pt x="40" y="318" on="1"/>
        <pt x="40" y="387" on="1"/>
        <pt x="122" y="387" on="1"/>
        <pt x="122" y="609" on="1"/>
        <pt x="10" y="609" on="1"/>
        <pt x="10" y="688" on="1"/>
        <pt x="319" y="688" on="1"/>
        <pt x="319" y="609" on="1"/>
      </contour>
    </TTGlyph>
    <TTGlyph name="Tcaron" xMin="10" yMin="0" xMax="319" yMax="888">
      <component glyphName=".ttfautohint" x="10" y="0" flags="0x0"/>
      <component glyphName="T" x="0" y="0" flags="0x0"/>
      <component glyphName="uni030C.case" x="271" y="0" flags="0x0"/>
    </TTGlyph>
    <TTGlyph name="Thorn" xMin="50" yMin="0" xMax="358" yMax="688">
      <contour>
        <pt x="50" y="688" on="1"/>
        <pt x="135" y="688" on="1"/>
        <pt x="135" y="573" on="1"/>
        <pt x="213" y="573" on="1"/>
        <pt x="276" y="573" on="0"/>
        <pt x="339" y="520" on="0"/>
        <pt x="358" y="428" on="0"/>
        <pt x="358" y="351" on="1"/>
        <pt x="358" y="277" on="0"/>
        <pt x="340" y="185" on="0"/>
        <pt x="277" y="130" on="0"/>
        <pt x="213" y="130" on="1"/>
        <pt x="135" y="130" on="1"/>
        <pt x="135" y="0" on="1"/>
        <pt x="50" y="0" on="1"/>
      </contour>
      <contour>
        <pt x="203" y="207" on="1"/>
        <pt x="235" y="207" on="0"/>
        <pt x="264" y="235" on="0"/>
        <pt x="273" y="293" on="0"/>
        <pt x="273" y="351" on="1"/>
        <pt x="273" y="410" on="0"/>
        <pt x="264" y="468" on="0"/>
        <pt x="235" y="495" on="0"/>
        <pt x="203" y="495" on="1"/>
        <pt x="135" y="495" on="1"/>
        <pt x="135" y="207" on="1"/>
      </contour>
    </TTGlyph>
    <TTGlyph name="U" xMin="45" yMin="-8" xMax="364" yMax="688">
      <contour>
        <pt x="364" y="688" on="1"/>
        <pt x="364" y="299" on="1"/>
        <pt x="364" y="164" on="0"/>
        <pt x="347" y="45" on="0"/>
        <pt x="281" y="-8" on="0"/>
        <pt x="205" y="-8" on="1"/>
        <pt x="129" y="-8" on="0"/>
        <pt x="63" y="45" on="0"/>
        <pt x="45" y="164" on="0"/>
        <pt x="45" y="299" on="1"/>
        <pt x="45" y="688" on="1"/>
        <pt x="130" y="688" on="1"/>
        <pt x="130" y="259" on="1"/>
        <pt x="130" y="170" on="0"/>
        <pt x="138" y="97" on="0"/>
        <pt x="168" y="70" on="0"/>
        <pt x="205" y="70" on="1"/>
        <pt x="241" y="70" on="0"/>
        <pt x="271" y="97" on="0"/>
        <pt x="279" y="170" on="0"/>
        <pt x="279" y="259" on="1"/>
        <pt x="279" y="688" on="1"/>
      </contour>
    </TTGlyph>
    <TTGlyph name="Uacute" xMin="45" yMin="-8" xMax="364" yMax="892">
      <component glyphName=".ttfautohint" x="45" y="0" flags="0x0"/>
      <component glyphName="U" x="0" y="0" flags="0x0"/>
      <component glyphName="acute" x="174" y="149" flags="0x4"/>
    </TTGlyph>
    <TTGlyph name="Ubreve" xMin="45" yMin="-8" xMax="364" yMax="888">
      <component glyphName=".ttfautohint" x="45" y="0" flags="0x0"/>
      <component glyphName="U" x="0" y="0" flags="0x0"/>
      <component glyphName="uni0306.case" x="309" y="0" flags="0x0"/>
    </TTGlyph>
    <TTGlyph name="Ucircumflex" xMin="45" yMin="-8" xMax="364" yMax="881">
      <component glyphName=".ttfautohint" x="45" y="0" flags="0x0"/>
      <component glyphName="U" x="0" y="0" flags="0x0"/>
      <component glyphName="circumflex" x="97" y="138" flags="0x4"/>
    </TTGlyph>
    <TTGlyph name="Udieresis" xMin="45" yMin="-8" xMax="364" yMax="854">
      <component glyphName=".ttfautohint" x="45" y="0" flags="0x0"/>
      <component glyphName="U" x="0" y="0" flags="0x0"/>
      <component glyphName="dieresis" x="70" y="124" flags="0x4"/>
    </TTGlyph>
    <TTGlyph name="Ugrave" xMin="45" yMin="-8" xMax="364" yMax="892">
      <component glyphName=".ttfautohint" x="45" y="0" flags="0x0"/>
      <component glyphName="U" x="0" y="0" flags="0x0"/>
      <component glyphName="grave" x="131" y="149" flags="0x4"/>
    </TTGlyph>
    <TTGlyph name="Uhorn" xMin="45" yMin="-8" xMax="428" yMax="781">
      <contour>
        <pt x="428" y="781" on="1"/>
        <pt x="428" y="758" on="1"/>
        <pt x="428" y="699" on="0"/>
        <pt x="404" y="652" on="0"/>
        <pt x="364" y="647" on="1"/>
        <pt x="364" y="299" on="1"/>
        <pt x="364" y="164" on="0"/>
        <pt x="347" y="45" on="0"/>
        <pt x="281" y="-8" on="0"/>
        <pt x="205" y="-8" on="1"/>
        <pt x="129" y="-8" on="0"/>
        <pt x="63" y="45" on="0"/>
        <pt x="45" y="164" on="0"/>
        <pt x="45" y="299" on="1"/>
        <pt x="45" y="688" on="1"/>
        <pt x="130" y="688" on="1"/>
        <pt x="130" y="259" on="1"/>
        <pt x="130" y="170" on="0"/>
        <pt x="138" y="97" on="0"/>
        <pt x="168" y="70" on="0"/>
        <pt x="205" y="70" on="1"/>
        <pt x="241" y="70" on="0"/>
        <pt x="271" y="97" on="0"/>
        <pt x="279" y="170" on="0"/>
        <pt x="279" y="259" on="1"/>
        <pt x="279" y="688" on="1"/>
        <pt x="329" y="688" on="1"/>
        <pt x="357" y="688" on="0"/>
        <pt x="372" y="713" on="0"/>
        <pt x="372" y="747" on="1"/>
        <pt x="372" y="781" on="1"/>
      </contour>
    </TTGlyph>
    <TTGlyph name="Uhungarumlaut" xMin="45" yMin="-8" xMax="364" yMax="873">
      <component glyphName=".ttfautohint" x="45" y="0" flags="0x0"/>
      <component glyphName="U" x="0" y="0" flags="0x0"/>
      <component glyphName="uni030B.case" x="348" y="0" flags="0x0"/>
    </TTGlyph>
    <TTGlyph name="Umacron" xMin="45" yMin="-8" xMax="364" yMax="888">
      <component glyphName=".ttfautohint" x="45" y="0" flags="0x0"/>
      <component glyphName="U" x="0" y="0" flags="0x0"/>
      <component glyphName="uni0304.case" x="339" y="0" flags="0x0"/>
    </TTGlyph>
    <TTGlyph name="Uogonek" xMin="45" yMin="-196" xMax="364" yMax="688">
      <contour>
        <pt x="364" y="688" on="1"/>
        <pt x="364" y="299" on="1"/>
        <pt x="364" y="205" on="0"/>
        <pt x="358" y="103" on="0"/>
        <pt x="335" y="34" on="0"/>
        <pt x="311" y="16" on="1"/>
        <pt x="284" y="-3" on="0"/>
        <pt x="247" y="-68" on="0"/>
        <pt x="247" y="-103" on="1"/>
        <pt x="247" y="-145" on="0"/>
        <pt x="288" y="-145" on="1"/>
        <pt x="301" y="-144" on="1"/>
        <pt x="301" y="-193" on="1"/>
        <pt x="288" y="-196" on="0"/>
        <pt x="267" y="-196" on="1"/>
        <pt x="223" y="-196" on="0"/>
        <pt x="183" y="-152" on="0"/>
        <pt x="183" y="-116" on="1"/>
        <pt x="183" y="-90" on="0"/>
        <pt x="208" y="-33" on="0"/>
        <pt x="229" y="-8" on="1"/>
        <pt x="205" y="-8" on="1"/>
        <pt x="129" y="-8" on="0"/>
        <pt x="63" y="45" on="0"/>
        <pt x="45" y="164" on="0"/>
        <pt x="45" y="299" on="1"/>
        <pt x="45" y="688" on="1"/>
        <pt x="130" y="688" on="1"/>
        <pt x="130" y="259" on="1"/>
        <pt x="130" y="170" on="0"/>
        <pt x="138" y="97" on="0"/>
        <pt x="168" y="70" on="0"/>
        <pt x="205" y="70" on="1"/>
        <pt x="241" y="70" on="0"/>
        <pt x="271" y="97" on="0"/>
        <pt x="279" y="170" on="0"/>
        <pt x="279" y="259" on="1"/>
        <pt x="279" y="688" on="1"/>
      </contour>
    </TTGlyph>
    <TTGlyph name="Uring" xMin="45" yMin="-8" xMax="364" yMax="923">
      <component glyphName=".ttfautohint" x="45" y="0" flags="0x0"/>
      <component glyphName="U" x="0" y="0" flags="0x0"/>
      <component glyphName="uni030A.case" x="302" y="0" flags="0x0"/>
    </TTGlyph>
    <TTGlyph name="Utilde" xMin="45" yMin="-8" xMax="364" yMax="888">
      <component glyphName=".ttfautohint" x="45" y="0" flags="0x0"/>
      <component glyphName="U" x="0" y="0" flags="0x0"/>
      <component glyphName="tildecomb.case" x="327" y="0" flags="0x0"/>
    </TTGlyph>
    <TTGlyph name="V" xMin="6" yMin="0" xMax="364" yMax="688">
      <contour>
        <pt x="6" y="688" on="1"/>
        <pt x="92" y="688" on="1"/>
        <pt x="184" y="105" on="1"/>
        <pt x="191" y="105" on="1"/>
        <pt x="281" y="688" on="1"/>
        <pt x="364" y="688" on="1"/>
        <pt x="246" y="0" on="1"/>
        <pt x="124" y="0" on="1"/>
      </contour>
    </TTGlyph>
    <TTGlyph name="W" xMin="10" yMin="0" xMax="569" yMax="688">
      <contour>
        <pt x="292" y="547" on="1"/>
        <pt x="287" y="547" on="1"/>
        <pt x="212" y="0" on="1"/>
        <pt x="96" y="0" on="1"/>
        <pt x="10" y="688" on="1"/>
        <pt x="96" y="688" on="1"/>
        <pt x="156" y="108" on="1"/>
        <pt x="162" y="108" on="1"/>
        <pt x="239" y="688" on="1"/>
        <pt x="343" y="688" on="1"/>
        <pt x="421" y="108" on="1"/>
        <pt x="427" y="108" on="1"/>
        <pt x="486" y="688" on="1"/>
        <pt x="569" y="688" on="1"/>
        <pt x="483" y="0" on="1"/>
        <pt x="367" y="0" on="1"/>
      </contour>
    </TTGlyph>
    <TTGlyph name="Wacute" xMin="10" yMin="0" xMax="569" yMax="888">
      <component glyphName=".ttfautohint" x="10" y="0" flags="0x0"/>
      <component glyphName="W" x="0" y="0" flags="0x0"/>
      <component glyphName="acutecomb.case" x="372" y="0" flags="0x0"/>
    </TTGlyph>
    <TTGlyph name="Wcircumflex" xMin="10" yMin="0" xMax="569" yMax="888">
      <component glyphName=".ttfautohint" x="10" y="0" flags="0x0"/>
      <component glyphName="W" x="0" y="0" flags="0x0"/>
      <component glyphName="uni0302.case" x="397" y="0" flags="0x0"/>
    </TTGlyph>
    <TTGlyph name="Wdieresis" xMin="10" yMin="0" xMax="569" yMax="875">
      <component glyphName=".ttfautohint" x="10" y="0" flags="0x0"/>
      <component glyphName="W" x="0" y="0" flags="0x0"/>
      <component glyphName="uni0308.case" x="424" y="0" flags="0x0"/>
    </TTGlyph>
    <TTGlyph name="Wgrave" xMin="10" yMin="0" xMax="569" yMax="888">
      <component glyphName=".ttfautohint" x="10" y="0" flags="0x0"/>
      <component glyphName="W" x="0" y="0" flags="0x0"/>
      <component glyphName="gravecomb.case" x="321" y="0" flags="0x0"/>
    </TTGlyph>
    <TTGlyph name="X" xMin="11" yMin="0" xMax="380" yMax="688">
      <contour>
        <pt x="197" y="281" on="1"/>
        <pt x="191" y="281" on="1"/>
        <pt x="97" y="0" on="1"/>
        <pt x="11" y="0" on="1"/>
        <pt x="134" y="346" on="1"/>
        <pt x="13" y="688" on="1"/>
        <pt x="101" y="688" on="1"/>
        <pt x="194" y="414" on="1"/>
        <pt x="200" y="414" on="1"/>
        <pt x="292" y="688" on="1"/>
        <pt x="379" y="688" on="1"/>
        <pt x="257" y="349" on="1"/>
        <pt x="380" y="0" on="1"/>
        <pt x="292" y="0" on="1"/>
      </contour>
    </TTGlyph>
    <TTGlyph name="Y" xMin="-1" yMin="0" xMax="353" yMax="688">
      <contour>
        <pt x="133" y="262" on="1"/>
        <pt x="-1" y="688" on="1"/>
        <pt x="84" y="688" on="1"/>
        <pt x="174" y="360" on="1"/>
        <pt x="182" y="360" on="1"/>
        <pt x="270" y="688" on="1"/>
        <pt x="353" y="688" on="1"/>
        <pt x="218" y="262" on="1"/>
        <pt x="218" y="0" on="1"/>
        <pt x="133" y="0" on="1"/>
      </contour>
    </TTGlyph>
    <TTGlyph name="Y.loclGUA" xMin="17" yMin="0" xMax="336" yMax="688">
      <contour>
        <pt x="336" y="688" on="1"/>
        <pt x="336" y="505" on="1"/>
        <pt x="336" y="382" on="0"/>
        <pt x="323" y="267" on="0"/>
        <pt x="274" y="207" on="0"/>
        <pt x="218" y="201" on="1"/>
        <pt x="218" y="0" on="1"/>
        <pt x="133" y="0" on="1"/>
        <pt x="133" y="201" on="1"/>
        <pt x="78" y="208" on="0"/>
        <pt x="30" y="268" on="0"/>
        <pt x="17" y="383" on="0"/>
        <pt x="17" y="505" on="1"/>
        <pt x="17" y="688" on="1"/>
        <pt x="102" y="688" on="1"/>
        <pt x="102" y="465" on="1"/>
        <pt x="102" y="376" on="0"/>
        <pt x="110" y="303" on="0"/>
        <pt x="140" y="276" on="0"/>
        <pt x="176" y="276" on="1"/>
        <pt x="213" y="276" on="0"/>
        <pt x="243" y="303" on="0"/>
        <pt x="251" y="376" on="0"/>
        <pt x="251" y="465" on="1"/>
        <pt x="251" y="688" on="1"/>
      </contour>
    </TTGlyph>
    <TTGlyph name="Yacute" xMin="-1" yMin="0" xMax="353" yMax="892">
      <component glyphName=".ttfautohint" x="0" y="0" flags="0x0"/>
      <component glyphName="Y" x="0" y="0" flags="0x0"/>
      <component glyphName="acute" x="148" y="149" flags="0x4"/>
    </TTGlyph>
    <TTGlyph name="Yacute.loclGUA" xMin="17" yMin="0" xMax="336" yMax="888">
      <component glyphName=".ttfautohint" x="17" y="0" flags="0x0"/>
      <component glyphName="Y.loclGUA" x="0" y="0" flags="0x0"/>
      <component glyphName="acutecomb.case" x="258" y="0" flags="0x0"/>
    </TTGlyph>
    <TTGlyph name="Ycircumflex" xMin="-1" yMin="0" xMax="353" yMax="888">
      <component glyphName=".ttfautohint" x="0" y="0" flags="0x0"/>
      <component glyphName="Y" x="0" y="0" flags="0x0"/>
      <component glyphName="uni0302.case" x="283" y="0" flags="0x0"/>
    </TTGlyph>
    <TTGlyph name="Ycircumflex.loclGUA" xMin="17" yMin="0" xMax="336" yMax="888">
      <component glyphName=".ttfautohint" x="17" y="0" flags="0x0"/>
      <component glyphName="Y.loclGUA" x="0" y="0" flags="0x0"/>
      <component glyphName="uni0302.case" x="283" y="0" flags="0x0"/>
    </TTGlyph>
    <TTGlyph name="Ydieresis" xMin="-1" yMin="0" xMax="353" yMax="854">
      <component glyphName=".ttfautohint" x="0" y="0" flags="0x0"/>
      <component glyphName="Y" x="0" y="0" flags="0x0"/>
      <component glyphName="dieresis" x="43" y="124" flags="0x4"/>
    </TTGlyph>
    <TTGlyph name="Ydieresis.loclGUA" xMin="17" yMin="0" xMax="336" yMax="875">
      <component glyphName=".ttfautohint" x="17" y="0" flags="0x0"/>
      <component glyphName="Y.loclGUA" x="0" y="0" flags="0x0"/>
      <component glyphName="uni0308.case" x="310" y="0" flags="0x0"/>
    </TTGlyph>
    <TTGlyph name="Ygrave" xMin="-1" yMin="0" xMax="353" yMax="888">
      <component glyphName=".ttfautohint" x="0" y="0" flags="0x0"/>
      <component glyphName="Y" x="0" y="0" flags="0x0"/>
      <component glyphName="gravecomb.case" x="207" y="0" flags="0x0"/>
    </TTGlyph>
    <TTGlyph name="Ygrave.loclGUA" xMin="17" yMin="0" xMax="336" yMax="888">
      <component glyphName=".ttfautohint" x="17" y="0" flags="0x0"/>
      <component glyphName="Y.loclGUA" x="0" y="0" flags="0x0"/>
      <component glyphName="gravecomb.case" x="207" y="0" flags="0x0"/>
    </TTGlyph>
    <TTGlyph name="Z" xMin="21" yMin="0" xMax="314" yMax="688">
      <contour>
        <pt x="21" y="73" on="1"/>
        <pt x="221" y="610" on="1"/>
        <pt x="27" y="610" on="1"/>
        <pt x="27" y="688" on="1"/>
        <pt x="311" y="688" on="1"/>
        <pt x="311" y="616" on="1"/>
        <pt x="111" y="78" on="1"/>
        <pt x="314" y="78" on="1"/>
        <pt x="314" y="0" on="1"/>
        <pt x="21" y="0" on="1"/>
      </contour>
    </TTGlyph>
    <TTGlyph name="Zacute" xMin="21" yMin="0" xMax="314" yMax="888">
      <component glyphName=".ttfautohint" x="21" y="0" flags="0x0"/>
      <component glyphName="Z" x="0" y="0" flags="0x0"/>
      <component glyphName="acutecomb.case" x="249" y="0" flags="0x0"/>
    </TTGlyph>
    <TTGlyph name="Zacute.loclPLK" xMin="21" yMin="0" xMax="314" yMax="888">
      <component glyphName=".ttfautohint" x="21" y="0" flags="0x0"/>
      <component glyphName="Z" x="0" y="0" flags="0x0"/>
      <component glyphName="acute.case.loclPLK" x="140" y="0" flags="0x0"/>
    </TTGlyph>
    <TTGlyph name="Zcaron" xMin="21" yMin="0" xMax="314" yMax="881">
      <component glyphName=".ttfautohint" x="21" y="0" flags="0x0"/>
      <component glyphName="Z" x="0" y="0" flags="0x0"/>
      <component glyphName="caron" x="66" y="138" flags="0x4"/>
    </TTGlyph>
    <TTGlyph name="Zdotaccent" xMin="21" yMin="0" xMax="314" yMax="875">
      <component glyphName=".ttfautohint" x="21" y="0" flags="0x0"/>
      <component glyphName="Z" x="0" y="0" flags="0x0"/>
      <component glyphName="uni0307.case" x="214" y="0" flags="0x0"/>
    </TTGlyph>
    <TTGlyph name="a" xMin="23" yMin="-8" xMax="314" yMax="518">
      <contour>
        <pt x="73" y="-8" on="0"/>
        <pt x="23" y="59" on="0"/>
        <pt x="23" y="143" on="1"/>
        <pt x="23" y="201" on="0"/>
        <pt x="44" y="265" on="0"/>
        <pt x="93" y="293" on="0"/>
        <pt x="137" y="293" on="1"/>
        <pt x="190" y="291" on="1"/>
        <pt x="234" y="289" on="1"/>
        <pt x="234" y="323" on="1"/>
        <pt x="234" y="381" on="0"/>
        <pt x="220" y="432" on="0"/>
        <pt x="186" y="448" on="0"/>
        <pt x="147" y="448" on="1"/>
        <pt x="125" y="448" on="0"/>
        <pt x="44" y="439" on="1"/>
        <pt x="44" y="503" on="1"/>
        <pt x="102" y="518" on="0"/>
        <pt x="167" y="518" on="1"/>
        <pt x="228" y="518" on="0"/>
        <pt x="290" y="484" on="0"/>
        <pt x="314" y="401" on="0"/>
        <pt x="314" y="321" on="1"/>
        <pt x="314" y="0" on="1"/>
        <pt x="241" y="0" on="1"/>
        <pt x="237" y="67" on="1"/>
        <pt x="232" y="67" on="1"/>
        <pt x="221" y="23" on="0"/>
        <pt x="168" y="-8" on="0"/>
        <pt x="133" y="-8" on="1"/>
      </contour>
      <contour>
        <pt x="185" y="65" on="0"/>
        <pt x="213" y="76" on="0"/>
        <pt x="221" y="96" on="1"/>
        <pt x="234" y="128" on="0"/>
        <pt x="234" y="196" on="1"/>
        <pt x="234" y="233" on="1"/>
        <pt x="160" y="233" on="1"/>
        <pt x="136" y="233" on="0"/>
        <pt x="113" y="221" on="0"/>
        <pt x="103" y="185" on="0"/>
        <pt x="103" y="148" on="1"/>
        <pt x="103" y="114" on="0"/>
        <pt x="113" y="79" on="0"/>
        <pt x="137" y="65" on="0"/>
        <pt x="162" y="65" on="1"/>
      </contour>
    </TTGlyph>
    <TTGlyph name="aacute" xMin="23" yMin="-8" xMax="314" yMax="743">
      <component glyphName=".ttfautohint" x="23" y="0" flags="0x0"/>
      <component glyphName="a" x="0" y="0" flags="0x0"/>
      <component glyphName="acute" x="145" y="0" flags="0x0"/>
    </TTGlyph>
    <TTGlyph name="abreve" xMin="23" yMin="-8" xMax="314" yMax="743">
      <component glyphName=".ttfautohint" x="23" y="0" flags="0x0"/>
      <component glyphName="a" x="0" y="0" flags="0x0"/>
      <component glyphName="uni0306" x="284" y="0" flags="0x0"/>
    </TTGlyph>
    <TTGlyph name="acircumflex" xMin="23" yMin="-8" xMax="314" yMax="743">
      <component glyphName=".ttfautohint" x="23" y="0" flags="0x0"/>
      <component glyphName="a" x="0" y="0" flags="0x0"/>
      <component glyphName="circumflex" x="72" y="0" flags="0x0"/>
    </TTGlyph>
    <TTGlyph name="acute" xMin="-1" yMin="601" xMax="110" yMax="743">
      <contour>
        <pt x="-1" y="606" on="1"/>
        <pt x="30" y="743" on="1"/>
        <pt x="110" y="743" on="1"/>
        <pt x="110" y="738" on="1"/>
        <pt x="62" y="601" on="1"/>
        <pt x="-1" y="601" on="1"/>
      </contour>
    </TTGlyph>
    <TTGlyph name="acute.case.loclPLK" xMin="-1" yMin="746" xMax="92" yMax="888">
      <contour>
        <pt x="-1" y="751" on="1"/>
        <pt x="12" y="888" on="1"/>
        <pt x="92" y="888" on="1"/>
        <pt x="92" y="883" on="1"/>
        <pt x="62" y="746" on="1"/>
        <pt x="-1" y="746" on="1"/>
      </contour>
    </TTGlyph>
    <TTGlyph name="acute.loclPLK" xMin="-1" yMin="601" xMax="92" yMax="743">
      <contour>
        <pt x="-1" y="606" on="1"/>
        <pt x="12" y="743" on="1"/>
        <pt x="92" y="743" on="1"/>
        <pt x="92" y="738" on="1"/>
        <pt x="62" y="601" on="1"/>
        <pt x="-1" y="601" on="1"/>
      </contour>
    </TTGlyph>
    <TTGlyph name="acutecomb" xMin="-110" yMin="601" xMax="1" yMax="743">
      <contour>
        <pt x="-110" y="606" on="1"/>
        <pt x="-79" y="743" on="1"/>
        <pt x="1" y="743" on="1"/>
        <pt x="1" y="738" on="1"/>
        <pt x="-47" y="601" on="1"/>
        <pt x="-110" y="601" on="1"/>
      </contour>
    </TTGlyph>
    <TTGlyph name="acutecomb.case" xMin="-110" yMin="746" xMax="1" yMax="888">
      <contour>
        <pt x="-110" y="751" on="1"/>
        <pt x="-79" y="888" on="1"/>
        <pt x="1" y="888" on="1"/>
        <pt x="1" y="883" on="1"/>
        <pt x="-47" y="746" on="1"/>
        <pt x="-110" y="746" on="1"/>
      </contour>
    </TTGlyph>
    <TTGlyph name="adieresis" xMin="23" yMin="-8" xMax="314" yMax="731">
      <component glyphName=".ttfautohint" x="23" y="0" flags="0x0"/>
      <component glyphName="a" x="0" y="0" flags="0x0"/>
      <component glyphName="dieresis" x="45" y="1" flags="0x4"/>
    </TTGlyph>
    <TTGlyph name="ae" xMin="23" yMin="-8" xMax="526" yMax="518">
      <contour>
        <pt x="526" y="229" on="1"/>
        <pt x="313" y="229" on="1"/>
        <pt x="313" y="151" on="0"/>
        <pt x="324" y="85" on="0"/>
        <pt x="362" y="62" on="0"/>
        <pt x="406" y="62" on="1"/>
        <pt x="449" y="62" on="0"/>
        <pt x="516" y="72" on="1"/>
        <pt x="516" y="6" on="1"/>
        <pt x="494" y="0" on="0"/>
        <pt x="424" y="-8" on="0"/>
        <pt x="393" y="-8" on="1"/>
        <pt x="341" y="-8" on="0"/>
        <pt x="284" y="19" on="0"/>
        <pt x="268" y="52" on="1"/>
        <pt x="249" y="16" on="0"/>
        <pt x="187" y="-7" on="0"/>
        <pt x="148" y="-7" on="1"/>
        <pt x="100" y="-7" on="0"/>
        <pt x="46" y="21" on="0"/>
        <pt x="23" y="86" on="0"/>
        <pt x="23" y="142" on="1"/>
        <pt x="23" y="200" on="0"/>
        <pt x="44" y="264" on="0"/>
        <pt x="92" y="292" on="0"/>
        <pt x="137" y="292" on="1"/>
        <pt x="177" y="292" on="0"/>
        <pt x="233" y="290" on="1"/>
        <pt x="233" y="323" on="1"/>
        <pt x="233" y="381" on="0"/>
        <pt x="220" y="432" on="0"/>
        <pt x="185" y="448" on="0"/>
        <pt x="145" y="448" on="1"/>
        <pt x="121" y="448" on="0"/>
        <pt x="43" y="438" on="1"/>
        <pt x="43" y="503" on="1"/>
        <pt x="115" y="518" on="0"/>
        <pt x="166" y="518" on="1"/>
        <pt x="207" y="518" on="0"/>
        <pt x="259" y="497" on="0"/>
        <pt x="275" y="472" on="1"/>
        <pt x="291" y="495" on="0"/>
        <pt x="344" y="518" on="0"/>
        <pt x="386" y="518" on="1"/>
        <pt x="454" y="518" on="0"/>
        <pt x="512" y="470" on="0"/>
        <pt x="526" y="370" on="0"/>
        <pt x="526" y="256" on="1"/>
      </contour>
      <contour>
        <pt x="351" y="448" on="0"/>
        <pt x="323" y="428" on="0"/>
        <pt x="314" y="365" on="0"/>
        <pt x="313" y="290" on="1"/>
        <pt x="449" y="290" on="1"/>
        <pt x="449" y="297" on="1"/>
        <pt x="449" y="366" on="0"/>
        <pt x="438" y="429" on="0"/>
        <pt x="412" y="448" on="0"/>
        <pt x="384" y="448" on="1"/>
      </contour>
      <contour>
        <pt x="233" y="230" on="1"/>
        <pt x="156" y="230" on="1"/>
        <pt x="132" y="230" on="0"/>
        <pt x="110" y="219" on="0"/>
        <pt x="100" y="184" on="0"/>
        <pt x="100" y="148" on="1"/>
        <pt x="100" y="113" on="0"/>
        <pt x="109" y="77" on="0"/>
        <pt x="134" y="62" on="0"/>
        <pt x="159" y="62" on="1"/>
        <pt x="188" y="62" on="0"/>
        <pt x="220" y="79" on="0"/>
        <pt x="227" y="107" on="1"/>
        <pt x="233" y="136" on="0"/>
        <pt x="233" y="194" on="1"/>
      </contour>
    </TTGlyph>
    <TTGlyph name="aeacute" xMin="23" yMin="-8" xMax="526" yMax="743">
      <component glyphName=".ttfautohint" x="23" y="0" flags="0x0"/>
      <component glyphName="ae" x="0" y="0" flags="0x0"/>
      <component glyphName="acutecomb" x="358" y="0" flags="0x0"/>
    </TTGlyph>
    <TTGlyph name="agrave" xMin="23" yMin="-8" xMax="314" yMax="743">
      <component glyphName=".ttfautohint" x="23" y="0" flags="0x0"/>
      <component glyphName="a" x="0" y="0" flags="0x0"/>
      <component glyphName="grave" x="102" y="0" flags="0x0"/>
    </TTGlyph>
    <TTGlyph name="amacron" xMin="23" yMin="-8" xMax="314" yMax="743">
      <component glyphName=".ttfautohint" x="23" y="0" flags="0x0"/>
      <component glyphName="a" x="0" y="0" flags="0x0"/>
      <component glyphName="uni0304" x="314" y="0" flags="0x0"/>
    </TTGlyph>
    <TTGlyph name="ampersand" xMin="37" yMin="-8" xMax="418" yMax="696">
      <contour>
        <pt x="418" y="384" on="1"/>
        <pt x="418" y="313" on="1"/>
        <pt x="353" y="313" on="1"/>
        <pt x="353" y="9" on="1"/>
        <pt x="324" y="2" on="0"/>
        <pt x="244" y="-8" on="0"/>
        <pt x="212" y="-8" on="1"/>
        <pt x="144" y="-8" on="0"/>
        <pt x="68" y="31" on="0"/>
        <pt x="37" y="113" on="0"/>
        <pt x="37" y="182" on="1"/>
        <pt x="37" y="263" on="0"/>
        <pt x="76" y="335" on="0"/>
        <pt x="119" y="349" on="1"/>
        <pt x="119" y="353" on="1"/>
        <pt x="79" y="367" on="0"/>
        <pt x="42" y="443" on="0"/>
        <pt x="42" y="517" on="1"/>
        <pt x="42" y="615" on="0"/>
        <pt x="121" y="696" on="0"/>
        <pt x="217" y="696" on="1"/>
        <pt x="246" y="696" on="0"/>
        <pt x="322" y="687" on="0"/>
        <pt x="352" y="680" on="1"/>
        <pt x="352" y="615" on="1"/>
        <pt x="293" y="626" on="0"/>
        <pt x="245" y="626" on="1"/>
        <pt x="190" y="626" on="0"/>
        <pt x="139" y="605" on="0"/>
        <pt x="123" y="556" on="0"/>
        <pt x="123" y="504" on="1"/>
        <pt x="123" y="444" on="0"/>
        <pt x="149" y="384" on="0"/>
        <pt x="192" y="384" on="1"/>
        <pt x="227" y="384" on="1"/>
        <pt x="227" y="313" on="1"/>
        <pt x="192" y="313" on="1"/>
        <pt x="160" y="313" on="0"/>
        <pt x="128" y="287" on="0"/>
        <pt x="117" y="234" on="0"/>
        <pt x="117" y="186" on="1"/>
        <pt x="117" y="132" on="0"/>
        <pt x="138" y="80" on="0"/>
        <pt x="183" y="63" on="0"/>
        <pt x="226" y="63" on="1"/>
        <pt x="249" y="63" on="0"/>
        <pt x="273" y="66" on="1"/>
        <pt x="273" y="384" on="1"/>
      </contour>
    </TTGlyph>
    <TTGlyph name="aogonek" xMin="22" yMin="-196" xMax="315" yMax="518">
      <contour>
        <pt x="315" y="-144" on="1"/>
        <pt x="315" y="-193" on="1"/>
        <pt x="300" y="-196" on="0"/>
        <pt x="281" y="-196" on="1"/>
        <pt x="237" y="-196" on="0"/>
        <pt x="196" y="-152" on="0"/>
        <pt x="196" y="-118" on="1"/>
        <pt x="196" y="-88" on="0"/>
        <pt x="227" y="-26" on="0"/>
        <pt x="254" y="0" on="1"/>
        <pt x="239" y="0" on="1"/>
        <pt x="235" y="68" on="1"/>
        <pt x="229" y="68" on="1"/>
        <pt x="213" y="-8" on="0"/>
        <pt x="134" y="-8" on="1"/>
        <pt x="72" y="-8" on="0"/>
        <pt x="22" y="59" on="0"/>
        <pt x="22" y="143" on="1"/>
        <pt x="22" y="201" on="0"/>
        <pt x="43" y="265" on="0"/>
        <pt x="92" y="293" on="0"/>
        <pt x="137" y="293" on="1"/>
        <pt x="168" y="293" on="0"/>
        <pt x="233" y="288" on="1"/>
        <pt x="233" y="325" on="1"/>
        <pt x="233" y="383" on="0"/>
        <pt x="221" y="433" on="0"/>
        <pt x="184" y="449" on="0"/>
        <pt x="142" y="449" on="1"/>
        <pt x="115" y="449" on="0"/>
        <pt x="54" y="443" on="0"/>
        <pt x="43" y="440" on="1"/>
        <pt x="43" y="506" on="1"/>
        <pt x="101" y="518" on="0"/>
        <pt x="166" y="518" on="1"/>
        <pt x="225" y="518" on="0"/>
        <pt x="287" y="484" on="0"/>
        <pt x="313" y="400" on="0"/>
        <pt x="313" y="322" on="1"/>
        <pt x="313" y="0" on="1"/>
        <pt x="294" y="-16" on="0"/>
        <pt x="260" y="-77" on="0"/>
        <pt x="260" y="-105" on="1"/>
        <pt x="260" y="-123" on="0"/>
        <pt x="279" y="-145" on="0"/>
        <pt x="301" y="-145" on="1"/>
      </contour>
      <contour>
        <pt x="233" y="236" on="1"/>
        <pt x="157" y="236" on="1"/>
        <pt x="133" y="236" on="0"/>
        <pt x="109" y="223" on="0"/>
        <pt x="99" y="186" on="0"/>
        <pt x="99" y="149" on="1"/>
        <pt x="99" y="114" on="0"/>
        <pt x="108" y="79" on="0"/>
        <pt x="133" y="64" on="0"/>
        <pt x="158" y="64" on="1"/>
        <pt x="184" y="64" on="0"/>
        <pt x="217" y="80" on="0"/>
        <pt x="224" y="106" on="1"/>
        <pt x="233" y="142" on="0"/>
        <pt x="233" y="199" on="1"/>
      </contour>
    </TTGlyph>
    <TTGlyph name="approxequal" xMin="55" yMin="110" xMax="365" yMax="396">
      <contour>
        <pt x="55" y="316" on="0"/>
        <pt x="64" y="362" on="0"/>
        <pt x="95" y="385" on="0"/>
        <pt x="128" y="385" on="1"/>
        <pt x="148" y="385" on="0"/>
        <pt x="188" y="375" on="0"/>
        <pt x="222" y="364" on="1"/>
        <pt x="229" y="362" on="0"/>
        <pt x="272" y="348" on="0"/>
        <pt x="286" y="348" on="1"/>
        <pt x="303" y="348" on="0"/>
        <pt x="313" y="368" on="0"/>
        <pt x="313" y="396" on="1"/>
        <pt x="365" y="396" on="1"/>
        <pt x="365" y="353" on="0"/>
        <pt x="356" y="308" on="0"/>
        <pt x="326" y="285" on="0"/>
        <pt x="293" y="285" on="1"/>
        <pt x="257" y="285" on="0"/>
        <pt x="200" y="306" on="1"/>
        <pt x="194" y="308" on="0"/>
        <pt x="151" y="323" on="0"/>
        <pt x="134" y="323" on="1"/>
        <pt x="117" y="323" on="0"/>
        <pt x="107" y="302" on="0"/>
        <pt x="107" y="274" on="1"/>
        <pt x="55" y="274" on="1"/>
      </contour>
      <contour>
        <pt x="55" y="152" on="0"/>
        <pt x="64" y="198" on="0"/>
        <pt x="95" y="221" on="0"/>
        <pt x="128" y="221" on="1"/>
        <pt x="148" y="221" on="0"/>
        <pt x="188" y="211" on="0"/>
        <pt x="222" y="200" on="1"/>
        <pt x="231" y="197" on="0"/>
        <pt x="273" y="183" on="0"/>
        <pt x="286" y="183" on="1"/>
        <pt x="303" y="183" on="0"/>
        <pt x="313" y="204" on="0"/>
        <pt x="313" y="232" on="1"/>
        <pt x="365" y="232" on="1"/>
        <pt x="365" y="189" on="0"/>
        <pt x="356" y="144" on="0"/>
        <pt x="326" y="121" on="0"/>
        <pt x="293" y="121" on="1"/>
        <pt x="258" y="121" on="0"/>
        <pt x="199" y="142" on="1"/>
        <pt x="182" y="148" on="0"/>
        <pt x="147" y="158" on="0"/>
        <pt x="134" y="158" on="1"/>
        <pt x="117" y="158" on="0"/>
        <pt x="107" y="138" on="0"/>
        <pt x="107" y="110" on="1"/>
        <pt x="55" y="110" on="1"/>
      </contour>
    </TTGlyph>
    <TTGlyph name="aring" xMin="23" yMin="-8" xMax="314" yMax="798">
      <component glyphName=".ttfautohint" x="23" y="0" flags="0x0"/>
      <component glyphName="a" x="0" y="0" flags="0x0"/>
      <component glyphName="ring" x="80" y="-10" flags="0x4"/>
    </TTGlyph>
    <TTGlyph name="aringacute" xMin="23" yMin="-8" xMax="314" yMax="981">
      <component glyphName=".ttfautohint" x="23" y="0" flags="0x0"/>
      <component glyphName="a" x="0" y="0" flags="0x0"/>
      <component glyphName="uni030A" x="277" y="0" flags="0x0"/>
      <component glyphName="acutecomb" x="258" y="238" flags="0x4"/>
    </TTGlyph>
    <TTGlyph name="arrowboth" xMin="55" yMin="181" xMax="828" yMax="428">
      <contour>
        <pt x="55" y="304" on="1"/>
        <pt x="321" y="428" on="1"/>
        <pt x="284" y="340" on="1"/>
        <pt x="598" y="340" on="1"/>
        <pt x="562" y="428" on="1"/>
        <pt x="828" y="304" on="1"/>
        <pt x="562" y="181" on="1"/>
        <pt x="598" y="269" on="1"/>
        <pt x="284" y="269" on="1"/>
        <pt x="321" y="181" on="1"/>
      </contour>
    </TTGlyph>
    <TTGlyph name="arrowdown" xMin="74" yMin="-85" xMax="321" yMax="688">
      <contour>
        <pt x="74" y="181" on="1"/>
        <pt x="163" y="144" on="1"/>
        <pt x="163" y="688" on="1"/>
        <pt x="234" y="688" on="1"/>
        <pt x="234" y="144" on="1"/>
        <pt x="321" y="181" on="1"/>
        <pt x="198" y="-85" on="1"/>
      </contour>
    </TTGlyph>
    <TTGlyph name="arrowdown.ss01" xMin="30" yMin="171" xMax="315" yMax="456">
      <contour>
        <pt x="30" y="456" on="1"/>
        <pt x="315" y="456" on="1"/>
        <pt x="173" y="171" on="1"/>
      </contour>
    </TTGlyph>
    <TTGlyph name="arrowleft" xMin="55" yMin="181" xMax="828" yMax="428">
      <contour>
        <pt x="314" y="181" on="1"/>
        <pt x="55" y="304" on="1"/>
        <pt x="314" y="428" on="1"/>
        <pt x="278" y="340" on="1"/>
        <pt x="828" y="340" on="1"/>
        <pt x="828" y="269" on="1"/>
        <pt x="278" y="269" on="1"/>
      </contour>
    </TTGlyph>
    <TTGlyph name="arrowleft.ss01" xMin="30" yMin="201" xMax="315" yMax="486">
      <contour>
        <pt x="30" y="343" on="1"/>
        <pt x="315" y="486" on="1"/>
        <pt x="315" y="201" on="1"/>
      </contour>
    </TTGlyph>
    <TTGlyph name="arrowright" xMin="55" yMin="181" xMax="828" yMax="428">
      <contour>
        <pt x="598" y="269" on="1"/>
        <pt x="55" y="269" on="1"/>
        <pt x="55" y="340" on="1"/>
        <pt x="598" y="340" on="1"/>
        <pt x="562" y="428" on="1"/>
        <pt x="828" y="304" on="1"/>
        <pt x="562" y="181" on="1"/>
      </contour>
    </TTGlyph>
    <TTGlyph name="arrowright.ss01" xMin="48" yMin="201" xMax="333" yMax="486">
      <contour>
        <pt x="48" y="486" on="1"/>
        <pt x="333" y="343" on="1"/>
        <pt x="48" y="201" on="1"/>
      </contour>
    </TTGlyph>
    <TTGlyph name="arrowup" xMin="74" yMin="-81" xMax="321" yMax="691">
      <contour>
        <pt x="163" y="461" on="1"/>
        <pt x="74" y="425" on="1"/>
        <pt x="198" y="691" on="1"/>
        <pt x="321" y="425" on="1"/>
        <pt x="234" y="461" on="1"/>
        <pt x="234" y="-81" on="1"/>
        <pt x="163" y="-81" on="1"/>
      </contour>
    </TTGlyph>
    <TTGlyph name="arrowup.ss01" xMin="30" yMin="231" xMax="315" yMax="516">
      <contour>
        <pt x="173" y="516" on="1"/>
        <pt x="315" y="231" on="1"/>
        <pt x="30" y="231" on="1"/>
      </contour>
    </TTGlyph>
    <TTGlyph name="arrowupdn" xMin="74" yMin="-85" xMax="321" yMax="696">
      <contour>
        <pt x="74" y="181" on="1"/>
        <pt x="163" y="144" on="1"/>
        <pt x="163" y="466" on="1"/>
        <pt x="74" y="430" on="1"/>
        <pt x="198" y="696" on="1"/>
        <pt x="321" y="430" on="1"/>
        <pt x="234" y="466" on="1"/>
        <pt x="234" y="144" on="1"/>
        <pt x="321" y="181" on="1"/>
        <pt x="198" y="-85" on="1"/>
      </contour>
    </TTGlyph>
    <TTGlyph name="arrowupdnbse" xMin="55" yMin="-186" xMax="340" yMax="696">
      <contour>
        <pt x="74" y="181" on="1"/>
        <pt x="163" y="144" on="1"/>
        <pt x="163" y="466" on="1"/>
        <pt x="74" y="430" on="1"/>
        <pt x="198" y="696" on="1"/>
        <pt x="321" y="430" on="1"/>
        <pt x="234" y="466" on="1"/>
        <pt x="234" y="144" on="1"/>
        <pt x="321" y="181" on="1"/>
        <pt x="198" y="-85" on="1"/>
      </contour>
      <contour>
        <pt x="55" y="-125" on="1"/>
        <pt x="340" y="-125" on="1"/>
        <pt x="340" y="-186" on="1"/>
        <pt x="55" y="-186" on="1"/>
      </contour>
    </TTGlyph>
    <TTGlyph name="asciicircum" xMin="33" yMin="493" xMax="348" yMax="750">
      <contour>
        <pt x="190" y="685" on="1"/>
        <pt x="108" y="493" on="1"/>
        <pt x="33" y="493" on="1"/>
        <pt x="151" y="750" on="1"/>
        <pt x="229" y="750" on="1"/>
        <pt x="348" y="493" on="1"/>
        <pt x="273" y="493" on="1"/>
      </contour>
    </TTGlyph>
    <TTGlyph name="asciitilde" xMin="55" yMin="242" xMax="365" yMax="364">
      <contour>
        <pt x="365" y="321" on="0"/>
        <pt x="356" y="276" on="0"/>
        <pt x="326" y="253" on="0"/>
        <pt x="293" y="253" on="1"/>
        <pt x="272" y="253" on="0"/>
        <pt x="229" y="263" on="0"/>
        <pt x="199" y="273" on="1"/>
        <pt x="194" y="275" on="0"/>
        <pt x="151" y="290" on="0"/>
        <pt x="134" y="290" on="1"/>
        <pt x="117" y="290" on="0"/>
        <pt x="107" y="270" on="0"/>
        <pt x="107" y="242" on="1"/>
        <pt x="55" y="242" on="1"/>
        <pt x="55" y="284" on="0"/>
        <pt x="64" y="330" on="0"/>
        <pt x="95" y="353" on="0"/>
        <pt x="128" y="353" on="1"/>
        <pt x="146" y="353" on="0"/>
        <pt x="181" y="345" on="0"/>
        <pt x="215" y="334" on="0"/>
        <pt x="222" y="332" on="1"/>
        <pt x="240" y="326" on="0"/>
        <pt x="274" y="316" on="0"/>
        <pt x="286" y="316" on="1"/>
        <pt x="303" y="316" on="0"/>
        <pt x="313" y="336" on="0"/>
        <pt x="313" y="364" on="1"/>
        <pt x="365" y="364" on="1"/>
      </contour>
    </TTGlyph>
    <TTGlyph name="asterisk" xMin="44" yMin="381" xMax="341" yMax="688">
      <contour>
        <pt x="221" y="381" on="1"/>
        <pt x="164" y="381" on="1"/>
        <pt x="172" y="498" on="1"/>
        <pt x="72" y="432" on="1"/>
        <pt x="44" y="482" on="1"/>
        <pt x="150" y="534" on="1"/>
        <pt x="44" y="587" on="1"/>
        <pt x="72" y="636" on="1"/>
        <pt x="172" y="570" on="1"/>
        <pt x="164" y="688" on="1"/>
        <pt x="221" y="688" on="1"/>
        <pt x="213" y="570" on="1"/>
        <pt x="313" y="637" on="1"/>
        <pt x="341" y="587" on="1"/>
        <pt x="234" y="534" on="1"/>
        <pt x="341" y="482" on="1"/>
        <pt x="313" y="432" on="1"/>
        <pt x="213" y="498" on="1"/>
      </contour>
    </TTGlyph>
    <TTGlyph name="asterisk.ss02" xMin="35" yMin="-14" xMax="782" yMax="705">
      <contour>
        <pt x="269" y="262" on="1"/>
        <pt x="35" y="436" on="1"/>
        <pt x="322" y="436" on="1"/>
        <pt x="409" y="705" on="1"/>
        <pt x="494" y="436" on="1"/>
        <pt x="782" y="436" on="1"/>
        <pt x="550" y="262" on="1"/>
        <pt x="640" y="-14" on="1"/>
        <pt x="409" y="156" on="1"/>
        <pt x="178" y="-14" on="1"/>
      </contour>
    </TTGlyph>
    <TTGlyph name="at" xMin="49" yMin="-108" xMax="517" yMax="696">
      <contour>
        <pt x="164" y="-108" on="0"/>
        <pt x="72" y="-54" on="0"/>
        <pt x="49" y="96" on="0"/>
        <pt x="49" y="294" on="1"/>
        <pt x="49" y="492" on="0"/>
        <pt x="72" y="642" on="0"/>
        <pt x="164" y="696" on="0"/>
        <pt x="283" y="696" on="1"/>
        <pt x="402" y="696" on="0"/>
        <pt x="494" y="642" on="0"/>
        <pt x="517" y="493" on="0"/>
        <pt x="517" y="294" on="1"/>
        <pt x="517" y="189" on="0"/>
        <pt x="501" y="97" on="0"/>
        <pt x="467" y="75" on="0"/>
        <pt x="430" y="75" on="1"/>
        <pt x="334" y="75" on="1"/>
        <pt x="330" y="131" on="1"/>
        <pt x="325" y="131" on="1"/>
        <pt x="319" y="97" on="0"/>
        <pt x="280" y="68" on="0"/>
        <pt x="255" y="68" on="1"/>
        <pt x="207" y="68" on="0"/>
        <pt x="168" y="125" on="0"/>
        <pt x="168" y="197" on="1"/>
        <pt x="168" y="270" on="0"/>
        <pt x="207" y="327" on="0"/>
        <pt x="258" y="327" on="1"/>
        <pt x="269" y="327" on="0"/>
        <pt x="327" y="323" on="1"/>
        <pt x="327" y="353" on="1"/>
        <pt x="327" y="402" on="0"/>
        <pt x="319" y="443" on="0"/>
        <pt x="293" y="457" on="0"/>
        <pt x="263" y="457" on="1"/>
        <pt x="238" y="457" on="0"/>
        <pt x="186" y="448" on="1"/>
        <pt x="186" y="508" on="1"/>
        <pt x="233" y="518" on="0"/>
        <pt x="283" y="518" on="1"/>
        <pt x="330" y="518" on="0"/>
        <pt x="377" y="488" on="0"/>
        <pt x="396" y="418" on="0"/>
        <pt x="396" y="351" on="1"/>
        <pt x="396" y="119" on="1"/>
        <pt x="435" y="119" on="1"/>
        <pt x="451" y="119" on="0"/>
        <pt x="465" y="136" on="0"/>
        <pt x="471" y="208" on="0"/>
        <pt x="471" y="294" on="1"/>
        <pt x="471" y="453" on="0"/>
        <pt x="462" y="582" on="0"/>
        <pt x="422" y="641" on="0"/>
        <pt x="373" y="648" on="1"/>
        <pt x="348" y="652" on="0"/>
        <pt x="283" y="652" on="1"/>
        <pt x="246" y="652" on="1"/>
        <pt x="221" y="652" on="0"/>
        <pt x="207" y="651" on="1"/>
        <pt x="151" y="646" on="0"/>
        <pt x="107" y="592" on="0"/>
        <pt x="96" y="462" on="0"/>
        <pt x="96" y="294" on="1"/>
        <pt x="96" y="130" on="0"/>
        <pt x="108" y="0" on="0"/>
        <pt x="156" y="-56" on="0"/>
        <pt x="215" y="-62" on="1"/>
        <pt x="245" y="-64" on="0"/>
        <pt x="283" y="-64" on="1"/>
        <pt x="369" y="-64" on="0"/>
        <pt x="396" y="-61" on="1"/>
        <pt x="396" y="-106" on="1"/>
        <pt x="378" y="-108" on="0"/>
        <pt x="283" y="-108" on="1"/>
      </contour>
      <contour>
        <pt x="295" y="133" on="0"/>
        <pt x="318" y="152" on="0"/>
        <pt x="327" y="200" on="0"/>
        <pt x="327" y="246" on="1"/>
        <pt x="327" y="274" on="1"/>
        <pt x="274" y="274" on="1"/>
        <pt x="257" y="274" on="0"/>
        <pt x="241" y="264" on="0"/>
        <pt x="234" y="234" on="0"/>
        <pt x="234" y="202" on="1"/>
        <pt x="234" y="160" on="0"/>
        <pt x="249" y="133" on="0"/>
        <pt x="274" y="133" on="1"/>
      </contour>
    </TTGlyph>
    <TTGlyph name="atilde" xMin="23" yMin="-8" xMax="314" yMax="743">
      <component glyphName=".ttfautohint" x="23" y="0" flags="0x0"/>
      <component glyphName="a" x="0" y="0" flags="0x0"/>
      <component glyphName="tilde" x="55" y="0" flags="0x0"/>
    </TTGlyph>
    <TTGlyph name="b" xMin="45" yMin="-8" xMax="344" yMax="743">
      <contour>
        <pt x="145" y="-8" on="0"/>
        <pt x="129" y="67" on="1"/>
        <pt x="123" y="67" on="1"/>
        <pt x="119" y="0" on="1"/>
        <pt x="45" y="0" on="1"/>
        <pt x="45" y="743" on="1"/>
        <pt x="125" y="743" on="1"/>
        <pt x="125" y="449" on="1"/>
        <pt x="132" y="449" on="1"/>
        <pt x="140" y="485" on="0"/>
        <pt x="185" y="518" on="0"/>
        <pt x="224" y="518" on="1"/>
        <pt x="275" y="518" on="0"/>
        <pt x="325" y="473" on="0"/>
        <pt x="344" y="364" on="0"/>
        <pt x="344" y="255" on="1"/>
        <pt x="344" y="145" on="0"/>
        <pt x="324" y="35" on="0"/>
        <pt x="274" y="-8" on="0"/>
        <pt x="224" y="-8" on="1"/>
      </contour>
      <contour>
        <pt x="228" y="64" on="0"/>
        <pt x="255" y="88" on="0"/>
        <pt x="264" y="164" on="0"/>
        <pt x="264" y="255" on="1"/>
        <pt x="264" y="346" on="0"/>
        <pt x="255" y="422" on="0"/>
        <pt x="228" y="446" on="0"/>
        <pt x="195" y="446" on="1"/>
        <pt x="168" y="446" on="0"/>
        <pt x="138" y="421" on="0"/>
        <pt x="133" y="392" on="1"/>
        <pt x="125" y="349" on="0"/>
        <pt x="125" y="255" on="1"/>
        <pt x="125" y="160" on="0"/>
        <pt x="132" y="120" on="1"/>
        <pt x="138" y="89" on="0"/>
        <pt x="168" y="64" on="0"/>
        <pt x="195" y="64" on="1"/>
      </contour>
    </TTGlyph>
    <TTGlyph name="backslash" xMin="26" yMin="-55" xMax="236" yMax="743">
      <contour>
        <pt x="26" y="743" on="1"/>
        <pt x="100" y="743" on="1"/>
        <pt x="236" y="-55" on="1"/>
        <pt x="163" y="-55" on="1"/>
      </contour>
    </TTGlyph>
    <TTGlyph name="bar" xMin="61" yMin="-161" xMax="139" yMax="743">
      <contour>
        <pt x="61" y="743" on="1"/>
        <pt x="139" y="743" on="1"/>
        <pt x="139" y="-161" on="1"/>
        <pt x="61" y="-161" on="1"/>
      </contour>
    </TTGlyph>
    <TTGlyph name="bar.ss02" xMin="-1" yMin="0" xMax="499" yMax="696">
      <contour>
        <pt x="-1" y="696" on="1"/>
        <pt x="499" y="696" on="1"/>
        <pt x="499" y="0" on="1"/>
        <pt x="-1" y="0" on="1"/>
      </contour>
    </TTGlyph>
    <TTGlyph name="braceleft" xMin="20" yMin="-150" xMax="231" yMax="743">
      <contour>
        <pt x="136" y="-126" on="0"/>
        <pt x="87" y="-25" on="0"/>
        <pt x="87" y="31" on="1"/>
        <pt x="87" y="154" on="1"/>
        <pt x="87" y="268" on="0"/>
        <pt x="20" y="276" on="1"/>
        <pt x="20" y="318" on="1"/>
        <pt x="87" y="324" on="0"/>
        <pt x="87" y="440" on="1"/>
        <pt x="87" y="563" on="1"/>
        <pt x="87" y="618" on="0"/>
        <pt x="136" y="719" on="0"/>
        <pt x="174" y="743" on="1"/>
        <pt x="231" y="743" on="1"/>
        <pt x="198" y="708" on="0"/>
        <pt x="167" y="622" on="0"/>
        <pt x="167" y="560" on="1"/>
        <pt x="167" y="446" on="1"/>
        <pt x="167" y="323" on="0"/>
        <pt x="92" y="299" on="1"/>
        <pt x="92" y="294" on="1"/>
        <pt x="167" y="270" on="0"/>
        <pt x="167" y="147" on="1"/>
        <pt x="167" y="33" on="1"/>
        <pt x="167" y="-29" on="0"/>
        <pt x="198" y="-115" on="0"/>
        <pt x="231" y="-150" on="1"/>
        <pt x="174" y="-150" on="1"/>
      </contour>
    </TTGlyph>
    <TTGlyph name="braceright" xMin="17" yMin="-150" xMax="229" yMax="743">
      <contour>
        <pt x="51" y="-116" on="0"/>
        <pt x="82" y="-30" on="0"/>
        <pt x="82" y="33" on="1"/>
        <pt x="82" y="147" on="1"/>
        <pt x="82" y="270" on="0"/>
        <pt x="157" y="294" on="1"/>
        <pt x="157" y="299" on="1"/>
        <pt x="82" y="323" on="0"/>
        <pt x="82" y="446" on="1"/>
        <pt x="82" y="560" on="1"/>
        <pt x="82" y="622" on="0"/>
        <pt x="50" y="709" on="0"/>
        <pt x="17" y="743" on="1"/>
        <pt x="74" y="743" on="1"/>
        <pt x="112" y="719" on="0"/>
        <pt x="162" y="618" on="0"/>
        <pt x="162" y="563" on="1"/>
        <pt x="162" y="440" on="1"/>
        <pt x="162" y="324" on="0"/>
        <pt x="229" y="318" on="1"/>
        <pt x="229" y="276" on="1"/>
        <pt x="162" y="268" on="0"/>
        <pt x="162" y="154" on="1"/>
        <pt x="162" y="31" on="1"/>
        <pt x="162" y="-24" on="0"/>
        <pt x="112" y="-126" on="0"/>
        <pt x="74" y="-150" on="1"/>
        <pt x="17" y="-150" on="1"/>
      </contour>
    </TTGlyph>
    <TTGlyph name="bracketleft" xMin="51" yMin="-150" xMax="201" yMax="743">
      <contour>
        <pt x="51" y="743" on="1"/>
        <pt x="201" y="743" on="1"/>
        <pt x="201" y="687" on="1"/>
        <pt x="131" y="683" on="1"/>
        <pt x="131" y="-89" on="1"/>
        <pt x="201" y="-93" on="1"/>
        <pt x="201" y="-150" on="1"/>
        <pt x="51" y="-150" on="1"/>
      </contour>
    </TTGlyph>
    <TTGlyph name="bracketleft.ss02" xMin="45" yMin="0" xMax="397" yMax="696">
      <contour>
        <pt x="45" y="0" on="1"/>
        <pt x="45" y="348" on="1"/>
        <pt x="45" y="449" on="0"/>
        <pt x="135" y="608" on="0"/>
        <pt x="295" y="696" on="0"/>
        <pt x="397" y="696" on="1"/>
        <pt x="397" y="0" on="1"/>
      </contour>
    </TTGlyph>
    <TTGlyph name="bracketright" xMin="24" yMin="-150" xMax="174" yMax="743">
      <contour>
        <pt x="24" y="-93" on="1"/>
        <pt x="94" y="-89" on="1"/>
        <pt x="94" y="683" on="1"/>
        <pt x="24" y="687" on="1"/>
        <pt x="24" y="743" on="1"/>
        <pt x="174" y="743" on="1"/>
        <pt x="174" y="-150" on="1"/>
        <pt x="24" y="-150" on="1"/>
      </contour>
    </TTGlyph>
    <TTGlyph name="bracketright.ss02" xMin="0" yMin="0" xMax="352" yMax="696">
      <contour>
        <pt x="0" y="696" on="1"/>
        <pt x="102" y="696" on="0"/>
        <pt x="262" y="608" on="0"/>
        <pt x="352" y="449" on="0"/>
        <pt x="352" y="348" on="1"/>
        <pt x="352" y="0" on="1"/>
        <pt x="0" y="0" on="1"/>
      </contour>
    </TTGlyph>
    <TTGlyph name="breve" xMin="-1" yMin="608" xMax="210" yMax="743">
      <contour>
        <pt x="210" y="697" on="0"/>
        <pt x="197" y="641" on="0"/>
        <pt x="151" y="608" on="0"/>
        <pt x="104" y="608" on="1"/>
        <pt x="58" y="608" on="0"/>
        <pt x="12" y="641" on="0"/>
        <pt x="-1" y="697" on="0"/>
        <pt x="-1" y="743" on="1"/>
        <pt x="55" y="743" on="1"/>
        <pt x="55" y="710" on="0"/>
        <pt x="60" y="677" on="0"/>
        <pt x="81" y="658" on="0"/>
        <pt x="104" y="658" on="1"/>
        <pt x="127" y="658" on="0"/>
        <pt x="149" y="677" on="0"/>
        <pt x="154" y="710" on="0"/>
        <pt x="154" y="743" on="1"/>
        <pt x="210" y="743" on="1"/>
      </contour>
    </TTGlyph>
    <TTGlyph name="brokenbar" xMin="61" yMin="-161" xMax="139" yMax="743">
      <contour>
        <pt x="61" y="743" on="1"/>
        <pt x="139" y="743" on="1"/>
        <pt x="139" y="390" on="1"/>
        <pt x="61" y="390" on="1"/>
      </contour>
      <contour>
        <pt x="61" y="192" on="1"/>
        <pt x="139" y="192" on="1"/>
        <pt x="139" y="-161" on="1"/>
        <pt x="61" y="-161" on="1"/>
      </contour>
    </TTGlyph>
    <TTGlyph name="bullet" xMin="41" yMin="261" xMax="208" yMax="427">
      <contour>
        <pt x="208" y="303" on="0"/>
        <pt x="199" y="272" on="0"/>
        <pt x="165" y="261" on="0"/>
        <pt x="123" y="261" on="1"/>
        <pt x="83" y="261" on="0"/>
        <pt x="50" y="272" on="0"/>
        <pt x="41" y="303" on="0"/>
        <pt x="41" y="342" on="1"/>
        <pt x="41" y="382" on="0"/>
        <pt x="50" y="415" on="0"/>
        <pt x="83" y="427" on="0"/>
        <pt x="123" y="427" on="1"/>
        <pt x="165" y="427" on="0"/>
        <pt x="199" y="415" on="0"/>
        <pt x="208" y="382" on="0"/>
        <pt x="208" y="342" on="1"/>
      </contour>
    </TTGlyph>
    <TTGlyph name="bullet.ss02" xMin="40" yMin="-8" xMax="743" yMax="696">
      <contour>
        <pt x="343" y="421" on="0"/>
        <pt x="279" y="480" on="0"/>
        <pt x="279" y="533" on="1"/>
        <pt x="279" y="575" on="0"/>
        <pt x="318" y="650" on="0"/>
        <pt x="373" y="696" on="0"/>
        <pt x="392" y="696" on="1"/>
        <pt x="411" y="696" on="0"/>
        <pt x="465" y="650" on="0"/>
        <pt x="504" y="575" on="0"/>
        <pt x="504" y="533" on="1"/>
        <pt x="504" y="480" on="0"/>
        <pt x="441" y="421" on="0"/>
        <pt x="392" y="421" on="1"/>
      </contour>
      <contour>
        <pt x="415" y="481" on="0"/>
        <pt x="444" y="508" on="0"/>
        <pt x="444" y="533" on="1"/>
        <pt x="444" y="560" on="0"/>
        <pt x="426" y="607" on="0"/>
        <pt x="401" y="636" on="0"/>
        <pt x="392" y="636" on="1"/>
        <pt x="383" y="636" on="0"/>
        <pt x="358" y="607" on="0"/>
        <pt x="339" y="560" on="0"/>
        <pt x="339" y="533" on="1"/>
        <pt x="339" y="508" on="0"/>
        <pt x="369" y="481" on="0"/>
        <pt x="392" y="481" on="1"/>
      </contour>
      <contour>
        <pt x="161" y="231" on="0"/>
        <pt x="86" y="270" on="0"/>
        <pt x="40" y="325" on="0"/>
        <pt x="40" y="344" on="1"/>
        <pt x="40" y="363" on="0"/>
        <pt x="86" y="417" on="0"/>
        <pt x="161" y="456" on="0"/>
        <pt x="203" y="456" on="1"/>
        <pt x="256" y="456" on="0"/>
        <pt x="315" y="393" on="0"/>
        <pt x="315" y="344" on="1"/>
        <pt x="315" y="295" on="0"/>
        <pt x="256" y="231" on="0"/>
        <pt x="203" y="231" on="1"/>
      </contour>
      <contour>
        <pt x="527" y="231" on="0"/>
        <pt x="468" y="295" on="0"/>
        <pt x="468" y="344" on="1"/>
        <pt x="468" y="393" on="0"/>
        <pt x="527" y="456" on="0"/>
        <pt x="581" y="456" on="1"/>
        <pt x="622" y="456" on="0"/>
        <pt x="697" y="417" on="0"/>
        <pt x="743" y="363" on="0"/>
        <pt x="743" y="344" on="1"/>
        <pt x="743" y="325" on="0"/>
        <pt x="697" y="270" on="0"/>
        <pt x="623" y="231" on="0"/>
        <pt x="581" y="231" on="1"/>
      </contour>
      <contour>
        <pt x="228" y="291" on="0"/>
        <pt x="255" y="321" on="0"/>
        <pt x="255" y="344" on="1"/>
        <pt x="255" y="367" on="0"/>
        <pt x="228" y="396" on="0"/>
        <pt x="203" y="396" on="1"/>
        <pt x="176" y="396" on="0"/>
        <pt x="129" y="378" on="0"/>
        <pt x="100" y="353" on="0"/>
        <pt x="100" y="344" on="1"/>
        <pt x="100" y="335" on="0"/>
        <pt x="129" y="310" on="0"/>
        <pt x="176" y="291" on="0"/>
        <pt x="203" y="291" on="1"/>
      </contour>
      <contour>
        <pt x="607" y="291" on="0"/>
        <pt x="654" y="310" on="0"/>
        <pt x="683" y="335" on="0"/>
        <pt x="683" y="344" on="1"/>
        <pt x="683" y="353" on="0"/>
        <pt x="654" y="378" on="0"/>
        <pt x="607" y="396" on="0"/>
        <pt x="581" y="396" on="1"/>
        <pt x="556" y="396" on="0"/>
        <pt x="528" y="367" on="0"/>
        <pt x="528" y="344" on="1"/>
        <pt x="528" y="321" on="0"/>
        <pt x="556" y="291" on="0"/>
        <pt x="581" y="291" on="1"/>
      </contour>
      <contour>
        <pt x="373" y="-8" on="0"/>
        <pt x="318" y="38" on="0"/>
        <pt x="279" y="113" on="0"/>
        <pt x="279" y="155" on="1"/>
        <pt x="279" y="208" on="0"/>
        <pt x="343" y="267" on="0"/>
        <pt x="392" y="267" on="1"/>
        <pt x="441" y="267" on="0"/>
        <pt x="504" y="208" on="0"/>
        <pt x="504" y="155" on="1"/>
        <pt x="504" y="113" on="0"/>
        <pt x="465" y="38" on="0"/>
        <pt x="411" y="-8" on="0"/>
        <pt x="392" y="-8" on="1"/>
      </contour>
      <contour>
        <pt x="401" y="52" on="0"/>
        <pt x="426" y="81" on="0"/>
        <pt x="444" y="128" on="0"/>
        <pt x="444" y="155" on="1"/>
        <pt x="444" y="180" on="0"/>
        <pt x="415" y="207" on="0"/>
        <pt x="392" y="207" on="1"/>
        <pt x="369" y="207" on="0"/>
        <pt x="339" y="180" on="0"/>
        <pt x="339" y="155" on="1"/>
        <pt x="339" y="128" on="0"/>
        <pt x="358" y="81" on="0"/>
        <pt x="383" y="52" on="0"/>
        <pt x="392" y="52" on="1"/>
      </contour>
    </TTGlyph>
    <TTGlyph name="c" xMin="37" yMin="-8" xMax="271" yMax="518">
      <contour>
        <pt x="229" y="-8" on="0"/>
        <pt x="179" y="-8" on="1"/>
        <pt x="115" y="-8" on="0"/>
        <pt x="55" y="43" on="0"/>
        <pt x="37" y="149" on="0"/>
        <pt x="37" y="255" on="1"/>
        <pt x="37" y="361" on="0"/>
        <pt x="59" y="471" on="0"/>
        <pt x="118" y="518" on="0"/>
        <pt x="178" y="518" on="1"/>
        <pt x="203" y="518" on="0"/>
        <pt x="255" y="510" on="0"/>
        <pt x="269" y="504" on="1"/>
        <pt x="269" y="439" on="1"/>
        <pt x="234" y="448" on="0"/>
        <pt x="197" y="448" on="1"/>
        <pt x="161" y="448" on="0"/>
        <pt x="128" y="420" on="0"/>
        <pt x="117" y="342" on="0"/>
        <pt x="117" y="255" on="1"/>
        <pt x="117" y="166" on="0"/>
        <pt x="128" y="89" on="0"/>
        <pt x="161" y="62" on="0"/>
        <pt x="198" y="62" on="1"/>
        <pt x="240" y="62" on="0"/>
        <pt x="271" y="71" on="1"/>
        <pt x="271" y="6" on="1"/>
      </contour>
    </TTGlyph>
    <TTGlyph name="cacute" xMin="37" yMin="-8" xMax="271" yMax="743">
      <component glyphName=".ttfautohint" x="37" y="0" flags="0x0"/>
      <component glyphName="c" x="0" y="0" flags="0x0"/>
      <component glyphName="acutecomb" x="225" y="0" flags="0x0"/>
    </TTGlyph>
    <TTGlyph name="cacute.loclPLK" xMin="37" yMin="-8" xMax="271" yMax="743">
      <component glyphName=".ttfautohint" x="37" y="0" flags="0x0"/>
      <component glyphName="c" x="0" y="0" flags="0x0"/>
      <component glyphName="acute.loclPLK" x="116" y="0" flags="0x0"/>
    </TTGlyph>
    <TTGlyph name="caron" xMin="-1" yMin="612" xMax="216" yMax="743">
      <contour>
        <pt x="-1" y="736" on="1"/>
        <pt x="-1" y="743" on="1"/>
        <pt x="56" y="743" on="1"/>
        <pt x="107" y="657" on="1"/>
        <pt x="159" y="743" on="1"/>
        <pt x="216" y="743" on="1"/>
        <pt x="216" y="736" on="1"/>
        <pt x="150" y="612" on="1"/>
        <pt x="64" y="612" on="1"/>
      </contour>
    </TTGlyph>
    <TTGlyph name="caron.loclCSY" xMin="26" yMin="440" xMax="117" yMax="688">
      <contour>
        <pt x="39" y="618" on="1"/>
        <pt x="39" y="688" on="1"/>
        <pt x="117" y="688" on="1"/>
        <pt x="117" y="618" on="1"/>
        <pt x="83" y="440" on="1"/>
        <pt x="26" y="440" on="1"/>
      </contour>
    </TTGlyph>
    <TTGlyph name="ccaron" xMin="37" yMin="-8" xMax="271" yMax="743">
      <component glyphName=".ttfautohint" x="37" y="0" flags="0x0"/>
      <component glyphName="c" x="0" y="0" flags="0x0"/>
      <component glyphName="uni030C" x="256" y="0" flags="0x0"/>
    </TTGlyph>
    <TTGlyph name="ccedilla" xMin="37" yMin="-189" xMax="271" yMax="518">
      <contour>
        <pt x="240" y="62" on="0"/>
        <pt x="271" y="71" on="1"/>
        <pt x="271" y="6" on="1"/>
        <pt x="229" y="-8" on="0"/>
        <pt x="179" y="-8" on="1"/>
        <pt x="174" y="-8" on="1"/>
        <pt x="137" y="-189" on="1"/>
        <pt x="65" y="-189" on="1"/>
        <pt x="65" y="-184" on="1"/>
        <pt x="121" y="-1" on="1"/>
        <pt x="84" y="10" on="0"/>
        <pt x="48" y="69" on="0"/>
        <pt x="37" y="167" on="0"/>
        <pt x="37" y="255" on="1"/>
        <pt x="37" y="361" on="0"/>
        <pt x="59" y="471" on="0"/>
        <pt x="118" y="518" on="0"/>
        <pt x="178" y="518" on="1"/>
        <pt x="203" y="518" on="0"/>
        <pt x="255" y="510" on="0"/>
        <pt x="269" y="504" on="1"/>
        <pt x="269" y="439" on="1"/>
        <pt x="234" y="448" on="0"/>
        <pt x="197" y="448" on="1"/>
        <pt x="161" y="448" on="0"/>
        <pt x="128" y="420" on="0"/>
        <pt x="117" y="342" on="0"/>
        <pt x="117" y="255" on="1"/>
        <pt x="117" y="166" on="0"/>
        <pt x="128" y="89" on="0"/>
        <pt x="161" y="62" on="0"/>
        <pt x="198" y="62" on="1"/>
      </contour>
    </TTGlyph>
    <TTGlyph name="ccircumflex" xMin="37" yMin="-8" xMax="271" yMax="743">
      <component glyphName=".ttfautohint" x="37" y="0" flags="0x0"/>
      <component glyphName="c" x="0" y="0" flags="0x0"/>
      <component glyphName="uni0302" x="256" y="0" flags="0x0"/>
    </TTGlyph>
    <TTGlyph name="cdotaccent" xMin="37" yMin="-8" xMax="271" yMax="730">
      <component glyphName=".ttfautohint" x="37" y="0" flags="0x0"/>
      <component glyphName="c" x="0" y="0" flags="0x0"/>
      <component glyphName="uni0307" x="195" y="0" flags="0x0"/>
    </TTGlyph>
    <TTGlyph name="cedilla" xMin="10" yMin="-189" xMax="121" yMax="8">
      <contour>
        <pt x="10" y="-184" on="1"/>
        <pt x="69" y="8" on="1"/>
        <pt x="121" y="8" on="1"/>
        <pt x="121" y="3" on="1"/>
        <pt x="82" y="-189" on="1"/>
        <pt x="10" y="-189" on="1"/>
      </contour>
    </TTGlyph>
    <TTGlyph name="cent" xMin="39" yMin="-8" xMax="278" yMax="696">
      <contour>
        <pt x="153" y="69" on="1"/>
        <pt x="103" y="76" on="0"/>
        <pt x="54" y="135" on="0"/>
        <pt x="39" y="243" on="0"/>
        <pt x="39" y="342" on="1"/>
        <pt x="39" y="443" on="0"/>
        <pt x="58" y="555" on="0"/>
        <pt x="107" y="608" on="0"/>
        <pt x="153" y="614" on="1"/>
        <pt x="153" y="696" on="1"/>
        <pt x="216" y="696" on="1"/>
        <pt x="216" y="616" on="1"/>
        <pt x="257" y="612" on="0"/>
        <pt x="275" y="606" on="1"/>
        <pt x="275" y="537" on="1"/>
        <pt x="238" y="545" on="0"/>
        <pt x="205" y="545" on="1"/>
        <pt x="166" y="545" on="0"/>
        <pt x="132" y="515" on="0"/>
        <pt x="120" y="434" on="0"/>
        <pt x="120" y="343" on="1"/>
        <pt x="120" y="250" on="0"/>
        <pt x="131" y="169" on="0"/>
        <pt x="165" y="138" on="0"/>
        <pt x="205" y="138" on="1"/>
        <pt x="218" y="138" on="0"/>
        <pt x="260" y="144" on="0"/>
        <pt x="278" y="148" on="1"/>
        <pt x="278" y="80" on="1"/>
        <pt x="249" y="71" on="0"/>
        <pt x="216" y="68" on="1"/>
        <pt x="216" y="-8" on="1"/>
        <pt x="153" y="-8" on="1"/>
      </contour>
    </TTGlyph>
    <TTGlyph name="circumflex" xMin="-1" yMin="612" xMax="215" yMax="743">
      <contour>
        <pt x="-1" y="619" on="1"/>
        <pt x="64" y="743" on="1"/>
        <pt x="149" y="743" on="1"/>
        <pt x="215" y="619" on="1"/>
        <pt x="215" y="612" on="1"/>
        <pt x="159" y="612" on="1"/>
        <pt x="107" y="698" on="1"/>
        <pt x="56" y="612" on="1"/>
        <pt x="-1" y="612" on="1"/>
      </contour>
    </TTGlyph>
    <TTGlyph name="colon" xMin="49" yMin="0" xMax="138" yMax="510">
      <contour>
        <pt x="49" y="510" on="1"/>
        <pt x="138" y="510" on="1"/>
        <pt x="138" y="413" on="1"/>
        <pt x="49" y="413" on="1"/>
      </contour>
      <contour>
        <pt x="49" y="97" on="1"/>
        <pt x="138" y="97" on="1"/>
        <pt x="138" y="0" on="1"/>
        <pt x="49" y="0" on="1"/>
      </contour>
    </TTGlyph>
    <TTGlyph name="comma" xMin="36" yMin="-128" xMax="138" yMax="97">
      <contour>
        <pt x="57" y="-87" on="0"/>
        <pt x="76" y="-74" on="0"/>
        <pt x="81" y="-46" on="0"/>
        <pt x="81" y="-16" on="1"/>
        <pt x="81" y="0" on="1"/>
        <pt x="48" y="0" on="1"/>
        <pt x="48" y="97" on="1"/>
        <pt x="138" y="97" on="1"/>
        <pt x="138" y="14" on="1"/>
        <pt x="138" y="-45" on="0"/>
        <pt x="124" y="-103" on="0"/>
        <pt x="81" y="-128" on="0"/>
        <pt x="36" y="-128" on="1"/>
        <pt x="36" y="-87" on="1"/>
      </contour>
    </TTGlyph>
    <TTGlyph name="copyright" xMin="57" yMin="-8" xMax="432" yMax="696">
      <contour>
        <pt x="151" y="-8" on="0"/>
        <pt x="77" y="39" on="0"/>
        <pt x="57" y="173" on="0"/>
        <pt x="57" y="344" on="1"/>
        <pt x="57" y="515" on="0"/>
        <pt x="77" y="649" on="0"/>
        <pt x="151" y="696" on="0"/>
        <pt x="245" y="696" on="1"/>
        <pt x="338" y="696" on="0"/>
        <pt x="412" y="649" on="0"/>
        <pt x="432" y="515" on="0"/>
        <pt x="432" y="344" on="1"/>
        <pt x="432" y="173" on="0"/>
        <pt x="412" y="39" on="0"/>
        <pt x="338" y="-8" on="0"/>
        <pt x="245" y="-8" on="1"/>
      </contour>
      <contour>
        <pt x="322" y="28" on="0"/>
        <pt x="379" y="63" on="0"/>
        <pt x="395" y="182" on="0"/>
        <pt x="395" y="344" on="1"/>
        <pt x="395" y="506" on="0"/>
        <pt x="379" y="625" on="0"/>
        <pt x="322" y="660" on="0"/>
        <pt x="245" y="660" on="1"/>
        <pt x="167" y="660" on="0"/>
        <pt x="110" y="625" on="0"/>
        <pt x="94" y="506" on="0"/>
        <pt x="94" y="344" on="1"/>
        <pt x="94" y="182" on="0"/>
        <pt x="110" y="63" on="0"/>
        <pt x="167" y="28" on="0"/>
        <pt x="245" y="28" on="1"/>
      </contour>
      <contour>
        <pt x="220" y="156" on="0"/>
        <pt x="185" y="186" on="0"/>
        <pt x="172" y="262" on="0"/>
        <pt x="172" y="344" on="1"/>
        <pt x="172" y="425" on="0"/>
        <pt x="185" y="503" on="0"/>
        <pt x="221" y="533" on="0"/>
        <pt x="259" y="533" on="1"/>
        <pt x="291" y="533" on="0"/>
        <pt x="304" y="526" on="1"/>
        <pt x="304" y="482" on="1"/>
        <pt x="287" y="485" on="0"/>
        <pt x="268" y="485" on="1"/>
        <pt x="246" y="485" on="0"/>
        <pt x="228" y="467" on="0"/>
        <pt x="223" y="413" on="0"/>
        <pt x="223" y="344" on="1"/>
        <pt x="223" y="275" on="0"/>
        <pt x="228" y="221" on="0"/>
        <pt x="246" y="203" on="0"/>
        <pt x="268" y="203" on="1"/>
        <pt x="285" y="203" on="0"/>
        <pt x="305" y="207" on="1"/>
        <pt x="305" y="162" on="1"/>
        <pt x="286" y="156" on="0"/>
        <pt x="259" y="156" on="1"/>
      </contour>
    </TTGlyph>
    <TTGlyph name="currency" xMin="34" yMin="3" xMax="466" yMax="687">
      <contour>
        <pt x="35" y="54" on="1"/>
        <pt x="121" y="140" on="1"/>
        <pt x="108" y="167" on="0"/>
        <pt x="100" y="261" on="0"/>
        <pt x="100" y="347" on="1"/>
        <pt x="100" y="430" on="0"/>
        <pt x="108" y="523" on="0"/>
        <pt x="120" y="550" on="1"/>
        <pt x="34" y="636" on="1"/>
        <pt x="85" y="687" on="1"/>
        <pt x="170" y="601" on="1"/>
        <pt x="198" y="615" on="0"/>
        <pt x="250" y="615" on="1"/>
        <pt x="304" y="615" on="0"/>
        <pt x="330" y="600" on="1"/>
        <pt x="417" y="687" on="1"/>
        <pt x="466" y="636" on="1"/>
        <pt x="379" y="549" on="1"/>
        <pt x="392" y="522" on="0"/>
        <pt x="400" y="430" on="0"/>
        <pt x="400" y="347" on="1"/>
        <pt x="400" y="262" on="0"/>
        <pt x="392" y="168" on="0"/>
        <pt x="380" y="140" on="1"/>
        <pt x="466" y="54" on="1"/>
        <pt x="416" y="3" on="1"/>
        <pt x="331" y="89" on="1"/>
        <pt x="306" y="75" on="0"/>
        <pt x="250" y="75" on="1"/>
        <pt x="195" y="75" on="0"/>
        <pt x="170" y="88" on="1"/>
        <pt x="85" y="3" on="1"/>
      </contour>
      <contour>
        <pt x="284" y="143" on="0"/>
        <pt x="312" y="170" on="0"/>
        <pt x="320" y="249" on="0"/>
        <pt x="320" y="347" on="1"/>
        <pt x="320" y="443" on="0"/>
        <pt x="312" y="519" on="0"/>
        <pt x="284" y="546" on="0"/>
        <pt x="250" y="546" on="1"/>
        <pt x="216" y="546" on="0"/>
        <pt x="188" y="519" on="0"/>
        <pt x="180" y="443" on="0"/>
        <pt x="180" y="347" on="1"/>
        <pt x="180" y="249" on="0"/>
        <pt x="188" y="170" on="0"/>
        <pt x="216" y="143" on="0"/>
        <pt x="250" y="143" on="1"/>
      </contour>
    </TTGlyph>
    <TTGlyph name="d" xMin="34" yMin="-8" xMax="332" yMax="743">
      <contour>
        <pt x="104" y="-8" on="0"/>
        <pt x="54" y="35" on="0"/>
        <pt x="34" y="146" on="0"/>
        <pt x="34" y="255" on="1"/>
        <pt x="34" y="364" on="0"/>
        <pt x="53" y="473" on="0"/>
        <pt x="103" y="518" on="0"/>
        <pt x="153" y="518" on="1"/>
        <pt x="193" y="518" on="0"/>
        <pt x="238" y="485" on="0"/>
        <pt x="246" y="449" on="1"/>
        <pt x="252" y="449" on="1"/>
        <pt x="252" y="743" on="1"/>
        <pt x="332" y="743" on="1"/>
        <pt x="332" y="0" on="1"/>
        <pt x="259" y="0" on="1"/>
        <pt x="255" y="67" on="1"/>
        <pt x="248" y="67" on="1"/>
        <pt x="239" y="24" on="0"/>
        <pt x="189" y="-8" on="0"/>
        <pt x="154" y="-8" on="1"/>
      </contour>
      <contour>
        <pt x="211" y="64" on="0"/>
        <pt x="241" y="90" on="0"/>
        <pt x="246" y="122" on="1"/>
        <pt x="250" y="149" on="0"/>
        <pt x="252" y="221" on="0"/>
        <pt x="252" y="264" on="1"/>
        <pt x="252" y="348" on="0"/>
        <pt x="246" y="383" on="1"/>
        <pt x="239" y="419" on="0"/>
        <pt x="209" y="446" on="0"/>
        <pt x="180" y="446" on="1"/>
        <pt x="149" y="446" on="0"/>
        <pt x="123" y="422" on="0"/>
        <pt x="114" y="346" on="0"/>
        <pt x="114" y="255" on="1"/>
        <pt x="114" y="164" on="0"/>
        <pt x="123" y="88" on="0"/>
        <pt x="150" y="64" on="0"/>
        <pt x="183" y="64" on="1"/>
      </contour>
    </TTGlyph>
    <TTGlyph name="dagger" xMin="34" yMin="0" xMax="265" yMax="688">
      <contour>
        <pt x="110" y="443" on="1"/>
        <pt x="34" y="451" on="1"/>
        <pt x="34" y="508" on="1"/>
        <pt x="110" y="517" on="1"/>
        <pt x="118" y="688" on="1"/>
        <pt x="177" y="688" on="1"/>
        <pt x="184" y="517" on="1"/>
        <pt x="265" y="508" on="1"/>
        <pt x="265" y="451" on="1"/>
        <pt x="184" y="443" on="1"/>
        <pt x="177" y="0" on="1"/>
        <pt x="118" y="0" on="1"/>
      </contour>
    </TTGlyph>
    <TTGlyph name="daggerdbl" xMin="34" yMin="0" xMax="265" yMax="688">
      <contour>
        <pt x="110" y="172" on="1"/>
        <pt x="34" y="180" on="1"/>
        <pt x="34" y="238" on="1"/>
        <pt x="110" y="246" on="1"/>
        <pt x="110" y="443" on="1"/>
        <pt x="34" y="451" on="1"/>
        <pt x="34" y="508" on="1"/>
        <pt x="110" y="517" on="1"/>
        <pt x="118" y="688" on="1"/>
        <pt x="177" y="688" on="1"/>
        <pt x="184" y="517" on="1"/>
        <pt x="265" y="508" on="1"/>
        <pt x="265" y="451" on="1"/>
        <pt x="184" y="443" on="1"/>
        <pt x="184" y="246" on="1"/>
        <pt x="265" y="238" on="1"/>
        <pt x="265" y="180" on="1"/>
        <pt x="184" y="172" on="1"/>
        <pt x="177" y="0" on="1"/>
        <pt x="118" y="0" on="1"/>
      </contour>
    </TTGlyph>
    <TTGlyph name="dcaron" xMin="34" yMin="-8" xMax="454" yMax="743">
      <component glyphName=".ttfautohint" x="34" y="0" flags="0x0"/>
      <component glyphName="d" x="0" y="0" flags="0x0"/>
      <component glyphName="caron.loclCSY" x="337" y="0" flags="0x0"/>
    </TTGlyph>
    <TTGlyph name="dcroat" xMin="34" yMin="-8" xMax="376" yMax="743">
      <contour>
        <pt x="376" y="619" on="1"/>
        <pt x="332" y="619" on="1"/>
        <pt x="332" y="0" on="1"/>
        <pt x="259" y="0" on="1"/>
        <pt x="255" y="67" on="1"/>
        <pt x="248" y="67" on="1"/>
        <pt x="239" y="24" on="0"/>
        <pt x="189" y="-8" on="0"/>
        <pt x="154" y="-8" on="1"/>
        <pt x="104" y="-8" on="0"/>
        <pt x="54" y="35" on="0"/>
        <pt x="34" y="146" on="0"/>
        <pt x="34" y="255" on="1"/>
        <pt x="34" y="364" on="0"/>
        <pt x="53" y="473" on="0"/>
        <pt x="103" y="518" on="0"/>
        <pt x="153" y="518" on="1"/>
        <pt x="193" y="518" on="0"/>
        <pt x="238" y="485" on="0"/>
        <pt x="246" y="449" on="1"/>
        <pt x="252" y="449" on="1"/>
        <pt x="252" y="619" on="1"/>
        <pt x="154" y="619" on="1"/>
        <pt x="154" y="688" on="1"/>
        <pt x="252" y="688" on="1"/>
        <pt x="252" y="743" on="1"/>
        <pt x="332" y="743" on="1"/>
        <pt x="332" y="688" on="1"/>
        <pt x="376" y="688" on="1"/>
      </contour>
      <contour>
        <pt x="250" y="149" on="0"/>
        <pt x="252" y="221" on="0"/>
        <pt x="252" y="264" on="1"/>
        <pt x="252" y="348" on="0"/>
        <pt x="246" y="383" on="1"/>
        <pt x="239" y="419" on="0"/>
        <pt x="209" y="446" on="0"/>
        <pt x="180" y="446" on="1"/>
        <pt x="149" y="446" on="0"/>
        <pt x="123" y="422" on="0"/>
        <pt x="114" y="346" on="0"/>
        <pt x="114" y="255" on="1"/>
        <pt x="114" y="164" on="0"/>
        <pt x="123" y="88" on="0"/>
        <pt x="150" y="64" on="0"/>
        <pt x="183" y="64" on="1"/>
        <pt x="211" y="64" on="0"/>
        <pt x="241" y="90" on="0"/>
        <pt x="246" y="122" on="1"/>
      </contour>
    </TTGlyph>
    <TTGlyph name="degree" xMin="38" yMin="397" xMax="238" yMax="696">
      <contour>
        <pt x="91" y="397" on="0"/>
        <pt x="49" y="424" on="0"/>
        <pt x="38" y="482" on="0"/>
        <pt x="38" y="547" on="1"/>
        <pt x="38" y="611" on="0"/>
        <pt x="49" y="669" on="0"/>
        <pt x="91" y="696" on="0"/>
        <pt x="139" y="696" on="1"/>
        <pt x="186" y="696" on="0"/>
        <pt x="228" y="669" on="0"/>
        <pt x="238" y="611" on="0"/>
        <pt x="238" y="547" on="1"/>
        <pt x="238" y="482" on="0"/>
        <pt x="228" y="424" on="0"/>
        <pt x="186" y="397" on="0"/>
        <pt x="139" y="397" on="1"/>
      </contour>
      <contour>
        <pt x="160" y="446" on="0"/>
        <pt x="176" y="461" on="0"/>
        <pt x="180" y="497" on="0"/>
        <pt x="180" y="543" on="1"/>
        <pt x="180" y="566" on="1"/>
        <pt x="180" y="603" on="0"/>
        <pt x="175" y="634" on="0"/>
        <pt x="159" y="647" on="0"/>
        <pt x="139" y="647" on="1"/>
        <pt x="117" y="647" on="0"/>
        <pt x="100" y="631" on="0"/>
        <pt x="96" y="595" on="0"/>
        <pt x="96" y="547" on="1"/>
        <pt x="96" y="499" on="0"/>
        <pt x="100" y="462" on="0"/>
        <pt x="117" y="446" on="0"/>
        <pt x="139" y="446" on="1"/>
      </contour>
    </TTGlyph>
    <TTGlyph name="dialog" xMin="59" yMin="-212" xMax="746" yMax="688">
      <contour>
        <pt x="306" y="-127" on="1"/>
        <pt x="494" y="60" on="1"/>
        <pt x="686" y="60" on="1"/>
        <pt x="686" y="628" on="1"/>
        <pt x="119" y="628" on="1"/>
        <pt x="119" y="60" on="1"/>
        <pt x="306" y="60" on="1"/>
        <pt x="306" y="0" on="1"/>
        <pt x="59" y="0" on="1"/>
        <pt x="59" y="688" on="1"/>
        <pt x="746" y="688" on="1"/>
        <pt x="746" y="0" on="1"/>
        <pt x="519" y="0" on="1"/>
        <pt x="306" y="-212" on="1"/>
      </contour>
    </TTGlyph>
    <TTGlyph name="dieresis" xMin="15" yMin="648" xMax="254" yMax="730">
      <contour>
        <pt x="15" y="730" on="1"/>
        <pt x="89" y="730" on="1"/>
        <pt x="89" y="648" on="1"/>
        <pt x="15" y="648" on="1"/>
      </contour>
      <contour>
        <pt x="180" y="730" on="1"/>
        <pt x="254" y="730" on="1"/>
        <pt x="254" y="648" on="1"/>
        <pt x="180" y="648" on="1"/>
      </contour>
    </TTGlyph>
    <TTGlyph name="divide" xMin="55" yMin="60" xMax="392" yMax="447">
      <contour>
        <pt x="185" y="447" on="1"/>
        <pt x="262" y="447" on="1"/>
        <pt x="262" y="375" on="1"/>
        <pt x="185" y="375" on="1"/>
      </contour>
      <contour>
        <pt x="55" y="289" on="1"/>
        <pt x="392" y="289" on="1"/>
        <pt x="392" y="218" on="1"/>
        <pt x="55" y="218" on="1"/>
      </contour>
      <contour>
        <pt x="185" y="131" on="1"/>
        <pt x="262" y="131" on="1"/>
        <pt x="262" y="60" on="1"/>
        <pt x="185" y="60" on="1"/>
      </contour>
    </TTGlyph>
    <TTGlyph name="dollar" xMin="39" yMin="-8" xMax="308" yMax="696">
      <contour>
        <pt x="147" y="70" on="1"/>
        <pt x="122" y="71" on="0"/>
        <pt x="66" y="79" on="0"/>
        <pt x="49" y="84" on="1"/>
        <pt x="49" y="151" on="1"/>
        <pt x="61" y="147" on="0"/>
        <pt x="122" y="141" on="0"/>
        <pt x="149" y="141" on="1"/>
        <pt x="192" y="141" on="0"/>
        <pt x="230" y="176" on="0"/>
        <pt x="230" y="225" on="1"/>
        <pt x="230" y="261" on="0"/>
        <pt x="223" y="293" on="0"/>
        <pt x="207" y="303" on="0"/>
        <pt x="190" y="306" on="1"/>
        <pt x="116" y="321" on="1"/>
        <pt x="72" y="331" on="0"/>
        <pt x="39" y="393" on="0"/>
        <pt x="39" y="463" on="1"/>
        <pt x="39" y="538" on="0"/>
        <pt x="93" y="609" on="0"/>
        <pt x="147" y="617" on="1"/>
        <pt x="147" y="696" on="1"/>
        <pt x="210" y="696" on="1"/>
        <pt x="210" y="618" on="1"/>
        <pt x="264" y="615" on="0"/>
        <pt x="289" y="605" on="1"/>
        <pt x="289" y="537" on="1"/>
        <pt x="270" y="541" on="0"/>
        <pt x="214" y="548" on="0"/>
        <pt x="195" y="548" on="1"/>
        <pt x="152" y="548" on="0"/>
        <pt x="120" y="513" on="0"/>
        <pt x="120" y="469" on="1"/>
        <pt x="120" y="436" on="0"/>
        <pt x="126" y="406" on="0"/>
        <pt x="142" y="394" on="0"/>
        <pt x="159" y="391" on="1"/>
        <pt x="232" y="377" on="1"/>
        <pt x="260" y="371" on="0"/>
        <pt x="291" y="347" on="0"/>
        <pt x="308" y="288" on="0"/>
        <pt x="308" y="231" on="1"/>
        <pt x="308" y="156" on="0"/>
        <pt x="262" y="82" on="0"/>
        <pt x="210" y="73" on="1"/>
        <pt x="210" y="-8" on="1"/>
        <pt x="147" y="-8" on="1"/>
      </contour>
    </TTGlyph>
    <TTGlyph name="dotaccent" xMin="10" yMin="648" xMax="85" yMax="730">
      <contour>
        <pt x="10" y="730" on="1"/>
        <pt x="85" y="730" on="1"/>
        <pt x="85" y="648" on="1"/>
        <pt x="10" y="648" on="1"/>
      </contour>
    </TTGlyph>
    <TTGlyph name="dotbelowcomb" xMin="-139" yMin="-159" xMax="-50" yMax="-62">
      <contour>
        <pt x="-139" y="-62" on="1"/>
        <pt x="-50" y="-62" on="1"/>
        <pt x="-50" y="-159" on="1"/>
        <pt x="-139" y="-159" on="1"/>
      </contour>
    </TTGlyph>
    <TTGlyph name="dotlessi" xMin="45" yMin="0" xMax="125" yMax="510">
      <contour>
        <pt x="45" y="510" on="1"/>
        <pt x="125" y="510" on="1"/>
        <pt x="125" y="0" on="1"/>
        <pt x="45" y="0" on="1"/>
      </contour>
    </TTGlyph>
    <TTGlyph name="e" xMin="36" yMin="-8" xMax="330" yMax="518">
      <contour>
        <pt x="330" y="229" on="1"/>
        <pt x="116" y="229" on="1"/>
        <pt x="116" y="150" on="0"/>
        <pt x="128" y="85" on="0"/>
        <pt x="165" y="62" on="0"/>
        <pt x="210" y="62" on="1"/>
        <pt x="252" y="62" on="0"/>
        <pt x="319" y="72" on="1"/>
        <pt x="319" y="7" on="1"/>
        <pt x="298" y="1" on="0"/>
        <pt x="227" y="-8" on="0"/>
        <pt x="194" y="-8" on="1"/>
        <pt x="122" y="-8" on="0"/>
        <pt x="56" y="40" on="0"/>
        <pt x="36" y="145" on="0"/>
        <pt x="36" y="254" on="1"/>
        <pt x="36" y="362" on="0"/>
        <pt x="53" y="467" on="0"/>
        <pt x="118" y="518" on="0"/>
        <pt x="189" y="518" on="1"/>
        <pt x="257" y="518" on="0"/>
        <pt x="315" y="470" on="0"/>
        <pt x="330" y="369" on="0"/>
        <pt x="330" y="255" on="1"/>
      </contour>
      <contour>
        <pt x="155" y="448" on="0"/>
        <pt x="127" y="427" on="0"/>
        <pt x="117" y="364" on="0"/>
        <pt x="116" y="289" on="1"/>
        <pt x="253" y="289" on="1"/>
        <pt x="253" y="299" on="1"/>
        <pt x="253" y="367" on="0"/>
        <pt x="242" y="429" on="0"/>
        <pt x="215" y="448" on="0"/>
        <pt x="187" y="448" on="1"/>
      </contour>
    </TTGlyph>
    <TTGlyph name="eacute" xMin="36" yMin="-8" xMax="330" yMax="743">
      <component glyphName=".ttfautohint" x="36" y="0" flags="0x0"/>
      <component glyphName="e" x="0" y="0" flags="0x0"/>
      <component glyphName="acute" x="157" y="0" flags="0x0"/>
    </TTGlyph>
    <TTGlyph name="ebreve" xMin="36" yMin="-8" xMax="330" yMax="743">
      <component glyphName=".ttfautohint" x="36" y="0" flags="0x0"/>
      <component glyphName="e" x="0" y="0" flags="0x0"/>
      <component glyphName="uni0306" x="287" y="0" flags="0x0"/>
    </TTGlyph>
    <TTGlyph name="ecaron" xMin="36" yMin="-8" xMax="330" yMax="743">
      <component glyphName=".ttfautohint" x="36" y="0" flags="0x0"/>
      <component glyphName="e" x="0" y="0" flags="0x0"/>
      <component glyphName="uni030C" x="290" y="0" flags="0x0"/>
    </TTGlyph>
    <TTGlyph name="ecircumflex" xMin="36" yMin="-8" xMax="330" yMax="743">
      <component glyphName=".ttfautohint" x="36" y="0" flags="0x0"/>
      <component glyphName="e" x="0" y="0" flags="0x0"/>
      <component glyphName="circumflex" x="78" y="0" flags="0x0"/>
    </TTGlyph>
    <TTGlyph name="edieresis" xMin="36" yMin="-8" xMax="330" yMax="731">
      <component glyphName=".ttfautohint" x="36" y="0" flags="0x0"/>
      <component glyphName="e" x="0" y="0" flags="0x0"/>
      <component glyphName="dieresis" x="50" y="1" flags="0x4"/>
    </TTGlyph>
    <TTGlyph name="edotaccent" xMin="36" yMin="-8" xMax="330" yMax="730">
      <component glyphName=".ttfautohint" x="36" y="0" flags="0x0"/>
      <component glyphName="e" x="0" y="0" flags="0x0"/>
      <component glyphName="uni0307" x="230" y="0" flags="0x0"/>
    </TTGlyph>
    <TTGlyph name="egrave" xMin="36" yMin="-8" xMax="330" yMax="743">
      <component glyphName=".ttfautohint" x="36" y="0" flags="0x0"/>
      <component glyphName="e" x="0" y="0" flags="0x0"/>
      <component glyphName="grave" x="109" y="0" flags="0x0"/>
    </TTGlyph>
    <TTGlyph name="eight" xMin="32" yMin="-8" xMax="353" yMax="696">
      <contour>
        <pt x="130" y="-8" on="0"/>
        <pt x="61" y="30" on="0"/>
        <pt x="32" y="112" on="0"/>
        <pt x="32" y="182" on="1"/>
        <pt x="32" y="266" on="0"/>
        <pt x="69" y="336" on="0"/>
        <pt x="110" y="349" on="1"/>
        <pt x="110" y="353" on="1"/>
        <pt x="73" y="364" on="0"/>
        <pt x="38" y="442" on="0"/>
        <pt x="38" y="517" on="1"/>
        <pt x="38" y="585" on="0"/>
        <pt x="69" y="663" on="0"/>
        <pt x="136" y="696" on="0"/>
        <pt x="192" y="696" on="1"/>
        <pt x="249" y="696" on="0"/>
        <pt x="316" y="663" on="0"/>
        <pt x="347" y="585" on="0"/>
        <pt x="347" y="517" on="1"/>
        <pt x="347" y="442" on="0"/>
        <pt x="312" y="364" on="0"/>
        <pt x="275" y="353" on="1"/>
        <pt x="275" y="349" on="1"/>
        <pt x="316" y="336" on="0"/>
        <pt x="353" y="266" on="0"/>
        <pt x="353" y="182" on="1"/>
        <pt x="353" y="112" on="0"/>
        <pt x="323" y="30" on="0"/>
        <pt x="254" y="-8" on="0"/>
        <pt x="192" y="-8" on="1"/>
      </contour>
      <contour>
        <pt x="224" y="384" on="0"/>
        <pt x="254" y="402" on="0"/>
        <pt x="265" y="451" on="0"/>
        <pt x="265" y="502" on="1"/>
        <pt x="265" y="554" on="0"/>
        <pt x="254" y="603" on="0"/>
        <pt x="224" y="622" on="0"/>
        <pt x="192" y="622" on="1"/>
        <pt x="160" y="622" on="0"/>
        <pt x="130" y="603" on="0"/>
        <pt x="120" y="554" on="0"/>
        <pt x="120" y="502" on="1"/>
        <pt x="120" y="451" on="0"/>
        <pt x="131" y="402" on="0"/>
        <pt x="161" y="384" on="0"/>
        <pt x="192" y="384" on="1"/>
      </contour>
      <contour>
        <pt x="224" y="66" on="0"/>
        <pt x="254" y="84" on="0"/>
        <pt x="267" y="135" on="0"/>
        <pt x="267" y="188" on="1"/>
        <pt x="267" y="244" on="0"/>
        <pt x="256" y="295" on="0"/>
        <pt x="226" y="312" on="0"/>
        <pt x="192" y="312" on="1"/>
        <pt x="159" y="312" on="0"/>
        <pt x="129" y="295" on="0"/>
        <pt x="118" y="244" on="0"/>
        <pt x="118" y="188" on="1"/>
        <pt x="118" y="135" on="0"/>
        <pt x="130" y="84" on="0"/>
        <pt x="161" y="66" on="0"/>
        <pt x="192" y="66" on="1"/>
      </contour>
    </TTGlyph>
    <TTGlyph name="eight.dnom" xMin="16" yMin="-4" xMax="216" yMax="383">
      <contour>
        <pt x="59" y="-4" on="0"/>
        <pt x="16" y="44" on="0"/>
        <pt x="16" y="101" on="1"/>
        <pt x="16" y="146" on="0"/>
        <pt x="39" y="185" on="0"/>
        <pt x="64" y="192" on="1"/>
        <pt x="64" y="194" on="1"/>
        <pt x="40" y="201" on="0"/>
        <pt x="19" y="243" on="0"/>
        <pt x="19" y="285" on="1"/>
        <pt x="19" y="340" on="0"/>
        <pt x="63" y="383" on="0"/>
        <pt x="116" y="383" on="1"/>
        <pt x="169" y="383" on="0"/>
        <pt x="213" y="340" on="0"/>
        <pt x="213" y="285" on="1"/>
        <pt x="213" y="244" on="0"/>
        <pt x="191" y="201" on="0"/>
        <pt x="167" y="194" on="1"/>
        <pt x="167" y="192" on="1"/>
        <pt x="193" y="185" on="0"/>
        <pt x="216" y="146" on="0"/>
        <pt x="216" y="101" on="1"/>
        <pt x="216" y="44" on="0"/>
        <pt x="173" y="-4" on="0"/>
        <pt x="116" y="-4" on="1"/>
      </contour>
      <contour>
        <pt x="135" y="212" on="0"/>
        <pt x="152" y="222" on="0"/>
        <pt x="158" y="248" on="0"/>
        <pt x="158" y="275" on="1"/>
        <pt x="158" y="315" on="0"/>
        <pt x="143" y="340" on="0"/>
        <pt x="116" y="340" on="1"/>
        <pt x="97" y="340" on="0"/>
        <pt x="79" y="330" on="0"/>
        <pt x="73" y="303" on="0"/>
        <pt x="73" y="275" on="1"/>
        <pt x="73" y="236" on="0"/>
        <pt x="89" y="212" on="0"/>
        <pt x="116" y="212" on="1"/>
      </contour>
      <contour>
        <pt x="134" y="39" on="0"/>
        <pt x="153" y="49" on="0"/>
        <pt x="160" y="76" on="0"/>
        <pt x="160" y="105" on="1"/>
        <pt x="160" y="135" on="0"/>
        <pt x="153" y="162" on="0"/>
        <pt x="135" y="171" on="0"/>
        <pt x="116" y="171" on="1"/>
        <pt x="96" y="171" on="0"/>
        <pt x="78" y="162" on="0"/>
        <pt x="71" y="134" on="0"/>
        <pt x="71" y="105" on="1"/>
        <pt x="71" y="76" on="0"/>
        <pt x="79" y="49" on="0"/>
        <pt x="97" y="39" on="0"/>
        <pt x="116" y="39" on="1"/>
      </contour>
    </TTGlyph>
    <TTGlyph name="eight.numr" xMin="16" yMin="304" xMax="216" yMax="691">
      <component glyphName=".ttfautohint" x="16" y="304" flags="0x0"/>
      <component glyphName="eight.dnom" x="0" y="308" flags="0x4"/>
    </TTGlyph>
    <TTGlyph name="eight.tnum" xMin="33" yMin="-8" xMax="354" yMax="696">
      <contour>
        <pt x="132" y="-8" on="0"/>
        <pt x="63" y="30" on="0"/>
        <pt x="33" y="112" on="0"/>
        <pt x="33" y="182" on="1"/>
        <pt x="33" y="266" on="0"/>
        <pt x="70" y="336" on="0"/>
        <pt x="111" y="349" on="1"/>
        <pt x="111" y="353" on="1"/>
        <pt x="74" y="364" on="0"/>
        <pt x="39" y="442" on="0"/>
        <pt x="39" y="517" on="1"/>
        <pt x="39" y="585" on="0"/>
        <pt x="70" y="663" on="0"/>
        <pt x="137" y="696" on="0"/>
        <pt x="193" y="696" on="1"/>
        <pt x="250" y="696" on="0"/>
        <pt x="317" y="663" on="0"/>
        <pt x="348" y="585" on="0"/>
        <pt x="348" y="517" on="1"/>
        <pt x="348" y="442" on="0"/>
        <pt x="313" y="364" on="0"/>
        <pt x="276" y="353" on="1"/>
        <pt x="276" y="349" on="1"/>
        <pt x="317" y="336" on="0"/>
        <pt x="354" y="266" on="0"/>
        <pt x="354" y="182" on="1"/>
        <pt x="354" y="111" on="0"/>
        <pt x="325" y="30" on="0"/>
        <pt x="255" y="-8" on="0"/>
        <pt x="193" y="-8" on="1"/>
      </contour>
      <contour>
        <pt x="225" y="384" on="0"/>
        <pt x="255" y="402" on="0"/>
        <pt x="266" y="451" on="0"/>
        <pt x="266" y="502" on="1"/>
        <pt x="266" y="554" on="0"/>
        <pt x="255" y="603" on="0"/>
        <pt x="225" y="622" on="0"/>
        <pt x="193" y="622" on="1"/>
        <pt x="161" y="622" on="0"/>
        <pt x="131" y="603" on="0"/>
        <pt x="121" y="554" on="0"/>
        <pt x="121" y="502" on="1"/>
        <pt x="121" y="451" on="0"/>
        <pt x="132" y="402" on="0"/>
        <pt x="162" y="384" on="0"/>
        <pt x="193" y="384" on="1"/>
      </contour>
      <contour>
        <pt x="225" y="66" on="0"/>
        <pt x="255" y="84" on="0"/>
        <pt x="268" y="135" on="0"/>
        <pt x="268" y="188" on="1"/>
        <pt x="268" y="244" on="0"/>
        <pt x="257" y="295" on="0"/>
        <pt x="227" y="312" on="0"/>
        <pt x="193" y="312" on="1"/>
        <pt x="160" y="312" on="0"/>
        <pt x="130" y="295" on="0"/>
        <pt x="119" y="244" on="0"/>
        <pt x="119" y="188" on="1"/>
        <pt x="119" y="135" on="0"/>
        <pt x="131" y="84" on="0"/>
        <pt x="162" y="66" on="0"/>
        <pt x="193" y="66" on="1"/>
      </contour>
    </TTGlyph>
    <TTGlyph name="ellipsis" xMin="49" yMin="0" xMax="514" yMax="97">
      <contour>
        <pt x="49" y="97" on="1"/>
        <pt x="138" y="97" on="1"/>
        <pt x="138" y="0" on="1"/>
        <pt x="49" y="0" on="1"/>
      </contour>
      <contour>
        <pt x="237" y="97" on="1"/>
        <pt x="326" y="97" on="1"/>
        <pt x="326" y="0" on="1"/>
        <pt x="237" y="0" on="1"/>
      </contour>
      <contour>
        <pt x="424" y="97" on="1"/>
        <pt x="514" y="97" on="1"/>
        <pt x="514" y="0" on="1"/>
        <pt x="424" y="0" on="1"/>
      </contour>
    </TTGlyph>
    <TTGlyph name="emacron" xMin="36" yMin="-8" xMax="330" yMax="743">
      <component glyphName=".ttfautohint" x="36" y="0" flags="0x0"/>
      <component glyphName="e" x="0" y="0" flags="0x0"/>
      <component glyphName="uni0304" x="318" y="0" flags="0x0"/>
    </TTGlyph>
    <TTGlyph name="emdash" xMin="50" yMin="269" xMax="742" yMax="340">
      <contour>
        <pt x="50" y="340" on="1"/>
        <pt x="742" y="340" on="1"/>
        <pt x="742" y="269" on="1"/>
        <pt x="50" y="269" on="1"/>
      </contour>
    </TTGlyph>
    <TTGlyph name="endash" xMin="50" yMin="269" xMax="365" yMax="340">
      <contour>
        <pt x="50" y="340" on="1"/>
        <pt x="365" y="340" on="1"/>
        <pt x="365" y="269" on="1"/>
        <pt x="50" y="269" on="1"/>
      </contour>
    </TTGlyph>
    <TTGlyph name="eng" xMin="45" yMin="-194" xMax="336" yMax="518">
      <contour>
        <pt x="276" y="518" on="0"/>
        <pt x="321" y="482" on="0"/>
        <pt x="336" y="405" on="0"/>
        <pt x="336" y="332" on="1"/>
        <pt x="336" y="-39" on="1"/>
        <pt x="336" y="-111" on="0"/>
        <pt x="312" y="-175" on="0"/>
        <pt x="260" y="-194" on="0"/>
        <pt x="204" y="-194" on="1"/>
        <pt x="204" y="-132" on="1"/>
        <pt x="229" y="-132" on="0"/>
        <pt x="250" y="-122" on="0"/>
        <pt x="256" y="-101" on="0"/>
        <pt x="256" y="-78" on="1"/>
        <pt x="256" y="299" on="1"/>
        <pt x="256" y="368" on="0"/>
        <pt x="247" y="427" on="0"/>
        <pt x="223" y="446" on="0"/>
        <pt x="194" y="446" on="1"/>
        <pt x="161" y="446" on="0"/>
        <pt x="132" y="407" on="0"/>
        <pt x="125" y="335" on="0"/>
        <pt x="125" y="257" on="1"/>
        <pt x="125" y="0" on="1"/>
        <pt x="45" y="0" on="1"/>
        <pt x="45" y="510" on="1"/>
        <pt x="119" y="510" on="1"/>
        <pt x="123" y="443" on="1"/>
        <pt x="129" y="443" on="1"/>
        <pt x="149" y="518" on="0"/>
        <pt x="231" y="518" on="1"/>
      </contour>
    </TTGlyph>
    <TTGlyph name="eogonek" xMin="34" yMin="-196" xMax="323" yMax="518">
      <contour>
        <pt x="323" y="231" on="1"/>
        <pt x="114" y="231" on="1"/>
        <pt x="114" y="153" on="0"/>
        <pt x="125" y="86" on="0"/>
        <pt x="162" y="61" on="0"/>
        <pt x="205" y="61" on="1"/>
        <pt x="227" y="61" on="0"/>
        <pt x="293" y="66" on="0"/>
        <pt x="314" y="70" on="1"/>
        <pt x="314" y="5" on="1"/>
        <pt x="292" y="-14" on="0"/>
        <pt x="254" y="-76" on="0"/>
        <pt x="254" y="-105" on="1"/>
        <pt x="254" y="-145" on="0"/>
        <pt x="295" y="-145" on="1"/>
        <pt x="309" y="-144" on="1"/>
        <pt x="309" y="-193" on="1"/>
        <pt x="294" y="-196" on="0"/>
        <pt x="275" y="-196" on="1"/>
        <pt x="231" y="-196" on="0"/>
        <pt x="190" y="-152" on="0"/>
        <pt x="190" y="-118" on="1"/>
        <pt x="190" y="-89" on="0"/>
        <pt x="219" y="-29" on="0"/>
        <pt x="244" y="-4" on="1"/>
        <pt x="217" y="-8" on="0"/>
        <pt x="189" y="-8" on="1"/>
        <pt x="119" y="-8" on="0"/>
        <pt x="54" y="41" on="0"/>
        <pt x="34" y="146" on="0"/>
        <pt x="34" y="254" on="1"/>
        <pt x="34" y="364" on="0"/>
        <pt x="51" y="467" on="0"/>
        <pt x="114" y="518" on="0"/>
        <pt x="185" y="518" on="1"/>
        <pt x="251" y="518" on="0"/>
        <pt x="309" y="470" on="0"/>
        <pt x="323" y="369" on="0"/>
        <pt x="323" y="255" on="1"/>
      </contour>
      <contour>
        <pt x="151" y="449" on="0"/>
        <pt x="123" y="428" on="0"/>
        <pt x="114" y="364" on="0"/>
        <pt x="114" y="288" on="1"/>
        <pt x="248" y="288" on="1"/>
        <pt x="248" y="302" on="1"/>
        <pt x="248" y="370" on="0"/>
        <pt x="238" y="430" on="0"/>
        <pt x="212" y="449" on="0"/>
        <pt x="184" y="449" on="1"/>
      </contour>
    </TTGlyph>
    <TTGlyph name="equal" xMin="55" yMin="133" xMax="392" yMax="374">
      <contour>
        <pt x="55" y="374" on="1"/>
        <pt x="392" y="374" on="1"/>
        <pt x="392" y="302" on="1"/>
        <pt x="55" y="302" on="1"/>
      </contour>
      <contour>
        <pt x="55" y="204" on="1"/>
        <pt x="392" y="204" on="1"/>
        <pt x="392" y="133" on="1"/>
        <pt x="55" y="133" on="1"/>
      </contour>
    </TTGlyph>
    <TTGlyph name="estimated" xMin="37" yMin="-8" xMax="371" yMax="696">
      <contour>
        <pt x="123" y="174" on="0"/>
        <pt x="136" y="56" on="0"/>
        <pt x="172" y="26" on="0"/>
        <pt x="219" y="26" on="1"/>
        <pt x="259" y="26" on="0"/>
        <pt x="302" y="45" on="0"/>
        <pt x="328" y="120" on="0"/>
        <pt x="331" y="200" on="1"/>
        <pt x="367" y="200" on="1"/>
        <pt x="363" y="114" on="0"/>
        <pt x="334" y="27" on="0"/>
        <pt x="268" y="-8" on="0"/>
        <pt x="204" y="-8" on="1"/>
        <pt x="125" y="-8" on="0"/>
        <pt x="56" y="48" on="0"/>
        <pt x="37" y="186" on="0"/>
        <pt x="37" y="344" on="1"/>
        <pt x="37" y="503" on="0"/>
        <pt x="56" y="640" on="0"/>
        <pt x="124" y="696" on="0"/>
        <pt x="204" y="696" on="1"/>
        <pt x="284" y="696" on="0"/>
        <pt x="352" y="640" on="0"/>
        <pt x="371" y="503" on="0"/>
        <pt x="371" y="344" on="1"/>
        <pt x="371" y="323" on="1"/>
        <pt x="122" y="323" on="1"/>
      </contour>
      <contour>
        <pt x="165" y="662" on="0"/>
        <pt x="134" y="630" on="0"/>
        <pt x="122" y="508" on="0"/>
        <pt x="122" y="357" on="1"/>
        <pt x="286" y="357" on="1"/>
        <pt x="286" y="508" on="0"/>
        <pt x="274" y="630" on="0"/>
        <pt x="243" y="662" on="0"/>
        <pt x="204" y="662" on="1"/>
      </contour>
    </TTGlyph>
    <TTGlyph name="eth" xMin="34" yMin="-8" xMax="334" yMax="743">
      <contour>
        <pt x="114" y="-8" on="0"/>
        <pt x="52" y="36" on="0"/>
        <pt x="34" y="139" on="0"/>
        <pt x="34" y="254" on="1"/>
        <pt x="34" y="364" on="0"/>
        <pt x="50" y="469" on="0"/>
        <pt x="105" y="518" on="0"/>
        <pt x="164" y="518" on="1"/>
        <pt x="207" y="518" on="0"/>
        <pt x="233" y="495" on="1"/>
        <pt x="237" y="498" on="1"/>
        <pt x="220" y="576" on="0"/>
        <pt x="198" y="627" on="1"/>
        <pt x="113" y="614" on="1"/>
        <pt x="113" y="666" on="1"/>
        <pt x="177" y="675" on="1"/>
        <pt x="165" y="699" on="0"/>
        <pt x="139" y="739" on="1"/>
        <pt x="139" y="743" on="1"/>
        <pt x="221" y="743" on="1"/>
        <pt x="241" y="716" on="0"/>
        <pt x="255" y="687" on="1"/>
        <pt x="326" y="698" on="1"/>
        <pt x="326" y="646" on="1"/>
        <pt x="277" y="638" on="1"/>
        <pt x="314" y="548" on="0"/>
        <pt x="327" y="424" on="1"/>
        <pt x="334" y="357" on="0"/>
        <pt x="334" y="267" on="1"/>
        <pt x="334" y="145" on="0"/>
        <pt x="318" y="39" on="0"/>
        <pt x="256" y="-8" on="0"/>
        <pt x="185" y="-8" on="1"/>
      </contour>
      <contour>
        <pt x="220" y="61" on="0"/>
        <pt x="248" y="89" on="0"/>
        <pt x="254" y="160" on="0"/>
        <pt x="254" y="255" on="1"/>
        <pt x="254" y="342" on="0"/>
        <pt x="247" y="414" on="0"/>
        <pt x="219" y="449" on="0"/>
        <pt x="184" y="449" on="1"/>
        <pt x="148" y="449" on="0"/>
        <pt x="120" y="423" on="0"/>
        <pt x="114" y="352" on="0"/>
        <pt x="114" y="255" on="1"/>
        <pt x="114" y="160" on="0"/>
        <pt x="120" y="89" on="0"/>
        <pt x="148" y="61" on="0"/>
        <pt x="184" y="61" on="1"/>
      </contour>
    </TTGlyph>
    <TTGlyph name="exclam" xMin="49" yMin="0" xMax="146" yMax="688">
      <contour>
        <pt x="49" y="497" on="0"/>
        <pt x="49" y="581" on="1"/>
        <pt x="49" y="688" on="1"/>
        <pt x="146" y="688" on="1"/>
        <pt x="146" y="581" on="1"/>
        <pt x="146" y="497" on="0"/>
        <pt x="123" y="193" on="1"/>
        <pt x="72" y="193" on="1"/>
      </contour>
      <contour>
        <pt x="53" y="97" on="1"/>
        <pt x="142" y="97" on="1"/>
        <pt x="142" y="0" on="1"/>
        <pt x="53" y="0" on="1"/>
      </contour>
    </TTGlyph>
    <TTGlyph name="exclam.case" xMin="49" yMin="0" xMax="146" yMax="688">
      <component glyphName=".ttfautohint" x="49" y="0" flags="0x0"/>
      <component glyphName="exclam" x="0" y="0" flags="0x0"/>
    </TTGlyph>
    <TTGlyph name="exclam.ss02" xMin="45" yMin="-8" xMax="749" yMax="696">
      <contour>
        <pt x="302" y="-8" on="0"/>
        <pt x="140" y="87" on="0"/>
        <pt x="45" y="249" on="0"/>
        <pt x="45" y="344" on="1"/>
        <pt x="45" y="439" on="0"/>
        <pt x="140" y="601" on="0"/>
        <pt x="302" y="696" on="0"/>
        <pt x="397" y="696" on="1"/>
        <pt x="492" y="696" on="0"/>
        <pt x="654" y="601" on="0"/>
        <pt x="749" y="439" on="0"/>
        <pt x="749" y="344" on="1"/>
        <pt x="749" y="249" on="0"/>
        <pt x="654" y="87" on="0"/>
        <pt x="492" y="-8" on="0"/>
        <pt x="397" y="-8" on="1"/>
      </contour>
      <contour>
        <pt x="480" y="37" on="0"/>
        <pt x="621" y="120" on="0"/>
        <pt x="704" y="261" on="0"/>
        <pt x="704" y="344" on="1"/>
        <pt x="704" y="427" on="0"/>
        <pt x="621" y="568" on="0"/>
        <pt x="480" y="651" on="0"/>
        <pt x="397" y="651" on="1"/>
        <pt x="314" y="651" on="0"/>
        <pt x="173" y="568" on="0"/>
        <pt x="90" y="427" on="0"/>
        <pt x="90" y="344" on="1"/>
        <pt x="90" y="261" on="0"/>
        <pt x="173" y="120" on="0"/>
        <pt x="314" y="37" on="0"/>
        <pt x="397" y="37" on="1"/>
      </contour>
      <contour>
        <pt x="371" y="310" on="0"/>
        <pt x="363" y="429" on="0"/>
        <pt x="363" y="480" on="1"/>
        <pt x="363" y="579" on="1"/>
        <pt x="431" y="579" on="1"/>
        <pt x="431" y="480" on="1"/>
        <pt x="431" y="429" on="0"/>
        <pt x="423" y="310" on="0"/>
        <pt x="417" y="268" on="1"/>
        <pt x="377" y="268" on="1"/>
      </contour>
      <contour>
        <pt x="363" y="191" on="1"/>
        <pt x="431" y="191" on="1"/>
        <pt x="431" y="109" on="1"/>
        <pt x="363" y="109" on="1"/>
      </contour>
    </TTGlyph>
    <TTGlyph name="exclamdbl" xMin="49" yMin="0" xMax="318" yMax="688">
      <component glyphName=".ttfautohint" x="49" y="0" flags="0x0"/>
      <component glyphName="exclam" x="172" y="0" flags="0x0"/>
      <component glyphName="exclam" x="0" y="0" flags="0x0"/>
    </TTGlyph>
    <TTGlyph name="exclamdown" xMin="50" yMin="-178" xMax="146" yMax="510">
      <contour>
        <pt x="53" y="510" on="1"/>
        <pt x="143" y="510" on="1"/>
        <pt x="143" y="413" on="1"/>
        <pt x="53" y="413" on="1"/>
      </contour>
      <contour>
        <pt x="50" y="-71" on="1"/>
        <pt x="50" y="27" on="0"/>
        <pt x="72" y="317" on="1"/>
        <pt x="124" y="317" on="1"/>
        <pt x="146" y="27" on="0"/>
        <pt x="146" y="-71" on="1"/>
        <pt x="146" y="-178" on="1"/>
        <pt x="50" y="-178" on="1"/>
      </contour>
    </TTGlyph>
    <TTGlyph name="exclamdown.case" xMin="50" yMin="0" xMax="146" yMax="688">
      <component glyphName=".ttfautohint" x="50" y="0" flags="0x0"/>
      <component glyphName="exclamdown" x="0" y="178" flags="0x4"/>
    </TTGlyph>
    <TTGlyph name="f" xMin="15" yMin="0" xMax="221" yMax="743">
      <contour>
        <pt x="70" y="441" on="1"/>
        <pt x="15" y="441" on="1"/>
        <pt x="15" y="510" on="1"/>
        <pt x="70" y="510" on="1"/>
        <pt x="70" y="580" on="1"/>
        <pt x="70" y="655" on="0"/>
        <pt x="96" y="723" on="0"/>
        <pt x="156" y="743" on="0"/>
        <pt x="221" y="743" on="1"/>
        <pt x="221" y="682" on="1"/>
        <pt x="190" y="682" on="0"/>
        <pt x="161" y="671" on="0"/>
        <pt x="150" y="637" on="0"/>
        <pt x="150" y="600" on="1"/>
        <pt x="150" y="510" on="1"/>
        <pt x="221" y="510" on="1"/>
        <pt x="221" y="441" on="1"/>
        <pt x="150" y="441" on="1"/>
        <pt x="150" y="0" on="1"/>
        <pt x="70" y="0" on="1"/>
      </contour>
    </TTGlyph>
    <TTGlyph name="f_f" xMin="15" yMin="0" xMax="460" yMax="743">
      <component glyphName=".ttfautohint" x="15" y="0" flags="0x0"/>
      <component glyphName="f" x="0" y="0" flags="0x0"/>
      <component glyphName="f" x="239" y="0" flags="0x0"/>
    </TTGlyph>
    <TTGlyph name="fi" xMin="15" yMin="0" xMax="366" yMax="743">
      <component glyphName=".ttfautohint" x="15" y="0" flags="0x0"/>
      <component glyphName="f" x="0" y="0" flags="0x0"/>
      <component glyphName="i" x="239" y="0" flags="0x0"/>
    </TTGlyph>
    <TTGlyph name="five" xMin="38" yMin="-8" xMax="326" yMax="688">
      <contour>
        <pt x="100" y="70" on="0"/>
        <pt x="144" y="70" on="1"/>
        <pt x="187" y="70" on="0"/>
        <pt x="227" y="92" on="0"/>
        <pt x="241" y="147" on="0"/>
        <pt x="241" y="206" on="1"/>
        <pt x="241" y="269" on="0"/>
        <pt x="228" y="322" on="0"/>
        <pt x="187" y="339" on="0"/>
        <pt x="138" y="339" on="1"/>
        <pt x="100" y="339" on="0"/>
        <pt x="43" y="328" on="1"/>
        <pt x="43" y="688" on="1"/>
        <pt x="302" y="688" on="1"/>
        <pt x="302" y="610" on="1"/>
        <pt x="122" y="610" on="1"/>
        <pt x="122" y="409" on="1"/>
        <pt x="148" y="416" on="0"/>
        <pt x="189" y="416" on="1"/>
        <pt x="246" y="416" on="0"/>
        <pt x="305" y="372" on="0"/>
        <pt x="326" y="288" on="0"/>
        <pt x="326" y="217" on="1"/>
        <pt x="326" y="129" on="0"/>
        <pt x="300" y="34" on="0"/>
        <pt x="232" y="-8" on="0"/>
        <pt x="168" y="-8" on="1"/>
        <pt x="139" y="-8" on="0"/>
        <pt x="66" y="1" on="0"/>
        <pt x="38" y="8" on="1"/>
        <pt x="38" y="78" on="1"/>
      </contour>
    </TTGlyph>
    <TTGlyph name="five.dnom" xMin="32" yMin="-4" xMax="201" yMax="379">
      <contour>
        <pt x="61" y="43" on="0"/>
        <pt x="95" y="43" on="1"/>
        <pt x="118" y="43" on="0"/>
        <pt x="138" y="53" on="0"/>
        <pt x="144" y="81" on="0"/>
        <pt x="144" y="114" on="1"/>
        <pt x="144" y="150" on="0"/>
        <pt x="139" y="176" on="0"/>
        <pt x="119" y="184" on="0"/>
        <pt x="92" y="184" on="1"/>
        <pt x="63" y="184" on="0"/>
        <pt x="35" y="178" on="1"/>
        <pt x="35" y="379" on="1"/>
        <pt x="186" y="379" on="1"/>
        <pt x="186" y="332" on="1"/>
        <pt x="86" y="332" on="1"/>
        <pt x="86" y="226" on="1"/>
        <pt x="98" y="230" on="0"/>
        <pt x="123" y="230" on="1"/>
        <pt x="170" y="230" on="0"/>
        <pt x="201" y="179" on="0"/>
        <pt x="201" y="120" on="1"/>
        <pt x="201" y="71" on="0"/>
        <pt x="185" y="18" on="0"/>
        <pt x="146" y="-4" on="0"/>
        <pt x="108" y="-4" on="1"/>
        <pt x="64" y="-4" on="0"/>
        <pt x="32" y="5" on="1"/>
        <pt x="32" y="48" on="1"/>
      </contour>
    </TTGlyph>
    <TTGlyph name="five.numr" xMin="32" yMin="304" xMax="201" yMax="687">
      <contour>
        <pt x="61" y="351" on="0"/>
        <pt x="95" y="351" on="1"/>
        <pt x="118" y="351" on="0"/>
        <pt x="138" y="361" on="0"/>
        <pt x="144" y="389" on="0"/>
        <pt x="144" y="422" on="1"/>
        <pt x="144" y="458" on="0"/>
        <pt x="139" y="484" on="0"/>
        <pt x="119" y="492" on="0"/>
        <pt x="92" y="492" on="1"/>
        <pt x="63" y="492" on="0"/>
        <pt x="35" y="486" on="1"/>
        <pt x="35" y="687" on="1"/>
        <pt x="186" y="687" on="1"/>
        <pt x="186" y="640" on="1"/>
        <pt x="86" y="640" on="1"/>
        <pt x="86" y="534" on="1"/>
        <pt x="98" y="538" on="0"/>
        <pt x="123" y="538" on="1"/>
        <pt x="170" y="538" on="0"/>
        <pt x="201" y="487" on="0"/>
        <pt x="201" y="428" on="1"/>
        <pt x="201" y="379" on="0"/>
        <pt x="185" y="326" on="0"/>
        <pt x="146" y="304" on="0"/>
        <pt x="108" y="304" on="1"/>
        <pt x="64" y="304" on="0"/>
        <pt x="32" y="313" on="1"/>
        <pt x="32" y="356" on="1"/>
      </contour>
    </TTGlyph>
    <TTGlyph name="five.tnum" xMin="52" yMin="-8" xMax="339" yMax="688">
      <contour>
        <pt x="114" y="70" on="0"/>
        <pt x="158" y="70" on="1"/>
        <pt x="201" y="70" on="0"/>
        <pt x="241" y="92" on="0"/>
        <pt x="255" y="148" on="0"/>
        <pt x="255" y="206" on="1"/>
        <pt x="255" y="269" on="0"/>
        <pt x="242" y="322" on="0"/>
        <pt x="201" y="339" on="0"/>
        <pt x="152" y="339" on="1"/>
        <pt x="114" y="339" on="0"/>
        <pt x="56" y="328" on="1"/>
        <pt x="56" y="688" on="1"/>
        <pt x="315" y="688" on="1"/>
        <pt x="315" y="610" on="1"/>
        <pt x="136" y="610" on="1"/>
        <pt x="136" y="409" on="1"/>
        <pt x="162" y="416" on="0"/>
        <pt x="202" y="416" on="1"/>
        <pt x="259" y="416" on="0"/>
        <pt x="319" y="372" on="0"/>
        <pt x="339" y="288" on="0"/>
        <pt x="339" y="217" on="1"/>
        <pt x="339" y="129" on="0"/>
        <pt x="313" y="34" on="0"/>
        <pt x="246" y="-8" on="0"/>
        <pt x="182" y="-8" on="1"/>
        <pt x="153" y="-8" on="0"/>
        <pt x="79" y="1" on="0"/>
        <pt x="52" y="8" on="1"/>
        <pt x="52" y="78" on="1"/>
      </contour>
    </TTGlyph>
    <TTGlyph name="fiveeighths" xMin="32" yMin="-4" xMax="557" yMax="688">
      <component glyphName=".ttfautohint" x="32" y="0" flags="0x0"/>
      <component glyphName="five.numr" x="0" y="0" flags="0x0"/>
      <component glyphName="fraction" x="220" y="0" flags="0x0"/>
      <component glyphName="eight.dnom" x="341" y="0" flags="0x0"/>
    </TTGlyph>
    <TTGlyph name="fl" xMin="15" yMin="0" xMax="364" yMax="743">
      <component glyphName=".ttfautohint" x="15" y="0" flags="0x0"/>
      <component glyphName="f" x="0" y="0" flags="0x0"/>
      <component glyphName="l" x="239" y="0" flags="0x0"/>
    </TTGlyph>
    <TTGlyph name="florin" xMin="-89" yMin="-194" xMax="334" yMax="743">
      <contour>
        <pt x="289" y="682" on="0"/>
        <pt x="257" y="664" on="0"/>
        <pt x="232" y="601" on="0"/>
        <pt x="216" y="529" on="1"/>
        <pt x="212" y="510" on="1"/>
        <pt x="284" y="510" on="1"/>
        <pt x="269" y="441" on="1"/>
        <pt x="197" y="441" on="1"/>
        <pt x="104" y="1" on="1"/>
        <pt x="85" y="-90" on="0"/>
        <pt x="40" y="-171" on="0"/>
        <pt x="-24" y="-194" on="0"/>
        <pt x="-89" y="-194" on="1"/>
        <pt x="-75" y="-133" on="1"/>
        <pt x="-44" y="-133" on="0"/>
        <pt x="-13" y="-121" on="0"/>
        <pt x="6" y="-86" on="0"/>
        <pt x="14" y="-48" on="1"/>
        <pt x="117" y="441" on="1"/>
        <pt x="63" y="441" on="1"/>
        <pt x="78" y="510" on="1"/>
        <pt x="132" y="510" on="1"/>
        <pt x="134" y="522" on="1"/>
        <pt x="157" y="626" on="0"/>
        <pt x="204" y="718" on="0"/>
        <pt x="269" y="743" on="0"/>
        <pt x="334" y="743" on="1"/>
        <pt x="320" y="682" on="1"/>
      </contour>
    </TTGlyph>
    <TTGlyph name="four" xMin="20" yMin="0" xMax="353" yMax="688">
      <contour>
        <pt x="216" y="154" on="1"/>
        <pt x="20" y="154" on="1"/>
        <pt x="20" y="222" on="1"/>
        <pt x="136" y="688" on="1"/>
        <pt x="222" y="688" on="1"/>
        <pt x="100" y="232" on="1"/>
        <pt x="217" y="232" on="1"/>
        <pt x="235" y="468" on="1"/>
        <pt x="300" y="468" on="1"/>
        <pt x="300" y="232" on="1"/>
        <pt x="353" y="232" on="1"/>
        <pt x="353" y="154" on="1"/>
        <pt x="300" y="154" on="1"/>
        <pt x="300" y="0" on="1"/>
        <pt x="216" y="0" on="1"/>
      </contour>
    </TTGlyph>
    <TTGlyph name="four.dnom" xMin="10" yMin="0" xMax="215" yMax="379">
      <contour>
        <pt x="128" y="83" on="1"/>
        <pt x="10" y="83" on="1"/>
        <pt x="10" y="125" on="1"/>
        <pt x="81" y="379" on="1"/>
        <pt x="137" y="379" on="1"/>
        <pt x="62" y="131" on="1"/>
        <pt x="129" y="131" on="1"/>
        <pt x="141" y="256" on="1"/>
        <pt x="184" y="256" on="1"/>
        <pt x="184" y="131" on="1"/>
        <pt x="215" y="131" on="1"/>
        <pt x="215" y="83" on="1"/>
        <pt x="184" y="83" on="1"/>
        <pt x="184" y="0" on="1"/>
        <pt x="128" y="0" on="1"/>
      </contour>
    </TTGlyph>
    <TTGlyph name="four.numr" xMin="10" yMin="308" xMax="215" yMax="687">
      <component glyphName=".ttfautohint" x="10" y="308" flags="0x0"/>
      <component glyphName="four.dnom" x="0" y="308" flags="0x4"/>
    </TTGlyph>
    <TTGlyph name="four.ss01" xMin="20" yMin="0" xMax="352" yMax="688">
      <contour>
        <pt x="216" y="154" on="1"/>
        <pt x="20" y="154" on="1"/>
        <pt x="20" y="219" on="1"/>
        <pt x="174" y="688" on="1"/>
        <pt x="300" y="688" on="1"/>
        <pt x="300" y="232" on="1"/>
        <pt x="352" y="232" on="1"/>
        <pt x="352" y="154" on="1"/>
        <pt x="300" y="154" on="1"/>
        <pt x="300" y="0" on="1"/>
        <pt x="216" y="0" on="1"/>
      </contour>
      <contour>
        <pt x="217" y="232" on="1"/>
        <pt x="217" y="589" on="1"/>
        <pt x="215" y="589" on="1"/>
        <pt x="92" y="232" on="1"/>
      </contour>
    </TTGlyph>
    <TTGlyph name="four.tnum" xMin="22" yMin="0" xMax="366" yMax="688">
      <contour>
        <pt x="230" y="154" on="1"/>
        <pt x="22" y="154" on="1"/>
        <pt x="22" y="222" on="1"/>
        <pt x="150" y="688" on="1"/>
        <pt x="236" y="688" on="1"/>
        <pt x="102" y="232" on="1"/>
        <pt x="230" y="232" on="1"/>
        <pt x="248" y="468" on="1"/>
        <pt x="314" y="468" on="1"/>
        <pt x="314" y="232" on="1"/>
        <pt x="366" y="232" on="1"/>
        <pt x="366" y="154" on="1"/>
        <pt x="314" y="154" on="1"/>
        <pt x="314" y="0" on="1"/>
        <pt x="230" y="0" on="1"/>
      </contour>
    </TTGlyph>
    <TTGlyph name="fraction" xMin="-104" yMin="0" xMax="225" yMax="688">
      <contour>
        <pt x="172" y="688" on="1"/>
        <pt x="225" y="688" on="1"/>
        <pt x="-51" y="0" on="1"/>
        <pt x="-104" y="0" on="1"/>
      </contour>
    </TTGlyph>
    <TTGlyph name="g" xMin="34" yMin="-201" xMax="332" yMax="518">
      <contour>
        <pt x="104" y="-201" on="0"/>
        <pt x="50" y="-195" on="1"/>
        <pt x="50" y="-130" on="1"/>
        <pt x="98" y="-132" on="0"/>
        <pt x="152" y="-132" on="1"/>
        <pt x="198" y="-132" on="0"/>
        <pt x="239" y="-105" on="0"/>
        <pt x="252" y="-36" on="0"/>
        <pt x="252" y="41" on="1"/>
        <pt x="252" y="67" on="1"/>
        <pt x="246" y="67" on="1"/>
        <pt x="238" y="32" on="0"/>
        <pt x="193" y="-2" on="0"/>
        <pt x="153" y="-2" on="1"/>
        <pt x="103" y="-2" on="0"/>
        <pt x="53" y="43" on="0"/>
        <pt x="34" y="151" on="0"/>
        <pt x="34" y="259" on="1"/>
        <pt x="34" y="368" on="0"/>
        <pt x="54" y="476" on="0"/>
        <pt x="104" y="518" on="0"/>
        <pt x="154" y="518" on="1"/>
        <pt x="189" y="518" on="0"/>
        <pt x="239" y="486" on="0"/>
        <pt x="249" y="443" on="1"/>
        <pt x="255" y="443" on="1"/>
        <pt x="259" y="510" on="1"/>
        <pt x="332" y="510" on="1"/>
        <pt x="332" y="71" on="1"/>
        <pt x="332" y="-38" on="0"/>
        <pt x="312" y="-148" on="0"/>
        <pt x="243" y="-201" on="0"/>
        <pt x="169" y="-201" on="1"/>
      </contour>
      <contour>
        <pt x="210" y="71" on="0"/>
        <pt x="239" y="96" on="0"/>
        <pt x="246" y="127" on="1"/>
        <pt x="252" y="164" on="0"/>
        <pt x="252" y="259" on="1"/>
        <pt x="252" y="297" on="0"/>
        <pt x="250" y="363" on="0"/>
        <pt x="247" y="382" on="1"/>
        <pt x="241" y="419" on="0"/>
        <pt x="211" y="446" on="0"/>
        <pt x="183" y="446" on="1"/>
        <pt x="150" y="446" on="0"/>
        <pt x="123" y="423" on="0"/>
        <pt x="114" y="348" on="0"/>
        <pt x="114" y="259" on="1"/>
        <pt x="114" y="169" on="0"/>
        <pt x="123" y="95" on="0"/>
        <pt x="150" y="71" on="0"/>
        <pt x="183" y="71" on="1"/>
      </contour>
    </TTGlyph>
    <TTGlyph name="g_tilde.loclGUA" xMin="34" yMin="-201" xMax="332" yMax="743">
      <component glyphName=".ttfautohint" x="34" y="0" flags="0x0"/>
      <component glyphName="g" x="0" y="0" flags="0x0"/>
      <component glyphName="tildecomb" x="311" y="0" flags="0x0"/>
    </TTGlyph>
    <TTGlyph name="gbreve" xMin="34" yMin="-201" xMax="332" yMax="743">
      <component glyphName=".ttfautohint" x="34" y="0" flags="0x0"/>
      <component glyphName="g" x="0" y="0" flags="0x0"/>
      <component glyphName="uni0306" x="293" y="0" flags="0x0"/>
    </TTGlyph>
    <TTGlyph name="gcaron" xMin="34" yMin="-201" xMax="332" yMax="743">
      <component glyphName=".ttfautohint" x="34" y="0" flags="0x0"/>
      <component glyphName="g" x="0" y="0" flags="0x0"/>
      <component glyphName="uni030C" x="296" y="0" flags="0x0"/>
    </TTGlyph>
    <TTGlyph name="gcircumflex" xMin="34" yMin="-201" xMax="332" yMax="743">
      <component glyphName=".ttfautohint" x="34" y="0" flags="0x0"/>
      <component glyphName="g" x="0" y="0" flags="0x0"/>
      <component glyphName="uni0302" x="296" y="0" flags="0x0"/>
    </TTGlyph>
    <TTGlyph name="gcommaaccent" xMin="34" yMin="-201" xMax="332" yMax="790">
      <component glyphName=".ttfautohint" x="34" y="0" flags="0x0"/>
      <component glyphName="g" x="0" y="0" flags="0x0"/>
      <component glyphName="uni0312" x="541" y="0" flags="0x0"/>
    </TTGlyph>
    <TTGlyph name="gdotaccent" xMin="34" yMin="-201" xMax="332" yMax="730">
      <component glyphName=".ttfautohint" x="34" y="0" flags="0x0"/>
      <component glyphName="g" x="0" y="0" flags="0x0"/>
      <component glyphName="uni0307" x="235" y="0" flags="0x0"/>
    </TTGlyph>
    <TTGlyph name="germandbls" xMin="45" yMin="0" xMax="349" yMax="750">
      <contour>
        <pt x="178" y="0" on="1"/>
        <pt x="178" y="69" on="1"/>
        <pt x="197" y="69" on="1"/>
        <pt x="232" y="69" on="0"/>
        <pt x="260" y="91" on="0"/>
        <pt x="269" y="162" on="0"/>
        <pt x="269" y="250" on="1"/>
        <pt x="269" y="320" on="0"/>
        <pt x="258" y="388" on="0"/>
        <pt x="231" y="413" on="0"/>
        <pt x="204" y="413" on="1"/>
        <pt x="190" y="413" on="1"/>
        <pt x="190" y="482" on="1"/>
        <pt x="204" y="482" on="1"/>
        <pt x="238" y="482" on="0"/>
        <pt x="265" y="525" on="0"/>
        <pt x="265" y="582" on="1"/>
        <pt x="265" y="639" on="0"/>
        <pt x="235" y="681" on="0"/>
        <pt x="196" y="681" on="1"/>
        <pt x="169" y="681" on="0"/>
        <pt x="138" y="660" on="0"/>
        <pt x="125" y="607" on="0"/>
        <pt x="125" y="558" on="1"/>
        <pt x="125" y="0" on="1"/>
        <pt x="45" y="0" on="1"/>
        <pt x="45" y="552" on="1"/>
        <pt x="45" y="626" on="0"/>
        <pt x="75" y="712" on="0"/>
        <pt x="140" y="750" on="0"/>
        <pt x="195" y="750" on="1"/>
        <pt x="273" y="750" on="0"/>
        <pt x="345" y="680" on="0"/>
        <pt x="345" y="591" on="1"/>
        <pt x="345" y="527" on="0"/>
        <pt x="307" y="463" on="0"/>
        <pt x="265" y="453" on="1"/>
        <pt x="265" y="449" on="1"/>
        <pt x="310" y="438" on="0"/>
        <pt x="349" y="348" on="0"/>
        <pt x="349" y="249" on="1"/>
        <pt x="349" y="153" on="0"/>
        <pt x="328" y="50" on="0"/>
        <pt x="267" y="0" on="0"/>
        <pt x="206" y="0" on="1"/>
      </contour>
    </TTGlyph>
    <TTGlyph name="grave" xMin="-1" yMin="601" xMax="110" yMax="743">
      <contour>
        <pt x="-1" y="738" on="1"/>
        <pt x="-1" y="743" on="1"/>
        <pt x="79" y="743" on="1"/>
        <pt x="110" y="606" on="1"/>
        <pt x="110" y="601" on="1"/>
        <pt x="48" y="601" on="1"/>
      </contour>
    </TTGlyph>
    <TTGlyph name="gravecomb" xMin="-110" yMin="601" xMax="1" yMax="743">
      <contour>
        <pt x="-110" y="738" on="1"/>
        <pt x="-110" y="743" on="1"/>
        <pt x="-30" y="743" on="1"/>
        <pt x="1" y="606" on="1"/>
        <pt x="1" y="601" on="1"/>
        <pt x="-61" y="601" on="1"/>
      </contour>
    </TTGlyph>
    <TTGlyph name="gravecomb.case" xMin="-110" yMin="746" xMax="1" yMax="888">
      <contour>
        <pt x="-110" y="883" on="1"/>
        <pt x="-110" y="888" on="1"/>
        <pt x="-30" y="888" on="1"/>
        <pt x="1" y="751" on="1"/>
        <pt x="1" y="746" on="1"/>
        <pt x="-61" y="746" on="1"/>
      </contour>
    </TTGlyph>
    <TTGlyph name="greater" xMin="55" yMin="77" xMax="393" yMax="430">
      <contour>
        <pt x="55" y="152" on="1"/>
        <pt x="307" y="253" on="1"/>
        <pt x="55" y="355" on="1"/>
        <pt x="55" y="430" on="1"/>
        <pt x="393" y="292" on="1"/>
        <pt x="393" y="215" on="1"/>
        <pt x="55" y="77" on="1"/>
      </contour>
    </TTGlyph>
    <TTGlyph name="greaterequal" xMin="60" yMin="47" xMax="399" yMax="546">
      <contour>
        <pt x="60" y="269" on="1"/>
        <pt x="312" y="370" on="1"/>
        <pt x="60" y="472" on="1"/>
        <pt x="60" y="546" on="1"/>
        <pt x="398" y="409" on="1"/>
        <pt x="398" y="332" on="1"/>
        <pt x="60" y="194" on="1"/>
      </contour>
      <contour>
        <pt x="60" y="118" on="1"/>
        <pt x="399" y="118" on="1"/>
        <pt x="399" y="47" on="1"/>
        <pt x="60" y="47" on="1"/>
      </contour>
    </TTGlyph>
    <TTGlyph name="guillemotleft" xMin="30" yMin="116" xMax="286" yMax="510">
      <contour>
        <pt x="30" y="313" on="1"/>
        <pt x="102" y="510" on="1"/>
        <pt x="162" y="510" on="1"/>
        <pt x="104" y="313" on="1"/>
        <pt x="162" y="116" on="1"/>
        <pt x="102" y="116" on="1"/>
      </contour>
      <contour>
        <pt x="154" y="313" on="1"/>
        <pt x="226" y="510" on="1"/>
        <pt x="286" y="510" on="1"/>
        <pt x="228" y="313" on="1"/>
        <pt x="286" y="116" on="1"/>
        <pt x="226" y="116" on="1"/>
      </contour>
    </TTGlyph>
    <TTGlyph name="guillemotright" xMin="42" yMin="116" xMax="298" yMax="510">
      <contour>
        <pt x="100" y="313" on="1"/>
        <pt x="42" y="510" on="1"/>
        <pt x="102" y="510" on="1"/>
        <pt x="174" y="313" on="1"/>
        <pt x="102" y="116" on="1"/>
        <pt x="42" y="116" on="1"/>
      </contour>
      <contour>
        <pt x="224" y="313" on="1"/>
        <pt x="166" y="510" on="1"/>
        <pt x="226" y="510" on="1"/>
        <pt x="298" y="313" on="1"/>
        <pt x="226" y="116" on="1"/>
        <pt x="166" y="116" on="1"/>
      </contour>
    </TTGlyph>
    <TTGlyph name="guilsinglleft" xMin="30" yMin="116" xMax="162" yMax="510">
      <contour>
        <pt x="30" y="313" on="1"/>
        <pt x="102" y="510" on="1"/>
        <pt x="162" y="510" on="1"/>
        <pt x="104" y="313" on="1"/>
        <pt x="162" y="116" on="1"/>
        <pt x="102" y="116" on="1"/>
      </contour>
    </TTGlyph>
    <TTGlyph name="guilsinglright" xMin="42" yMin="116" xMax="174" yMax="510">
      <contour>
        <pt x="100" y="313" on="1"/>
        <pt x="42" y="510" on="1"/>
        <pt x="102" y="510" on="1"/>
        <pt x="174" y="313" on="1"/>
        <pt x="102" y="116" on="1"/>
        <pt x="42" y="116" on="1"/>
      </contour>
    </TTGlyph>
    <TTGlyph name="h" xMin="45" yMin="0" xMax="336" yMax="743">
      <contour>
        <pt x="256" y="299" on="1"/>
        <pt x="256" y="368" on="0"/>
        <pt x="247" y="427" on="0"/>
        <pt x="223" y="446" on="0"/>
        <pt x="194" y="446" on="1"/>
        <pt x="161" y="446" on="0"/>
        <pt x="132" y="407" on="0"/>
        <pt x="125" y="335" on="0"/>
        <pt x="125" y="257" on="1"/>
        <pt x="125" y="0" on="1"/>
        <pt x="45" y="0" on="1"/>
        <pt x="45" y="743" on="1"/>
        <pt x="125" y="743" on="1"/>
        <pt x="125" y="451" on="1"/>
        <pt x="132" y="451" on="1"/>
        <pt x="153" y="518" on="0"/>
        <pt x="231" y="518" on="1"/>
        <pt x="276" y="518" on="0"/>
        <pt x="321" y="482" on="0"/>
        <pt x="336" y="405" on="0"/>
        <pt x="336" y="332" on="1"/>
        <pt x="336" y="0" on="1"/>
        <pt x="256" y="0" on="1"/>
      </contour>
    </TTGlyph>
    <TTGlyph name="hbar" xMin="2" yMin="0" xMax="336" yMax="743">
      <contour>
        <pt x="276" y="518" on="0"/>
        <pt x="321" y="482" on="0"/>
        <pt x="336" y="405" on="0"/>
        <pt x="336" y="332" on="1"/>
        <pt x="336" y="0" on="1"/>
        <pt x="256" y="0" on="1"/>
        <pt x="256" y="299" on="1"/>
        <pt x="256" y="368" on="0"/>
        <pt x="247" y="427" on="0"/>
        <pt x="223" y="446" on="0"/>
        <pt x="194" y="446" on="1"/>
        <pt x="161" y="446" on="0"/>
        <pt x="132" y="407" on="0"/>
        <pt x="125" y="335" on="0"/>
        <pt x="125" y="257" on="1"/>
        <pt x="125" y="0" on="1"/>
        <pt x="45" y="0" on="1"/>
        <pt x="45" y="619" on="1"/>
        <pt x="2" y="619" on="1"/>
        <pt x="2" y="688" on="1"/>
        <pt x="45" y="688" on="1"/>
        <pt x="45" y="743" on="1"/>
        <pt x="125" y="743" on="1"/>
        <pt x="125" y="688" on="1"/>
        <pt x="224" y="688" on="1"/>
        <pt x="224" y="619" on="1"/>
        <pt x="125" y="619" on="1"/>
        <pt x="125" y="451" on="1"/>
        <pt x="132" y="451" on="1"/>
        <pt x="153" y="518" on="0"/>
        <pt x="231" y="518" on="1"/>
      </contour>
    </TTGlyph>
    <TTGlyph name="hcircumflex" xMin="-22" yMin="0" xMax="336" yMax="921">
      <component glyphName=".ttfautohint" x="0" y="0" flags="0x0"/>
      <component glyphName="h" x="0" y="0" flags="0x0"/>
      <component glyphName="uni0302" x="193" y="178" flags="0x4"/>
    </TTGlyph>
    <TTGlyph name="hookabovecomb" xMin="-208" yMin="613" xMax="-13" yMax="797">
      <contour>
        <pt x="-162" y="631" on="1"/>
        <pt x="-162" y="649" on="0"/>
        <pt x="-147" y="668" on="0"/>
        <pt x="-129" y="673" on="1"/>
        <pt x="-120" y="676" on="1"/>
        <pt x="-92" y="684" on="0"/>
        <pt x="-74" y="697" on="0"/>
        <pt x="-74" y="715" on="1"/>
        <pt x="-74" y="727" on="0"/>
        <pt x="-81" y="738" on="0"/>
        <pt x="-101" y="742" on="0"/>
        <pt x="-125" y="742" on="1"/>
        <pt x="-208" y="741" on="1"/>
        <pt x="-208" y="787" on="1"/>
        <pt x="-144" y="797" on="0"/>
        <pt x="-113" y="797" on="1"/>
        <pt x="-59" y="797" on="0"/>
        <pt x="-13" y="768" on="0"/>
        <pt x="-13" y="730" on="1"/>
        <pt x="-13" y="706" on="0"/>
        <pt x="-17" y="682" on="0"/>
        <pt x="-35" y="663" on="0"/>
        <pt x="-55" y="655" on="1"/>
        <pt x="-64" y="652" on="1"/>
        <pt x="-86" y="644" on="0"/>
        <pt x="-103" y="635" on="0"/>
        <pt x="-107" y="625" on="0"/>
        <pt x="-107" y="613" on="1"/>
        <pt x="-162" y="613" on="1"/>
      </contour>
    </TTGlyph>
    <TTGlyph name="hookabovecomb.case" xMin="-208" yMin="739" xMax="-13" yMax="923">
      <contour>
        <pt x="-162" y="757" on="1"/>
        <pt x="-162" y="775" on="0"/>
        <pt x="-147" y="794" on="0"/>
        <pt x="-129" y="799" on="1"/>
        <pt x="-120" y="802" on="1"/>
        <pt x="-92" y="809" on="0"/>
        <pt x="-74" y="823" on="0"/>
        <pt x="-74" y="841" on="1"/>
        <pt x="-74" y="853" on="0"/>
        <pt x="-81" y="864" on="0"/>
        <pt x="-101" y="868" on="0"/>
        <pt x="-125" y="868" on="1"/>
        <pt x="-208" y="867" on="1"/>
        <pt x="-208" y="913" on="1"/>
        <pt x="-144" y="923" on="0"/>
        <pt x="-113" y="923" on="1"/>
        <pt x="-59" y="923" on="0"/>
        <pt x="-13" y="894" on="0"/>
        <pt x="-13" y="856" on="1"/>
        <pt x="-13" y="832" on="0"/>
        <pt x="-17" y="808" on="0"/>
        <pt x="-35" y="789" on="0"/>
        <pt x="-55" y="781" on="1"/>
        <pt x="-64" y="778" on="1"/>
        <pt x="-87" y="769" on="0"/>
        <pt x="-103" y="761" on="0"/>
        <pt x="-107" y="751" on="0"/>
        <pt x="-107" y="739" on="1"/>
        <pt x="-162" y="739" on="1"/>
      </contour>
    </TTGlyph>
    <TTGlyph name="house" xMin="22" yMin="0" xMax="409" yMax="699">
      <contour>
        <pt x="22" y="356" on="1"/>
        <pt x="176" y="699" on="1"/>
        <pt x="254" y="699" on="1"/>
        <pt x="409" y="356" on="1"/>
        <pt x="409" y="0" on="1"/>
        <pt x="22" y="0" on="1"/>
      </contour>
      <contour>
        <pt x="326" y="71" on="1"/>
        <pt x="326" y="350" on="1"/>
        <pt x="215" y="606" on="1"/>
        <pt x="105" y="350" on="1"/>
        <pt x="105" y="71" on="1"/>
      </contour>
    </TTGlyph>
    <TTGlyph name="hungarumlaut" xMin="12" yMin="612" xMax="217" yMax="728">
      <contour>
        <pt x="12" y="616" on="1"/>
        <pt x="38" y="728" on="1"/>
        <pt x="107" y="728" on="1"/>
        <pt x="107" y="724" on="1"/>
        <pt x="66" y="612" on="1"/>
        <pt x="12" y="612" on="1"/>
      </contour>
      <contour>
        <pt x="121" y="616" on="1"/>
        <pt x="147" y="728" on="1"/>
        <pt x="217" y="728" on="1"/>
        <pt x="217" y="724" on="1"/>
        <pt x="175" y="612" on="1"/>
        <pt x="121" y="612" on="1"/>
      </contour>
    </TTGlyph>
    <TTGlyph name="hyphen" xMin="53" yMin="248" xMax="218" yMax="323">
      <contour>
        <pt x="53" y="323" on="1"/>
        <pt x="218" y="323" on="1"/>
        <pt x="218" y="248" on="1"/>
        <pt x="53" y="248" on="1"/>
      </contour>
    </TTGlyph>
    <TTGlyph name="i" xMin="44" yMin="0" xMax="127" yMax="743">
      <contour>
        <pt x="44" y="743" on="1"/>
        <pt x="127" y="743" on="1"/>
        <pt x="127" y="652" on="1"/>
        <pt x="44" y="652" on="1"/>
      </contour>
      <contour>
        <pt x="45" y="510" on="1"/>
        <pt x="125" y="510" on="1"/>
        <pt x="125" y="0" on="1"/>
        <pt x="45" y="0" on="1"/>
      </contour>
    </TTGlyph>
    <TTGlyph name="i.loclTRK" xMin="45" yMin="0" xMax="125" yMax="730">
      <component glyphName=".ttfautohint" x="45" y="0" flags="0x0"/>
      <component glyphName="dotlessi" x="0" y="0" flags="0x0"/>
      <component glyphName="uni0307" x="132" y="0" flags="0x0"/>
    </TTGlyph>
    <TTGlyph name="iacute" xMin="45" yMin="0" xMax="156" yMax="743">
      <component glyphName=".ttfautohint" x="45" y="0" flags="0x0"/>
      <component glyphName="dotlessi" x="0" y="0" flags="0x0"/>
      <component glyphName="acute" x="46" y="0" flags="0x0"/>
    </TTGlyph>
    <TTGlyph name="iacute_j.loclNLD" xMin="45" yMin="-194" xMax="334" yMax="743">
      <component glyphName=".ttfautohint" x="45" y="0" flags="0x0"/>
      <component glyphName="dotlessi" x="0" y="0" flags="0x0"/>
      <component glyphName="acutecomb" x="162" y="0" flags="0x0"/>
      <component glyphName="uni0237" x="171" y="0" flags="0x0"/>
      <component glyphName="acutecomb" x="333" y="0" flags="0x0"/>
    </TTGlyph>
    <TTGlyph name="ibreve" xMin="-20" yMin="0" xMax="191" yMax="743">
      <component glyphName=".ttfautohint" x="0" y="0" flags="0x0"/>
      <component glyphName="dotlessi" x="0" y="0" flags="0x0"/>
      <component glyphName="uni0306" x="190" y="0" flags="0x0"/>
    </TTGlyph>
    <TTGlyph name="icircumflex" xMin="-23" yMin="0" xMax="193" yMax="743">
      <component glyphName=".ttfautohint" x="0" y="0" flags="0x0"/>
      <component glyphName="dotlessi" x="0" y="0" flags="0x0"/>
      <component glyphName="circumflex" x="-22" y="0" flags="0x0"/>
    </TTGlyph>
    <TTGlyph name="idieresis" xMin="-34" yMin="0" xMax="205" yMax="731">
      <component glyphName=".ttfautohint" x="0" y="0" flags="0x0"/>
      <component glyphName="dotlessi" x="0" y="0" flags="0x0"/>
      <component glyphName="dieresis" x="-49" y="1" flags="0x4"/>
    </TTGlyph>
    <TTGlyph name="igrave" xMin="14" yMin="0" xMax="125" yMax="743">
      <component glyphName=".ttfautohint" x="14" y="0" flags="0x0"/>
      <component glyphName="dotlessi" x="0" y="0" flags="0x0"/>
      <component glyphName="grave" x="15" y="0" flags="0x0"/>
    </TTGlyph>
</ttFont>
